<svg width="24" height="24" viewBox="0 0 56 56" fill="none" xmlns="http://www.w3.org/2000/svg"><path d="M7 14a4.667 4.667 0 1 1 9.333 0A4.667 4.667 0 0 1 7 14Z" fill="#48C9B0"/><path d="M7 30.333a4.667 4.667 0 0 1 9.333 0V42A4.667 4.667 0 1 1 7 42V30.333Z" fill="#52BE80"/><path d="M23.333 51.333a4.667 4.667 0 1 0 9.334 0 4.667 4.667 0 0 0-9.334 0Z" fill="#EC7063"/><path d="M23.333 35a4.667 4.667 0 0 0 9.334 0V4.667a4.667 4.667 0 1 0-9.334 0V35Z" fill="#AF7AC5"/><path d="M39.667 42A4.667 4.667 0 0 0 49 42V14a4.667 4.667 0 0 0-9.333 0v28Z" fill="#F5B041"/></svg>