<svg width="12" height="12" viewBox="0 0 12 12" fill="none" xmlns="http://www.w3.org/2000/svg">
<g clip-path="url(#clip0_6040_4291)">
<path d="M5.5 6C5.5 6.13261 5.55268 6.25979 5.64645 6.35355C5.74021 6.44732 5.86739 6.5 6 6.5C6.13261 6.5 6.25979 6.44732 6.35355 6.35355C6.44732 6.25979 6.5 6.13261 6.5 6C6.5 5.86739 6.44732 5.74021 6.35355 5.64645C6.25979 5.55268 6.13261 5.5 6 5.5C5.86739 5.5 5.74021 5.55268 5.64645 5.64645C5.55268 5.74021 5.5 5.86739 5.5 6Z" stroke="#444444" stroke-opacity="0.7" stroke-width="0.833333" stroke-linecap="round" stroke-linejoin="round"/>
<path d="M6 3.5C5.50555 3.5 5.0222 3.64662 4.61108 3.92133C4.19995 4.19603 3.87952 4.58648 3.6903 5.04329C3.50108 5.50011 3.45157 6.00277 3.54804 6.48773C3.6445 6.97268 3.8826 7.41814 4.23223 7.76777C4.58187 8.1174 5.02732 8.3555 5.51228 8.45196C5.99723 8.54843 6.49989 8.49892 6.95671 8.3097C7.41352 8.12048 7.80397 7.80005 8.07868 7.38893C8.35338 6.9778 8.5 6.49445 8.5 6" stroke="#444444" stroke-opacity="0.7" stroke-width="0.833333" stroke-linecap="round" stroke-linejoin="round"/>
<path d="M6.49999 1.52751C5.57303 1.42351 4.63665 1.61015 3.82039 2.06159C3.00413 2.51304 2.34834 3.20699 1.94371 4.04744C1.53909 4.88789 1.40564 5.83331 1.56182 6.75293C1.71801 7.67254 2.1561 8.52089 2.81551 9.18063C3.47492 9.84038 4.32306 10.2789 5.24259 10.4355C6.16212 10.5922 7.10761 10.4592 7.94827 10.055C8.78893 9.65082 9.4832 8.99537 9.93506 8.17934C10.3869 7.36331 10.574 6.42703 10.4705 5.50001" stroke="#444444" stroke-opacity="0.7" stroke-width="0.833333" stroke-linecap="round" stroke-linejoin="round"/>
<path d="M7.5 3V4.5H9L10.5 3H9V1.5L7.5 3Z" stroke="#444444" stroke-opacity="0.7" stroke-width="0.833333" stroke-linecap="round" stroke-linejoin="round"/>
<path d="M7.5 4.5L6 6" stroke="#444444" stroke-opacity="0.7" stroke-width="0.833333" stroke-linecap="round" stroke-linejoin="round"/>
</g>
<defs>
<clipPath id="clip0_6040_4291">
<rect width="12" height="12" fill="white"/>
</clipPath>
</defs>
</svg>
