<svg width="16" height="16" viewBox="0 0 16 16" fill="none" xmlns="http://www.w3.org/2000/svg">
<path fill-rule="evenodd" clip-rule="evenodd" d="M11.7658 10.1656C11.6158 10.3156 11.4124 10.3999 11.2002 10.3999C10.9881 10.3999 10.7846 10.3156 10.6346 10.1656L8.00023 7.53125L5.36583 10.1656C5.25506 10.2818 5.11187 10.3618 4.95494 10.3953C4.79801 10.4288 4.63462 10.4143 4.48608 10.3536C4.33754 10.2929 4.21074 10.1888 4.12222 10.055C4.03369 9.92112 3.98756 9.7637 3.98983 9.60325C3.99078 9.49693 4.01293 9.39187 4.05496 9.2942C4.09699 9.19654 4.15807 9.10823 4.23463 9.03445L7.43463 5.83445C7.58465 5.68447 7.78809 5.60022 8.00023 5.60022C8.21236 5.60022 8.4158 5.68447 8.56583 5.83445L11.7658 9.03445C11.9158 9.18447 12.0001 9.38792 12.0001 9.60005C12.0001 9.81218 11.9158 10.0156 11.7658 10.1656V10.1656Z" fill="#296FA8"/>
</svg>
