<svg width="16" height="16" viewBox="0 0 16 16" fill="none" xmlns="http://www.w3.org/2000/svg">
<path fill-rule="evenodd" clip-rule="evenodd" d="M11.7658 11.7656C11.6158 11.9156 11.4124 11.9999 11.2002 11.9999C10.9881 11.9999 10.7846 11.9156 10.6346 11.7656L8.00023 9.13122L5.36583 11.7656C5.25506 11.8817 5.11187 11.9618 4.95494 11.9953C4.79801 12.0288 4.63462 12.0143 4.48608 11.9536C4.33754 11.8928 4.21074 11.7888 4.12222 11.6549C4.03369 11.5211 3.98756 11.3637 3.98983 11.2032C3.99078 11.0969 4.01293 10.9918 4.05496 10.8942C4.09699 10.7965 4.15807 10.7082 4.23463 10.6344L7.43463 7.43442C7.58465 7.28445 7.78809 7.2002 8.00023 7.2002C8.21236 7.2002 8.4158 7.28445 8.56583 7.43442L11.7658 10.6344C11.9158 10.7844 12.0001 10.9879 12.0001 11.2C12.0001 11.4122 11.9158 11.6156 11.7658 11.7656Z" fill="#257953"/>
<path fill-rule="evenodd" clip-rule="evenodd" d="M11.7657 7.76562C11.6156 7.9156 11.4122 7.99985 11.2001 7.99985C10.9879 7.99985 10.7845 7.9156 10.6345 7.76562L8.00006 5.13122L5.36566 7.76562C5.29187 7.84203 5.20359 7.90298 5.10599 7.94491C5.00839 7.98683 4.90341 8.0089 4.79719 8.00983C4.69096 8.01075 4.58562 7.99051 4.4873 7.95028C4.38898 7.91006 4.29966 7.85065 4.22455 7.77554C4.14943 7.70043 4.09003 7.6111 4.04981 7.51279C4.00958 7.41447 3.98934 7.30913 3.99026 7.2029C3.99119 7.09668 4.01326 6.9917 4.05518 6.8941C4.09711 6.7965 4.15806 6.70822 4.23447 6.63442L7.43447 3.43442C7.58449 3.28445 7.78793 3.2002 8.00006 3.2002C8.2122 3.2002 8.41564 3.28445 8.56566 3.43442L11.7657 6.63442C11.9156 6.78445 11.9999 6.98789 11.9999 7.20002C11.9999 7.41216 11.9156 7.6156 11.7657 7.76562Z" fill="#257953"/>
</svg>
