<svg width="16" height="16" viewBox="0 0 16 16" fill="none" xmlns="http://www.w3.org/2000/svg">
<path fill-rule="evenodd" clip-rule="evenodd" d="M9.91591 2.04241C9.8652 1.94084 9.79346 1.85122 9.70544 1.77951C9.61743 1.70781 9.51516 1.65566 9.40544 1.62652C9.29572 1.59739 9.18105 1.59194 9.06906 1.61054C8.95707 1.62914 8.85032 1.67137 8.75591 1.73441C8.47991 1.91841 8.26471 2.18081 8.09831 2.43841C7.92711 2.70241 7.77591 3.00881 7.64231 3.33121C7.37511 3.97441 7.15111 4.74561 6.97031 5.51841C6.75166 6.4628 6.58791 7.41907 6.47991 8.38241C6.15441 8.17257 5.89288 7.87727 5.72391 7.52881C5.46151 6.98481 5.40551 6.30161 5.40551 5.40561C5.40547 5.24741 5.35854 5.09277 5.27063 4.96124C5.18272 4.82971 5.05779 4.7272 4.91163 4.66667C4.76547 4.60613 4.60464 4.59029 4.44948 4.62114C4.29432 4.652 4.15179 4.72816 4.03991 4.84001C3.51924 5.35956 3.10633 5.97684 2.82489 6.65641C2.54345 7.33599 2.39902 8.06446 2.39991 8.80001C2.39997 9.7209 2.62714 10.6276 3.0613 11.4397C3.49545 12.2518 4.12319 12.9444 4.88891 13.456C5.65462 13.9676 6.53469 14.2824 7.45116 14.3727C8.36762 14.4629 9.29219 14.3257 10.143 13.9733C10.9938 13.6209 11.7445 13.0641 12.3287 12.3522C12.913 11.6404 13.3126 10.7954 13.4923 9.89222C13.672 8.98902 13.6261 8.05545 13.3588 7.1742C13.0915 6.29295 12.611 5.49121 11.9599 4.84001C11.4863 4.36721 11.1759 4.05201 10.8815 3.66641C10.5911 3.28561 10.3023 2.81601 9.91591 2.04241ZM9.69591 12.096C9.36027 12.4312 8.93282 12.6595 8.46754 12.7519C8.00227 12.8443 7.52003 12.7968 7.08175 12.6153C6.64347 12.4338 6.26879 12.1266 6.00505 11.7323C5.74131 11.338 5.60032 10.8744 5.59991 10.4C5.59991 10.4 6.30311 10.8 7.59991 10.8C7.59991 10 7.99991 7.60001 8.59991 7.20001C8.99991 8.00001 9.22871 8.23441 9.69671 8.70321C9.91994 8.92575 10.097 9.19023 10.2177 9.48142C10.3383 9.77262 10.4003 10.0848 10.3999 10.4C10.4003 10.7152 10.3383 11.0274 10.2177 11.3186C10.097 11.6098 9.91994 11.8743 9.69671 12.0968L9.69591 12.096Z" fill="#CC0F35"/>
</svg>
