<svg width="238" height="143" viewBox="0 0 238 143" fill="none" xmlns="http://www.w3.org/2000/svg">
<g filter="url(#filter0_d_3608_3758)">
<rect x="11" y="10" width="216" height="121" rx="2" fill="white"/>
<rect x="11.5" y="10.5" width="215" height="120" rx="1.5" stroke="#C2C2C2"/>
</g>
<path opacity="0.7" d="M23.2129 32H22.2637V25.9297C22.2637 25.6992 22.2637 25.502 22.2637 25.3379C22.2676 25.1699 22.2715 25.0176 22.2754 24.8809C22.2832 24.7402 22.293 24.5977 22.3047 24.4531C22.1836 24.5781 22.0703 24.6855 21.9648 24.7754C21.8594 24.8613 21.7285 24.9688 21.5723 25.0977L20.5938 25.8828L20.084 25.2207L22.4043 23.4336H23.2129V32ZM29.2891 23.3105C29.7852 23.3105 30.2246 23.3887 30.6074 23.5449C30.9902 23.7012 31.2891 23.9316 31.5039 24.2363C31.7227 24.5371 31.832 24.9082 31.832 25.3496C31.832 25.6973 31.7559 26.002 31.6035 26.2637C31.4551 26.5215 31.2539 26.748 31 26.9434C30.7461 27.1348 30.4648 27.3066 30.1562 27.459C30.5234 27.627 30.8535 27.8164 31.1465 28.0273C31.4434 28.2383 31.6777 28.4863 31.8496 28.7715C32.0215 29.0566 32.1074 29.3945 32.1074 29.7852C32.1074 30.2656 31.9902 30.6816 31.7559 31.0332C31.5254 31.3809 31.2012 31.6484 30.7832 31.8359C30.3652 32.0234 29.875 32.1172 29.3125 32.1172C28.707 32.1172 28.1914 32.0273 27.7656 31.8477C27.3438 31.6641 27.0215 31.4023 26.7988 31.0625C26.5801 30.7188 26.4707 30.3066 26.4707 29.8262C26.4707 29.4316 26.5547 29.0898 26.7227 28.8008C26.8906 28.5078 27.1133 28.2559 27.3906 28.0449C27.668 27.834 27.9707 27.6562 28.2988 27.5117C28.0137 27.3555 27.752 27.1777 27.5137 26.9785C27.2793 26.7793 27.0918 26.5469 26.9512 26.2812C26.8145 26.0117 26.7461 25.6992 26.7461 25.3438C26.7461 24.9102 26.8555 24.543 27.0742 24.2422C27.2969 23.9375 27.5996 23.707 27.9824 23.5508C28.3691 23.3906 28.8047 23.3105 29.2891 23.3105ZM27.4258 29.832C27.4258 30.2695 27.5801 30.6309 27.8887 30.916C28.1973 31.1973 28.6641 31.3379 29.2891 31.3379C29.8828 31.3379 30.3418 31.1973 30.666 30.916C30.9902 30.6309 31.1523 30.2578 31.1523 29.7969C31.1523 29.5117 31.0781 29.2617 30.9297 29.0469C30.7812 28.8281 30.5703 28.6328 30.2969 28.4609C30.0234 28.2891 29.7012 28.1328 29.3301 27.9922L29.1191 27.916C28.7598 28.0645 28.4531 28.2305 28.1992 28.4141C27.9492 28.5938 27.7578 28.7988 27.625 29.0293C27.4922 29.2598 27.4258 29.5273 27.4258 29.832ZM29.2773 24.1074C28.8164 24.1074 28.4395 24.2188 28.1465 24.4414C27.8535 24.6602 27.707 24.9766 27.707 25.3906C27.707 25.6875 27.7773 25.9395 27.918 26.1465C28.0625 26.3496 28.2578 26.5254 28.5039 26.6738C28.75 26.8184 29.0254 26.9531 29.3301 27.0781C29.627 26.9531 29.8906 26.8164 30.1211 26.668C30.3516 26.5156 30.5332 26.3359 30.666 26.1289C30.7988 25.9219 30.8652 25.6738 30.8652 25.3848C30.8652 24.9707 30.7188 24.6543 30.4258 24.4355C30.1367 24.2168 29.7539 24.1074 29.2773 24.1074ZM33.6133 31.3906C33.6133 31.1172 33.6797 30.9238 33.8125 30.8105C33.9453 30.6934 34.1074 30.6348 34.2988 30.6348C34.498 30.6348 34.666 30.6934 34.8027 30.8105C34.9395 30.9238 35.0078 31.1172 35.0078 31.3906C35.0078 31.6602 34.9395 31.8574 34.8027 31.9824C34.666 32.1035 34.498 32.1641 34.2988 32.1641C34.1074 32.1641 33.9453 32.1035 33.8125 31.9824C33.6797 31.8574 33.6133 31.6602 33.6133 31.3906ZM33.6133 26.1934C33.6133 25.9121 33.6797 25.7148 33.8125 25.6016C33.9453 25.4844 34.1074 25.4258 34.2988 25.4258C34.498 25.4258 34.666 25.4844 34.8027 25.6016C34.9395 25.7148 35.0078 25.9121 35.0078 26.1934C35.0078 26.459 34.9395 26.6523 34.8027 26.7734C34.666 26.8945 34.498 26.9551 34.2988 26.9551C34.1074 26.9551 33.9453 26.8945 33.8125 26.7734C33.6797 26.6523 33.6133 26.459 33.6133 26.1934ZM42.1387 27.7051C42.1387 28.4004 42.0859 29.0215 41.9805 29.5684C41.875 30.1152 41.709 30.5781 41.4824 30.957C41.2559 31.3359 40.9629 31.625 40.6035 31.8242C40.2441 32.0195 39.8125 32.1172 39.3086 32.1172C38.6719 32.1172 38.1445 31.9434 37.7266 31.5957C37.3125 31.248 37.002 30.7461 36.7949 30.0898C36.5918 29.4297 36.4902 28.6348 36.4902 27.7051C36.4902 26.791 36.582 26.0059 36.7656 25.3496C36.9531 24.6895 37.2539 24.1836 37.668 23.832C38.082 23.4766 38.6289 23.2988 39.3086 23.2988C39.9531 23.2988 40.4844 23.4746 40.9023 23.8262C41.3203 24.1738 41.6309 24.6777 41.834 25.3379C42.0371 25.9941 42.1387 26.7832 42.1387 27.7051ZM37.4688 27.7051C37.4688 28.502 37.5293 29.166 37.6504 29.6973C37.7715 30.2285 37.9668 30.627 38.2363 30.8926C38.5098 31.1543 38.8672 31.2852 39.3086 31.2852C39.75 31.2852 40.1055 31.1543 40.375 30.8926C40.6484 30.6309 40.8457 30.2344 40.9668 29.7031C41.0918 29.1719 41.1543 28.5059 41.1543 27.7051C41.1543 26.9199 41.0938 26.2637 40.9727 25.7363C40.8516 25.2051 40.6562 24.8066 40.3867 24.541C40.1172 24.2715 39.7578 24.1367 39.3086 24.1367C38.8594 24.1367 38.5 24.2715 38.2305 24.541C37.9609 24.8066 37.7656 25.2051 37.6445 25.7363C37.5273 26.2637 37.4688 26.9199 37.4688 27.7051ZM49.0059 27.7051C49.0059 28.4004 48.9531 29.0215 48.8477 29.5684C48.7422 30.1152 48.5762 30.5781 48.3496 30.957C48.123 31.3359 47.8301 31.625 47.4707 31.8242C47.1113 32.0195 46.6797 32.1172 46.1758 32.1172C45.5391 32.1172 45.0117 31.9434 44.5938 31.5957C44.1797 31.248 43.8691 30.7461 43.6621 30.0898C43.459 29.4297 43.3574 28.6348 43.3574 27.7051C43.3574 26.791 43.4492 26.0059 43.6328 25.3496C43.8203 24.6895 44.1211 24.1836 44.5352 23.832C44.9492 23.4766 45.4961 23.2988 46.1758 23.2988C46.8203 23.2988 47.3516 23.4746 47.7695 23.8262C48.1875 24.1738 48.498 24.6777 48.7012 25.3379C48.9043 25.9941 49.0059 26.7832 49.0059 27.7051ZM44.3359 27.7051C44.3359 28.502 44.3965 29.166 44.5176 29.6973C44.6387 30.2285 44.834 30.627 45.1035 30.8926C45.377 31.1543 45.7344 31.2852 46.1758 31.2852C46.6172 31.2852 46.9727 31.1543 47.2422 30.8926C47.5156 30.6309 47.7129 30.2344 47.834 29.7031C47.959 29.1719 48.0215 28.5059 48.0215 27.7051C48.0215 26.9199 47.9609 26.2637 47.8398 25.7363C47.7188 25.2051 47.5234 24.8066 47.2539 24.541C46.9844 24.2715 46.625 24.1367 46.1758 24.1367C45.7266 24.1367 45.3672 24.2715 45.0977 24.541C44.8281 24.8066 44.6328 25.2051 44.5117 25.7363C44.3945 26.2637 44.3359 26.9199 44.3359 27.7051Z" fill="black"/>
<path opacity="0.7" d="M23.2129 121H22.2637V114.93C22.2637 114.699 22.2637 114.502 22.2637 114.338C22.2676 114.17 22.2715 114.018 22.2754 113.881C22.2832 113.74 22.293 113.598 22.3047 113.453C22.1836 113.578 22.0703 113.686 21.9648 113.775C21.8594 113.861 21.7285 113.969 21.5723 114.098L20.5938 114.883L20.084 114.221L22.4043 112.434H23.2129V121ZM32.084 116.084C32.084 116.604 32.0469 117.109 31.9727 117.602C31.9023 118.094 31.7793 118.553 31.6035 118.979C31.4316 119.404 31.1973 119.777 30.9004 120.098C30.6035 120.418 30.2305 120.67 29.7812 120.854C29.3359 121.033 28.8027 121.123 28.1816 121.123C28.0137 121.123 27.8223 121.111 27.6074 121.088C27.3926 121.068 27.2168 121.039 27.0801 121V120.156C27.2246 120.207 27.3945 120.248 27.5898 120.279C27.7852 120.307 27.9766 120.32 28.1641 120.32C28.8945 120.32 29.4688 120.164 29.8867 119.852C30.3047 119.535 30.6055 119.107 30.7891 118.568C30.9727 118.025 31.0762 117.416 31.0996 116.74H31.0293C30.9121 116.928 30.7578 117.102 30.5664 117.262C30.3789 117.418 30.1504 117.545 29.8809 117.643C29.6113 117.736 29.2969 117.783 28.9375 117.783C28.4414 117.783 28.0078 117.682 27.6367 117.479C27.2695 117.275 26.9824 116.98 26.7754 116.594C26.5723 116.207 26.4707 115.74 26.4707 115.193C26.4707 114.604 26.582 114.094 26.8047 113.664C27.0312 113.23 27.3477 112.896 27.7539 112.662C28.1602 112.428 28.6387 112.311 29.1895 112.311C29.6113 112.311 29.998 112.391 30.3496 112.551C30.7012 112.711 31.0059 112.951 31.2637 113.271C31.5254 113.588 31.7266 113.98 31.8672 114.449C32.0117 114.918 32.084 115.463 32.084 116.084ZM29.1895 113.137C28.6699 113.137 28.248 113.307 27.9238 113.646C27.6035 113.986 27.4434 114.498 27.4434 115.182C27.4434 115.748 27.582 116.195 27.8594 116.523C28.1367 116.852 28.5645 117.016 29.1426 117.016C29.541 117.016 29.8848 116.936 30.1738 116.775C30.4668 116.615 30.6914 116.412 30.8477 116.166C31.0078 115.92 31.0879 115.668 31.0879 115.41C31.0879 115.152 31.0488 114.891 30.9707 114.625C30.8965 114.359 30.7812 114.115 30.625 113.893C30.4688 113.666 30.2715 113.484 30.0332 113.348C29.7949 113.207 29.5137 113.137 29.1895 113.137ZM33.6133 120.391C33.6133 120.117 33.6797 119.924 33.8125 119.811C33.9453 119.693 34.1074 119.635 34.2988 119.635C34.498 119.635 34.666 119.693 34.8027 119.811C34.9395 119.924 35.0078 120.117 35.0078 120.391C35.0078 120.66 34.9395 120.857 34.8027 120.982C34.666 121.104 34.498 121.164 34.2988 121.164C34.1074 121.164 33.9453 121.104 33.8125 120.982C33.6797 120.857 33.6133 120.66 33.6133 120.391ZM33.6133 115.193C33.6133 114.912 33.6797 114.715 33.8125 114.602C33.9453 114.484 34.1074 114.426 34.2988 114.426C34.498 114.426 34.666 114.484 34.8027 114.602C34.9395 114.715 35.0078 114.912 35.0078 115.193C35.0078 115.459 34.9395 115.652 34.8027 115.773C34.666 115.895 34.498 115.955 34.2988 115.955C34.1074 115.955 33.9453 115.895 33.8125 115.773C33.6797 115.652 33.6133 115.459 33.6133 115.193ZM42.1387 116.705C42.1387 117.4 42.0859 118.021 41.9805 118.568C41.875 119.115 41.709 119.578 41.4824 119.957C41.2559 120.336 40.9629 120.625 40.6035 120.824C40.2441 121.02 39.8125 121.117 39.3086 121.117C38.6719 121.117 38.1445 120.943 37.7266 120.596C37.3125 120.248 37.002 119.746 36.7949 119.09C36.5918 118.43 36.4902 117.635 36.4902 116.705C36.4902 115.791 36.582 115.006 36.7656 114.35C36.9531 113.689 37.2539 113.184 37.668 112.832C38.082 112.477 38.6289 112.299 39.3086 112.299C39.9531 112.299 40.4844 112.475 40.9023 112.826C41.3203 113.174 41.6309 113.678 41.834 114.338C42.0371 114.994 42.1387 115.783 42.1387 116.705ZM37.4688 116.705C37.4688 117.502 37.5293 118.166 37.6504 118.697C37.7715 119.229 37.9668 119.627 38.2363 119.893C38.5098 120.154 38.8672 120.285 39.3086 120.285C39.75 120.285 40.1055 120.154 40.375 119.893C40.6484 119.631 40.8457 119.234 40.9668 118.703C41.0918 118.172 41.1543 117.506 41.1543 116.705C41.1543 115.92 41.0938 115.264 40.9727 114.736C40.8516 114.205 40.6562 113.807 40.3867 113.541C40.1172 113.271 39.7578 113.137 39.3086 113.137C38.8594 113.137 38.5 113.271 38.2305 113.541C37.9609 113.807 37.7656 114.205 37.6445 114.736C37.5273 115.264 37.4688 115.92 37.4688 116.705ZM49.0059 116.705C49.0059 117.4 48.9531 118.021 48.8477 118.568C48.7422 119.115 48.5762 119.578 48.3496 119.957C48.123 120.336 47.8301 120.625 47.4707 120.824C47.1113 121.02 46.6797 121.117 46.1758 121.117C45.5391 121.117 45.0117 120.943 44.5938 120.596C44.1797 120.248 43.8691 119.746 43.6621 119.09C43.459 118.43 43.3574 117.635 43.3574 116.705C43.3574 115.791 43.4492 115.006 43.6328 114.35C43.8203 113.689 44.1211 113.184 44.5352 112.832C44.9492 112.477 45.4961 112.299 46.1758 112.299C46.8203 112.299 47.3516 112.475 47.7695 112.826C48.1875 113.174 48.498 113.678 48.7012 114.338C48.9043 114.994 49.0059 115.783 49.0059 116.705ZM44.3359 116.705C44.3359 117.502 44.3965 118.166 44.5176 118.697C44.6387 119.229 44.834 119.627 45.1035 119.893C45.377 120.154 45.7344 120.285 46.1758 120.285C46.6172 120.285 46.9727 120.154 47.2422 119.893C47.5156 119.631 47.7129 119.234 47.834 118.703C47.959 118.172 48.0215 117.506 48.0215 116.705C48.0215 115.92 47.9609 115.264 47.8398 114.736C47.7188 114.205 47.5234 113.807 47.2539 113.541C46.9844 113.271 46.625 113.137 46.1758 113.137C45.7266 113.137 45.3672 113.271 45.0977 113.541C44.8281 113.807 44.6328 114.205 44.5117 114.736C44.3945 115.264 44.3359 115.92 44.3359 116.705Z" fill="black"/>
<rect x="58" y="29" width="163" height="87" rx="2" fill="#F3E5F5"/>
<path d="M69.0059 42.7207C69.0059 43.2285 68.8789 43.6621 68.625 44.0215C68.375 44.377 68.0234 44.6484 67.5703 44.8359C67.1172 45.0234 66.584 45.1172 65.9707 45.1172C65.6465 45.1172 65.3398 45.1016 65.0508 45.0703C64.7617 45.0391 64.4961 44.9941 64.2539 44.9355C64.0117 44.877 63.7988 44.8047 63.6152 44.7188V43.7637C63.9082 43.8848 64.2656 43.998 64.6875 44.1035C65.1094 44.2051 65.5508 44.2559 66.0117 44.2559C66.4414 44.2559 66.8047 44.1992 67.1016 44.0859C67.3984 43.9688 67.623 43.8027 67.7754 43.5879C67.9316 43.3691 68.0098 43.1074 68.0098 42.8027C68.0098 42.5098 67.9453 42.2656 67.8164 42.0703C67.6875 41.8711 67.4727 41.6914 67.1719 41.5312C66.875 41.3672 66.4688 41.1934 65.9531 41.0098C65.5898 40.8809 65.2695 40.7402 64.9922 40.5879C64.7148 40.4316 64.4824 40.2559 64.2949 40.0605C64.1074 39.8652 63.9648 39.6387 63.8672 39.3809C63.7734 39.123 63.7266 38.8281 63.7266 38.4961C63.7266 38.0391 63.8418 37.6484 64.0723 37.3242C64.3066 36.9961 64.6289 36.7461 65.0391 36.5742C65.4531 36.3984 65.9277 36.3105 66.4629 36.3105C66.9199 36.3105 67.3418 36.3535 67.7285 36.4395C68.1191 36.5254 68.4766 36.6406 68.8008 36.7852L68.4902 37.6406C68.1816 37.5117 67.8535 37.4043 67.5059 37.3184C67.1621 37.2324 66.8066 37.1895 66.4395 37.1895C66.0723 37.1895 65.7617 37.2441 65.5078 37.3535C65.2578 37.459 65.0664 37.6094 64.9336 37.8047C64.8008 38 64.7344 38.2324 64.7344 38.502C64.7344 38.8027 64.7969 39.0527 64.9219 39.252C65.0508 39.4512 65.2539 39.6289 65.5312 39.7852C65.8125 39.9375 66.1836 40.0977 66.6445 40.2656C67.1484 40.4492 67.5762 40.6445 67.9277 40.8516C68.2793 41.0547 68.5469 41.3047 68.7305 41.6016C68.9141 41.8945 69.0059 42.2676 69.0059 42.7207ZM73.084 38.4609C73.6309 38.4609 74.0996 38.582 74.4902 38.8242C74.8809 39.0664 75.1797 39.4062 75.3867 39.8438C75.5938 40.2773 75.6973 40.7852 75.6973 41.3672V41.9707H71.2617C71.2734 42.7246 71.4609 43.2988 71.8242 43.6934C72.1875 44.0879 72.6992 44.2852 73.3594 44.2852C73.7656 44.2852 74.125 44.248 74.4375 44.1738C74.75 44.0996 75.0742 43.9902 75.4102 43.8457V44.7012C75.0859 44.8457 74.7637 44.9512 74.4434 45.0176C74.127 45.084 73.752 45.1172 73.3184 45.1172C72.7012 45.1172 72.1621 44.9922 71.7012 44.7422C71.2441 44.4883 70.8887 44.1172 70.6348 43.6289C70.3809 43.1406 70.2539 42.543 70.2539 41.8359C70.2539 41.1445 70.3691 40.5469 70.5996 40.043C70.834 39.5352 71.1621 39.1445 71.584 38.8711C72.0098 38.5977 72.5098 38.4609 73.084 38.4609ZM73.0723 39.2578C72.5527 39.2578 72.1387 39.4277 71.8301 39.7676C71.5215 40.1074 71.3379 40.582 71.2793 41.1914H74.6777C74.6738 40.8086 74.6133 40.4727 74.4961 40.1836C74.3828 39.8906 74.209 39.6641 73.9746 39.5039C73.7402 39.3398 73.4395 39.2578 73.0723 39.2578ZM80.3906 38.4609C81.1523 38.4609 81.7285 38.6484 82.1191 39.0234C82.5098 39.3945 82.7051 39.9922 82.7051 40.8164V45H81.7441V40.8809C81.7441 40.3457 81.6211 39.9453 81.375 39.6797C81.1328 39.4141 80.7598 39.2812 80.2559 39.2812C79.5449 39.2812 79.0449 39.4824 78.7559 39.8848C78.4668 40.2871 78.3223 40.8711 78.3223 41.6367V45H77.3496V38.5781H78.1348L78.2812 39.5039H78.334C78.4707 39.2773 78.6445 39.0879 78.8555 38.9355C79.0664 38.7793 79.3027 38.6621 79.5645 38.584C79.8262 38.502 80.1016 38.4609 80.3906 38.4609ZM86.9941 45.1172C86.1816 45.1172 85.5371 44.8398 85.0605 44.2852C84.5879 43.7305 84.3516 42.9062 84.3516 41.8125C84.3516 40.707 84.5938 39.873 85.0781 39.3105C85.5625 38.7441 86.207 38.4609 87.0117 38.4609C87.3516 38.4609 87.6484 38.5059 87.9023 38.5957C88.1562 38.6855 88.375 38.8066 88.5586 38.959C88.7422 39.1074 88.8965 39.2773 89.0215 39.4688H89.0918C89.0762 39.3477 89.0605 39.1816 89.0449 38.9707C89.0293 38.7598 89.0215 38.5879 89.0215 38.4551V35.8828H89.9941V45H89.209L89.0625 44.0859H89.0215C88.9004 44.2773 88.7461 44.4512 88.5586 44.6074C88.375 44.7637 88.1543 44.8887 87.8965 44.9824C87.6426 45.0723 87.3418 45.1172 86.9941 45.1172ZM87.1465 44.3086C87.834 44.3086 88.3203 44.1133 88.6055 43.7227C88.8906 43.332 89.0332 42.752 89.0332 41.9824V41.8066C89.0332 40.9902 88.8965 40.3633 88.623 39.9258C88.3535 39.4883 87.8613 39.2695 87.1465 39.2695C86.5488 39.2695 86.1016 39.5 85.8047 39.9609C85.5078 40.418 85.3594 41.043 85.3594 41.8359C85.3594 42.625 85.5059 43.2344 85.7988 43.6641C86.0957 44.0938 86.5449 44.3086 87.1465 44.3086ZM97.248 44.3203C97.4082 44.3203 97.5723 44.3066 97.7402 44.2793C97.9082 44.252 98.0449 44.2188 98.1504 44.1797V44.9355C98.0371 44.9863 97.8789 45.0293 97.6758 45.0645C97.4766 45.0996 97.2812 45.1172 97.0898 45.1172C96.75 45.1172 96.4414 45.0586 96.1641 44.9414C95.8867 44.8203 95.6641 44.6172 95.4961 44.332C95.332 44.0469 95.25 43.6523 95.25 43.1484V39.3398H94.3359V38.8652L95.2559 38.4844L95.6426 37.0898H96.2285V38.5781H98.1094V39.3398H96.2285V43.1191C96.2285 43.5215 96.3203 43.8223 96.5039 44.0215C96.6914 44.2207 96.9395 44.3203 97.248 44.3203ZM100.424 35.8828V38.6074C100.424 38.7637 100.42 38.9219 100.412 39.082C100.404 39.2383 100.391 39.3828 100.371 39.5156H100.436C100.568 39.2891 100.736 39.0996 100.939 38.9473C101.146 38.791 101.381 38.6738 101.643 38.5957C101.904 38.5137 102.182 38.4727 102.475 38.4727C102.99 38.4727 103.42 38.5547 103.764 38.7188C104.111 38.8828 104.371 39.1367 104.543 39.4805C104.719 39.8242 104.807 40.2695 104.807 40.8164V45H103.846V40.8809C103.846 40.3457 103.723 39.9453 103.477 39.6797C103.234 39.4141 102.861 39.2812 102.357 39.2812C101.881 39.2812 101.5 39.373 101.215 39.5566C100.934 39.7363 100.73 40.002 100.605 40.3535C100.484 40.7051 100.424 41.1348 100.424 41.6426V45H99.4512V35.8828H100.424ZM109.283 38.4609C109.83 38.4609 110.299 38.582 110.689 38.8242C111.08 39.0664 111.379 39.4062 111.586 39.8438C111.793 40.2773 111.896 40.7852 111.896 41.3672V41.9707H107.461C107.473 42.7246 107.66 43.2988 108.023 43.6934C108.387 44.0879 108.898 44.2852 109.559 44.2852C109.965 44.2852 110.324 44.248 110.637 44.1738C110.949 44.0996 111.273 43.9902 111.609 43.8457V44.7012C111.285 44.8457 110.963 44.9512 110.643 45.0176C110.326 45.084 109.951 45.1172 109.518 45.1172C108.9 45.1172 108.361 44.9922 107.9 44.7422C107.443 44.4883 107.088 44.1172 106.834 43.6289C106.58 43.1406 106.453 42.543 106.453 41.8359C106.453 41.1445 106.568 40.5469 106.799 40.043C107.033 39.5352 107.361 39.1445 107.783 38.8711C108.209 38.5977 108.709 38.4609 109.283 38.4609ZM109.271 39.2578C108.752 39.2578 108.338 39.4277 108.029 39.7676C107.721 40.1074 107.537 40.582 107.479 41.1914H110.877C110.873 40.8086 110.812 40.4727 110.695 40.1836C110.582 39.8906 110.408 39.6641 110.174 39.5039C109.939 39.3398 109.639 39.2578 109.271 39.2578ZM119.584 38.4609C119.713 38.4609 119.848 38.4688 119.988 38.4844C120.129 38.4961 120.254 38.5137 120.363 38.5371L120.24 39.4395C120.135 39.4121 120.018 39.3906 119.889 39.375C119.76 39.3594 119.639 39.3516 119.525 39.3516C119.268 39.3516 119.023 39.4043 118.793 39.5098C118.566 39.6113 118.367 39.7598 118.195 39.9551C118.023 40.1465 117.889 40.3789 117.791 40.6523C117.693 40.9219 117.645 41.2227 117.645 41.5547V45H116.666V38.5781H117.475L117.58 39.7617H117.621C117.754 39.5234 117.914 39.3066 118.102 39.1113C118.289 38.9121 118.506 38.7539 118.752 38.6367C119.002 38.5195 119.279 38.4609 119.584 38.4609ZM124.049 38.4609C124.596 38.4609 125.064 38.582 125.455 38.8242C125.846 39.0664 126.145 39.4062 126.352 39.8438C126.559 40.2773 126.662 40.7852 126.662 41.3672V41.9707H122.227C122.238 42.7246 122.426 43.2988 122.789 43.6934C123.152 44.0879 123.664 44.2852 124.324 44.2852C124.73 44.2852 125.09 44.248 125.402 44.1738C125.715 44.0996 126.039 43.9902 126.375 43.8457V44.7012C126.051 44.8457 125.729 44.9512 125.408 45.0176C125.092 45.084 124.717 45.1172 124.283 45.1172C123.666 45.1172 123.127 44.9922 122.666 44.7422C122.209 44.4883 121.854 44.1172 121.6 43.6289C121.346 43.1406 121.219 42.543 121.219 41.8359C121.219 41.1445 121.334 40.5469 121.564 40.043C121.799 39.5352 122.127 39.1445 122.549 38.8711C122.975 38.5977 123.475 38.4609 124.049 38.4609ZM124.037 39.2578C123.518 39.2578 123.104 39.4277 122.795 39.7676C122.486 40.1074 122.303 40.582 122.244 41.1914H125.643C125.639 40.8086 125.578 40.4727 125.461 40.1836C125.348 39.8906 125.174 39.6641 124.939 39.5039C124.705 39.3398 124.404 39.2578 124.037 39.2578ZM131.332 38.4609C132.133 38.4609 132.771 38.7363 133.248 39.2871C133.725 39.8379 133.963 40.666 133.963 41.7715C133.963 42.502 133.854 43.1152 133.635 43.6113C133.416 44.1074 133.107 44.4824 132.709 44.7363C132.314 44.9902 131.848 45.1172 131.309 45.1172C130.969 45.1172 130.67 45.0723 130.412 44.9824C130.154 44.8926 129.934 44.7715 129.75 44.6191C129.566 44.4668 129.414 44.3008 129.293 44.1211H129.223C129.234 44.2734 129.248 44.457 129.264 44.6719C129.283 44.8867 129.293 45.0742 129.293 45.2344V47.8711H128.314V38.5781H129.117L129.246 39.5273H129.293C129.418 39.332 129.57 39.1543 129.75 38.9941C129.93 38.8301 130.148 38.7012 130.406 38.6074C130.668 38.5098 130.977 38.4609 131.332 38.4609ZM131.162 39.2812C130.717 39.2812 130.357 39.3672 130.084 39.5391C129.814 39.7109 129.617 39.9688 129.492 40.3125C129.367 40.6523 129.301 41.0801 129.293 41.5957V41.7832C129.293 42.3262 129.352 42.7852 129.469 43.1602C129.59 43.5352 129.787 43.8203 130.061 44.0156C130.338 44.2109 130.709 44.3086 131.174 44.3086C131.572 44.3086 131.904 44.2012 132.17 43.9863C132.436 43.7715 132.633 43.4727 132.762 43.0898C132.895 42.7031 132.961 42.2598 132.961 41.7598C132.961 41.002 132.812 40.4004 132.516 39.9551C132.223 39.5059 131.771 39.2812 131.162 39.2812ZM141.199 41.7773C141.199 42.3047 141.131 42.7754 140.994 43.1895C140.857 43.6035 140.66 43.9531 140.402 44.2383C140.145 44.5234 139.832 44.7422 139.465 44.8945C139.102 45.043 138.689 45.1172 138.229 45.1172C137.799 45.1172 137.404 45.043 137.045 44.8945C136.689 44.7422 136.381 44.5234 136.119 44.2383C135.861 43.9531 135.66 43.6035 135.516 43.1895C135.375 42.7754 135.305 42.3047 135.305 41.7773C135.305 41.0742 135.424 40.4766 135.662 39.9844C135.9 39.4883 136.24 39.1113 136.682 38.8535C137.127 38.5918 137.656 38.4609 138.27 38.4609C138.855 38.4609 139.367 38.5918 139.805 38.8535C140.246 39.1152 140.588 39.4941 140.83 39.9902C141.076 40.4824 141.199 41.0781 141.199 41.7773ZM136.312 41.7773C136.312 42.293 136.381 42.7402 136.518 43.1191C136.654 43.498 136.865 43.791 137.15 43.998C137.436 44.2051 137.803 44.3086 138.252 44.3086C138.697 44.3086 139.062 44.2051 139.348 43.998C139.637 43.791 139.85 43.498 139.986 43.1191C140.123 42.7402 140.191 42.293 140.191 41.7773C140.191 41.2656 140.123 40.8242 139.986 40.4531C139.85 40.0781 139.639 39.7891 139.354 39.5859C139.068 39.3828 138.699 39.2812 138.246 39.2812C137.578 39.2812 137.088 39.502 136.775 39.9434C136.467 40.3848 136.312 40.9961 136.312 41.7773ZM145.799 38.4609C145.928 38.4609 146.062 38.4688 146.203 38.4844C146.344 38.4961 146.469 38.5137 146.578 38.5371L146.455 39.4395C146.35 39.4121 146.232 39.3906 146.104 39.375C145.975 39.3594 145.854 39.3516 145.74 39.3516C145.482 39.3516 145.238 39.4043 145.008 39.5098C144.781 39.6113 144.582 39.7598 144.41 39.9551C144.238 40.1465 144.104 40.3789 144.006 40.6523C143.908 40.9219 143.859 41.2227 143.859 41.5547V45H142.881V38.5781H143.689L143.795 39.7617H143.836C143.969 39.5234 144.129 39.3066 144.316 39.1113C144.504 38.9121 144.721 38.7539 144.967 38.6367C145.217 38.5195 145.494 38.4609 145.799 38.4609ZM149.865 44.3203C150.025 44.3203 150.189 44.3066 150.357 44.2793C150.525 44.252 150.662 44.2188 150.768 44.1797V44.9355C150.654 44.9863 150.496 45.0293 150.293 45.0645C150.094 45.0996 149.898 45.1172 149.707 45.1172C149.367 45.1172 149.059 45.0586 148.781 44.9414C148.504 44.8203 148.281 44.6172 148.113 44.332C147.949 44.0469 147.867 43.6523 147.867 43.1484V39.3398H146.953V38.8652L147.873 38.4844L148.26 37.0898H148.846V38.5781H150.727V39.3398H148.846V43.1191C148.846 43.5215 148.938 43.8223 149.121 44.0215C149.309 44.2207 149.557 44.3203 149.865 44.3203Z" fill="#582CBA"/>
<path d="M67.2129 61H66.2637V54.9297C66.2637 54.6992 66.2637 54.502 66.2637 54.3379C66.2676 54.1699 66.2715 54.0176 66.2754 53.8809C66.2832 53.7402 66.293 53.5977 66.3047 53.4531C66.1836 53.5781 66.0703 53.6855 65.9648 53.7754C65.8594 53.8613 65.7285 53.9688 65.5723 54.0977L64.5938 54.8828L64.084 54.2207L66.4043 52.4336H67.2129V61ZM73.2891 52.3105C73.7852 52.3105 74.2246 52.3887 74.6074 52.5449C74.9902 52.7012 75.2891 52.9316 75.5039 53.2363C75.7227 53.5371 75.832 53.9082 75.832 54.3496C75.832 54.6973 75.7559 55.002 75.6035 55.2637C75.4551 55.5215 75.2539 55.748 75 55.9434C74.7461 56.1348 74.4648 56.3066 74.1562 56.459C74.5234 56.627 74.8535 56.8164 75.1465 57.0273C75.4434 57.2383 75.6777 57.4863 75.8496 57.7715C76.0215 58.0566 76.1074 58.3945 76.1074 58.7852C76.1074 59.2656 75.9902 59.6816 75.7559 60.0332C75.5254 60.3809 75.2012 60.6484 74.7832 60.8359C74.3652 61.0234 73.875 61.1172 73.3125 61.1172C72.707 61.1172 72.1914 61.0273 71.7656 60.8477C71.3438 60.6641 71.0215 60.4023 70.7988 60.0625C70.5801 59.7188 70.4707 59.3066 70.4707 58.8262C70.4707 58.4316 70.5547 58.0898 70.7227 57.8008C70.8906 57.5078 71.1133 57.2559 71.3906 57.0449C71.668 56.834 71.9707 56.6562 72.2988 56.5117C72.0137 56.3555 71.752 56.1777 71.5137 55.9785C71.2793 55.7793 71.0918 55.5469 70.9512 55.2812C70.8145 55.0117 70.7461 54.6992 70.7461 54.3438C70.7461 53.9102 70.8555 53.543 71.0742 53.2422C71.2969 52.9375 71.5996 52.707 71.9824 52.5508C72.3691 52.3906 72.8047 52.3105 73.2891 52.3105ZM71.4258 58.832C71.4258 59.2695 71.5801 59.6309 71.8887 59.916C72.1973 60.1973 72.6641 60.3379 73.2891 60.3379C73.8828 60.3379 74.3418 60.1973 74.666 59.916C74.9902 59.6309 75.1523 59.2578 75.1523 58.7969C75.1523 58.5117 75.0781 58.2617 74.9297 58.0469C74.7812 57.8281 74.5703 57.6328 74.2969 57.4609C74.0234 57.2891 73.7012 57.1328 73.3301 56.9922L73.1191 56.916C72.7598 57.0645 72.4531 57.2305 72.1992 57.4141C71.9492 57.5938 71.7578 57.7988 71.625 58.0293C71.4922 58.2598 71.4258 58.5273 71.4258 58.832ZM73.2773 53.1074C72.8164 53.1074 72.4395 53.2188 72.1465 53.4414C71.8535 53.6602 71.707 53.9766 71.707 54.3906C71.707 54.6875 71.7773 54.9395 71.918 55.1465C72.0625 55.3496 72.2578 55.5254 72.5039 55.6738C72.75 55.8184 73.0254 55.9531 73.3301 56.0781C73.627 55.9531 73.8906 55.8164 74.1211 55.668C74.3516 55.5156 74.5332 55.3359 74.666 55.1289C74.7988 54.9219 74.8652 54.6738 74.8652 54.3848C74.8652 53.9707 74.7188 53.6543 74.4258 53.4355C74.1367 53.2168 73.7539 53.1074 73.2773 53.1074ZM77.6133 60.3906C77.6133 60.1172 77.6797 59.9238 77.8125 59.8105C77.9453 59.6934 78.1074 59.6348 78.2988 59.6348C78.498 59.6348 78.666 59.6934 78.8027 59.8105C78.9395 59.9238 79.0078 60.1172 79.0078 60.3906C79.0078 60.6602 78.9395 60.8574 78.8027 60.9824C78.666 61.1035 78.498 61.1641 78.2988 61.1641C78.1074 61.1641 77.9453 61.1035 77.8125 60.9824C77.6797 60.8574 77.6133 60.6602 77.6133 60.3906ZM77.6133 55.1934C77.6133 54.9121 77.6797 54.7148 77.8125 54.6016C77.9453 54.4844 78.1074 54.4258 78.2988 54.4258C78.498 54.4258 78.666 54.4844 78.8027 54.6016C78.9395 54.7148 79.0078 54.9121 79.0078 55.1934C79.0078 55.459 78.9395 55.6523 78.8027 55.7734C78.666 55.8945 78.498 55.9551 78.2988 55.9551C78.1074 55.9551 77.9453 55.8945 77.8125 55.7734C77.6797 55.6523 77.6133 55.459 77.6133 55.1934ZM86.1387 56.7051C86.1387 57.4004 86.0859 58.0215 85.9805 58.5684C85.875 59.1152 85.709 59.5781 85.4824 59.957C85.2559 60.3359 84.9629 60.625 84.6035 60.8242C84.2441 61.0195 83.8125 61.1172 83.3086 61.1172C82.6719 61.1172 82.1445 60.9434 81.7266 60.5957C81.3125 60.248 81.002 59.7461 80.7949 59.0898C80.5918 58.4297 80.4902 57.6348 80.4902 56.7051C80.4902 55.791 80.582 55.0059 80.7656 54.3496C80.9531 53.6895 81.2539 53.1836 81.668 52.832C82.082 52.4766 82.6289 52.2988 83.3086 52.2988C83.9531 52.2988 84.4844 52.4746 84.9023 52.8262C85.3203 53.1738 85.6309 53.6777 85.834 54.3379C86.0371 54.9941 86.1387 55.7832 86.1387 56.7051ZM81.4688 56.7051C81.4688 57.502 81.5293 58.166 81.6504 58.6973C81.7715 59.2285 81.9668 59.627 82.2363 59.8926C82.5098 60.1543 82.8672 60.2852 83.3086 60.2852C83.75 60.2852 84.1055 60.1543 84.375 59.8926C84.6484 59.6309 84.8457 59.2344 84.9668 58.7031C85.0918 58.1719 85.1543 57.5059 85.1543 56.7051C85.1543 55.9199 85.0938 55.2637 84.9727 54.7363C84.8516 54.2051 84.6562 53.8066 84.3867 53.541C84.1172 53.2715 83.7578 53.1367 83.3086 53.1367C82.8594 53.1367 82.5 53.2715 82.2305 53.541C81.9609 53.8066 81.7656 54.2051 81.6445 54.7363C81.5273 55.2637 81.4688 55.9199 81.4688 56.7051ZM93.0059 56.7051C93.0059 57.4004 92.9531 58.0215 92.8477 58.5684C92.7422 59.1152 92.5762 59.5781 92.3496 59.957C92.123 60.3359 91.8301 60.625 91.4707 60.8242C91.1113 61.0195 90.6797 61.1172 90.1758 61.1172C89.5391 61.1172 89.0117 60.9434 88.5938 60.5957C88.1797 60.248 87.8691 59.7461 87.6621 59.0898C87.459 58.4297 87.3574 57.6348 87.3574 56.7051C87.3574 55.791 87.4492 55.0059 87.6328 54.3496C87.8203 53.6895 88.1211 53.1836 88.5352 52.832C88.9492 52.4766 89.4961 52.2988 90.1758 52.2988C90.8203 52.2988 91.3516 52.4746 91.7695 52.8262C92.1875 53.1738 92.498 53.6777 92.7012 54.3379C92.9043 54.9941 93.0059 55.7832 93.0059 56.7051ZM88.3359 56.7051C88.3359 57.502 88.3965 58.166 88.5176 58.6973C88.6387 59.2285 88.834 59.627 89.1035 59.8926C89.377 60.1543 89.7344 60.2852 90.1758 60.2852C90.6172 60.2852 90.9727 60.1543 91.2422 59.8926C91.5156 59.6309 91.7129 59.2344 91.834 58.7031C91.959 58.1719 92.0215 57.5059 92.0215 56.7051C92.0215 55.9199 91.9609 55.2637 91.8398 54.7363C91.7188 54.2051 91.5234 53.8066 91.2539 53.541C90.9844 53.2715 90.625 53.1367 90.1758 53.1367C89.7266 53.1367 89.3672 53.2715 89.0977 53.541C88.8281 53.8066 88.6328 54.2051 88.5117 54.7363C88.3945 55.2637 88.3359 55.9199 88.3359 56.7051ZM97.2188 58.2109V57.3438H100.125V58.2109H97.2188ZM107.936 61H106.986V54.9297C106.986 54.6992 106.986 54.502 106.986 54.3379C106.99 54.1699 106.994 54.0176 106.998 53.8809C107.006 53.7402 107.016 53.5977 107.027 53.4531C106.906 53.5781 106.793 53.6855 106.688 53.7754C106.582 53.8613 106.451 53.9688 106.295 54.0977L105.316 54.8828L104.807 54.2207L107.127 52.4336H107.936V61ZM116.807 56.084C116.807 56.6035 116.77 57.1094 116.695 57.6016C116.625 58.0938 116.502 58.5527 116.326 58.9785C116.154 59.4043 115.92 59.7773 115.623 60.0977C115.326 60.418 114.953 60.6699 114.504 60.8535C114.059 61.0332 113.525 61.123 112.904 61.123C112.736 61.123 112.545 61.1113 112.33 61.0879C112.115 61.0684 111.939 61.0391 111.803 61V60.1562C111.947 60.207 112.117 60.248 112.312 60.2793C112.508 60.3066 112.699 60.3203 112.887 60.3203C113.617 60.3203 114.191 60.1641 114.609 59.8516C115.027 59.5352 115.328 59.1074 115.512 58.5684C115.695 58.0254 115.799 57.416 115.822 56.7402H115.752C115.635 56.9277 115.48 57.1016 115.289 57.2617C115.102 57.418 114.873 57.5449 114.604 57.6426C114.334 57.7363 114.02 57.7832 113.66 57.7832C113.164 57.7832 112.73 57.6816 112.359 57.4785C111.992 57.2754 111.705 56.9805 111.498 56.5938C111.295 56.207 111.193 55.7402 111.193 55.1934C111.193 54.6035 111.305 54.0938 111.527 53.6641C111.754 53.2305 112.07 52.8965 112.477 52.6621C112.883 52.4277 113.361 52.3105 113.912 52.3105C114.334 52.3105 114.721 52.3906 115.072 52.5508C115.424 52.7109 115.729 52.9512 115.986 53.2715C116.248 53.5879 116.449 53.9805 116.59 54.4492C116.734 54.918 116.807 55.4629 116.807 56.084ZM113.912 53.1367C113.393 53.1367 112.971 53.3066 112.646 53.6465C112.326 53.9863 112.166 54.498 112.166 55.1816C112.166 55.748 112.305 56.1953 112.582 56.5234C112.859 56.8516 113.287 57.0156 113.865 57.0156C114.264 57.0156 114.607 56.9355 114.896 56.7754C115.189 56.6152 115.414 56.4121 115.57 56.166C115.73 55.9199 115.811 55.668 115.811 55.4102C115.811 55.1523 115.771 54.8906 115.693 54.625C115.619 54.3594 115.504 54.1152 115.348 53.8926C115.191 53.666 114.994 53.4844 114.756 53.3477C114.518 53.207 114.236 53.1367 113.912 53.1367ZM118.336 60.3906C118.336 60.1172 118.402 59.9238 118.535 59.8105C118.668 59.6934 118.83 59.6348 119.021 59.6348C119.221 59.6348 119.389 59.6934 119.525 59.8105C119.662 59.9238 119.73 60.1172 119.73 60.3906C119.73 60.6602 119.662 60.8574 119.525 60.9824C119.389 61.1035 119.221 61.1641 119.021 61.1641C118.83 61.1641 118.668 61.1035 118.535 60.9824C118.402 60.8574 118.336 60.6602 118.336 60.3906ZM118.336 55.1934C118.336 54.9121 118.402 54.7148 118.535 54.6016C118.668 54.4844 118.83 54.4258 119.021 54.4258C119.221 54.4258 119.389 54.4844 119.525 54.6016C119.662 54.7148 119.73 54.9121 119.73 55.1934C119.73 55.459 119.662 55.6523 119.525 55.7734C119.389 55.8945 119.221 55.9551 119.021 55.9551C118.83 55.9551 118.668 55.8945 118.535 55.7734C118.402 55.6523 118.336 55.459 118.336 55.1934ZM126.861 56.7051C126.861 57.4004 126.809 58.0215 126.703 58.5684C126.598 59.1152 126.432 59.5781 126.205 59.957C125.979 60.3359 125.686 60.625 125.326 60.8242C124.967 61.0195 124.535 61.1172 124.031 61.1172C123.395 61.1172 122.867 60.9434 122.449 60.5957C122.035 60.248 121.725 59.7461 121.518 59.0898C121.314 58.4297 121.213 57.6348 121.213 56.7051C121.213 55.791 121.305 55.0059 121.488 54.3496C121.676 53.6895 121.977 53.1836 122.391 52.832C122.805 52.4766 123.352 52.2988 124.031 52.2988C124.676 52.2988 125.207 52.4746 125.625 52.8262C126.043 53.1738 126.354 53.6777 126.557 54.3379C126.76 54.9941 126.861 55.7832 126.861 56.7051ZM122.191 56.7051C122.191 57.502 122.252 58.166 122.373 58.6973C122.494 59.2285 122.689 59.627 122.959 59.8926C123.232 60.1543 123.59 60.2852 124.031 60.2852C124.473 60.2852 124.828 60.1543 125.098 59.8926C125.371 59.6309 125.568 59.2344 125.689 58.7031C125.814 58.1719 125.877 57.5059 125.877 56.7051C125.877 55.9199 125.816 55.2637 125.695 54.7363C125.574 54.2051 125.379 53.8066 125.109 53.541C124.84 53.2715 124.48 53.1367 124.031 53.1367C123.582 53.1367 123.223 53.2715 122.953 53.541C122.684 53.8066 122.488 54.2051 122.367 54.7363C122.25 55.2637 122.191 55.9199 122.191 56.7051ZM133.729 56.7051C133.729 57.4004 133.676 58.0215 133.57 58.5684C133.465 59.1152 133.299 59.5781 133.072 59.957C132.846 60.3359 132.553 60.625 132.193 60.8242C131.834 61.0195 131.402 61.1172 130.898 61.1172C130.262 61.1172 129.734 60.9434 129.316 60.5957C128.902 60.248 128.592 59.7461 128.385 59.0898C128.182 58.4297 128.08 57.6348 128.08 56.7051C128.08 55.791 128.172 55.0059 128.355 54.3496C128.543 53.6895 128.844 53.1836 129.258 52.832C129.672 52.4766 130.219 52.2988 130.898 52.2988C131.543 52.2988 132.074 52.4746 132.492 52.8262C132.91 53.1738 133.221 53.6777 133.424 54.3379C133.627 54.9941 133.729 55.7832 133.729 56.7051ZM129.059 56.7051C129.059 57.502 129.119 58.166 129.24 58.6973C129.361 59.2285 129.557 59.627 129.826 59.8926C130.1 60.1543 130.457 60.2852 130.898 60.2852C131.34 60.2852 131.695 60.1543 131.965 59.8926C132.238 59.6309 132.436 59.2344 132.557 58.7031C132.682 58.1719 132.744 57.5059 132.744 56.7051C132.744 55.9199 132.684 55.2637 132.562 54.7363C132.441 54.2051 132.246 53.8066 131.977 53.541C131.707 53.2715 131.348 53.1367 130.898 53.1367C130.449 53.1367 130.09 53.2715 129.82 53.541C129.551 53.8066 129.355 54.2051 129.234 54.7363C129.117 55.2637 129.059 55.9199 129.059 56.7051ZM137.941 57.7129C137.941 57.0527 138.004 56.4102 138.129 55.7852C138.258 55.1602 138.453 54.5645 138.715 53.998C138.977 53.4316 139.307 52.9102 139.705 52.4336H140.637C140.07 53.1758 139.645 54 139.359 54.9062C139.074 55.8125 138.932 56.7441 138.932 57.7012C138.932 58.3262 138.994 58.9434 139.119 59.5527C139.248 60.1582 139.438 60.7422 139.688 61.3047C139.941 61.8672 140.254 62.3984 140.625 62.8984H139.705C139.307 62.4297 138.977 61.918 138.715 61.3633C138.453 60.8125 138.258 60.2285 138.129 59.6113C138.004 58.9941 137.941 58.3613 137.941 57.7129ZM147.205 61H141.592V60.1855L143.883 57.8594C144.309 57.4297 144.666 57.0469 144.955 56.7109C145.248 56.375 145.471 56.0449 145.623 55.7207C145.775 55.3926 145.852 55.0332 145.852 54.6426C145.852 54.1582 145.707 53.7891 145.418 53.5352C145.133 53.2773 144.756 53.1484 144.287 53.1484C143.877 53.1484 143.514 53.2188 143.197 53.3594C142.881 53.5 142.557 53.6992 142.225 53.957L141.703 53.3008C141.93 53.1094 142.176 52.9395 142.441 52.791C142.711 52.6426 142.998 52.5254 143.303 52.4395C143.611 52.3535 143.939 52.3105 144.287 52.3105C144.814 52.3105 145.27 52.4023 145.652 52.5859C146.035 52.7695 146.33 53.0312 146.537 53.3711C146.748 53.7109 146.854 54.1152 146.854 54.584C146.854 55.0371 146.764 55.459 146.584 55.8496C146.404 56.2363 146.152 56.6211 145.828 57.0039C145.504 57.3828 145.125 57.7852 144.691 58.2109L142.828 60.0684V60.1094H147.205V61ZM149.865 51.8828V54.6074C149.865 54.7637 149.861 54.9219 149.854 55.082C149.846 55.2383 149.832 55.3828 149.812 55.5156H149.877C150.01 55.2891 150.178 55.0996 150.381 54.9473C150.588 54.791 150.822 54.6738 151.084 54.5957C151.346 54.5137 151.623 54.4727 151.916 54.4727C152.432 54.4727 152.861 54.5547 153.205 54.7188C153.553 54.8828 153.812 55.1367 153.984 55.4805C154.16 55.8242 154.248 56.2695 154.248 56.8164V61H153.287V56.8809C153.287 56.3457 153.164 55.9453 152.918 55.6797C152.676 55.4141 152.303 55.2812 151.799 55.2812C151.322 55.2812 150.941 55.373 150.656 55.5566C150.375 55.7363 150.172 56.002 150.047 56.3535C149.926 56.7051 149.865 57.1348 149.865 57.6426V61H148.893V51.8828H149.865ZM158.285 57.7012C158.285 58.3535 158.221 58.9902 158.092 59.6113C157.967 60.2285 157.773 60.8145 157.512 61.3691C157.254 61.9238 156.924 62.4336 156.521 62.8984H155.602C155.977 62.4023 156.289 61.8711 156.539 61.3047C156.793 60.7383 156.982 60.1523 157.107 59.5469C157.236 58.9375 157.301 58.3203 157.301 57.6953C157.301 57.0586 157.236 56.4316 157.107 55.8145C156.979 55.1973 156.787 54.6035 156.533 54.0332C156.283 53.4629 155.969 52.9297 155.59 52.4336H156.521C156.924 52.9141 157.254 53.4375 157.512 54.0039C157.773 54.5664 157.967 55.1602 158.092 55.7852C158.221 56.4062 158.285 57.0449 158.285 57.7012Z" fill="#582CBA"/>
<defs>
<filter id="filter0_d_3608_3758" x="0" y="0" width="238" height="143" filterUnits="userSpaceOnUse" color-interpolation-filters="sRGB">
<feFlood flood-opacity="0" result="BackgroundImageFix"/>
<feColorMatrix in="SourceAlpha" type="matrix" values="0 0 0 0 0 0 0 0 0 0 0 0 0 0 0 0 0 0 127 0" result="hardAlpha"/>
<feMorphology radius="3" operator="dilate" in="SourceAlpha" result="effect1_dropShadow_3608_3758"/>
<feOffset dy="1"/>
<feGaussianBlur stdDeviation="4"/>
<feComposite in2="hardAlpha" operator="out"/>
<feColorMatrix type="matrix" values="0 0 0 0 0 0 0 0 0 0 0 0 0 0 0 0 0 0 0.03 0"/>
<feBlend mode="normal" in2="BackgroundImageFix" result="effect1_dropShadow_3608_3758"/>
<feBlend mode="normal" in="SourceGraphic" in2="effect1_dropShadow_3608_3758" result="shape"/>
</filter>
</defs>
</svg>
