<svg width="193" height="117" viewBox="0 0 193 117" fill="none" xmlns="http://www.w3.org/2000/svg">
<g filter="url(#filter0_d_3608_3756)">
<rect x="11" y="10" width="171" height="95" rx="2" fill="white"/>
<rect x="11.5" y="10.5" width="170" height="94" rx="1.5" stroke="#C2C2C2"/>
</g>
<g clip-path="url(#clip0_3608_3756)">
<path d="M18.25 26.75V25.0833M22 19.4583V21.75M18.25 25.0833V20.0833C18.25 19.8623 18.3378 19.6504 18.4941 19.4941C18.6504 19.3378 18.8623 19.25 19.0833 19.25H21.7917L22.2083 19.6667H25.75L24.5 22.1667L25.75 24.6667H22.2083L21.7917 24.25H19.0833C18.8623 24.25 18.6504 24.3378 18.4941 24.4941C18.3378 24.6504 18.25 24.8623 18.25 25.0833V25.0833Z" stroke="#9C27B0" stroke-width="0.833333" stroke-linecap="round" stroke-linejoin="round"/>
</g>
<rect x="32" y="20" width="29" height="6" fill="#EDEDED"/>
<rect x="28" y="47" width="59" height="4" fill="#EDEDED"/>
<rect x="28" y="53" width="22" height="4" fill="#EDEDED"/>
<rect x="169" y="19" width="7" height="7" fill="#EDEDED"/>
<rect x="160" y="19" width="7" height="7" fill="#EDEDED"/>
<rect x="151" y="19" width="7" height="7" fill="#EDEDED"/>
<rect x="142" y="19" width="7" height="7" fill="#EDEDED"/>
<rect x="133" y="19" width="7" height="7" fill="#EDEDED"/>
<rect x="124" y="19" width="7" height="7" fill="#EDEDED"/>
<rect x="115" y="19" width="7" height="7" fill="#EDEDED"/>
<rect x="12" y="34" width="169" height="6" fill="#F7F7F7"/>
<rect x="12" y="76" width="169" height="6" fill="#F7F7F7"/>
<rect x="19.5" y="46.5" width="5" height="5" rx="0.5" fill="white" stroke="#C2C2C2"/>
<rect x="28" y="62" width="59" height="4" fill="#EDEDED"/>
<rect x="28" y="68" width="22" height="4" fill="#EDEDED"/>
<rect x="28" y="85" width="59" height="4" fill="#EDEDED"/>
<rect x="28" y="91" width="22" height="4" fill="#EDEDED"/>
<rect x="19.5" y="61.5" width="5" height="5" rx="0.5" fill="white" stroke="#C2C2C2"/>
<rect x="21" y="85" width="2" height="10" rx="1" fill="#BFFAB5"/>
<rect x="145" y="87" width="31" height="8" rx="2" fill="#03A9F4"/>
<defs>
<filter id="filter0_d_3608_3756" x="0" y="0" width="193" height="117" filterUnits="userSpaceOnUse" color-interpolation-filters="sRGB">
<feFlood flood-opacity="0" result="BackgroundImageFix"/>
<feColorMatrix in="SourceAlpha" type="matrix" values="0 0 0 0 0 0 0 0 0 0 0 0 0 0 0 0 0 0 127 0" result="hardAlpha"/>
<feMorphology radius="3" operator="dilate" in="SourceAlpha" result="effect1_dropShadow_3608_3756"/>
<feOffset dy="1"/>
<feGaussianBlur stdDeviation="4"/>
<feComposite in2="hardAlpha" operator="out"/>
<feColorMatrix type="matrix" values="0 0 0 0 0 0 0 0 0 0 0 0 0 0 0 0 0 0 0.03 0"/>
<feBlend mode="normal" in2="BackgroundImageFix" result="effect1_dropShadow_3608_3756"/>
<feBlend mode="normal" in="SourceGraphic" in2="effect1_dropShadow_3608_3756" result="shape"/>
</filter>
<clipPath id="clip0_3608_3756">
<rect width="10" height="10" fill="white" transform="translate(17 18)"/>
</clipPath>
</defs>
</svg>
