<svg width="193" height="117" viewBox="0 0 193 117" fill="none" xmlns="http://www.w3.org/2000/svg">
<g filter="url(#filter0_d_3599_1452)">
<rect x="11" y="10" width="171" height="95" rx="2" fill="white"/>
<rect x="11.5" y="10.5" width="170" height="94" rx="1.5" stroke="#C2C2C2"/>
</g>
<rect x="18.5" y="19.5" width="7" height="7" rx="0.5" fill="white" stroke="#C2C2C2"/>
<rect x="30.5" y="72.5" width="7" height="7" rx="0.5" fill="white" stroke="#C2C2C2"/>
<rect x="30.5" y="89.5" width="7" height="7" rx="0.5" fill="white" stroke="#C2C2C2"/>
<path d="M33.6152 19.4336C34.7207 19.4336 35.5273 19.6602 36.0352 20.1133C36.543 20.5664 36.7969 21.2012 36.7969 22.0176C36.7969 22.3887 36.7383 22.7422 36.6211 23.0781C36.5078 23.4102 36.3203 23.7051 36.0586 23.9629C35.7969 24.2168 35.4512 24.418 35.0215 24.5664C34.5957 24.7148 34.0703 24.7891 33.4453 24.7891H32.5312V28H31.125V19.4336H33.6152ZM33.5215 20.5996H32.5312V23.6172H33.2988C33.7402 23.6172 34.1152 23.5664 34.4238 23.4648C34.7324 23.3594 34.9668 23.1934 35.127 22.9668C35.2871 22.7402 35.3672 22.4414 35.3672 22.0703C35.3672 21.5742 35.2168 21.2051 34.916 20.9629C34.6191 20.7207 34.1543 20.5996 33.5215 20.5996ZM41.6543 21.3906C41.7637 21.3906 41.8828 21.3965 42.0117 21.4082C42.1406 21.4199 42.252 21.4355 42.3457 21.4551L42.2168 22.7441C42.1348 22.7207 42.0332 22.7031 41.9121 22.6914C41.7949 22.6797 41.6895 22.6738 41.5957 22.6738C41.3496 22.6738 41.1152 22.7148 40.8926 22.7969C40.6699 22.875 40.4727 22.9961 40.3008 23.1602C40.1289 23.3203 39.9941 23.5215 39.8965 23.7637C39.7988 24.0059 39.75 24.2871 39.75 24.6074V28H38.3672V21.5137H39.4453L39.6328 22.6562H39.6973C39.8262 22.4258 39.9863 22.2148 40.1777 22.0234C40.3691 21.832 40.5879 21.6797 40.834 21.5664C41.084 21.4492 41.3574 21.3906 41.6543 21.3906ZM46.1309 21.3906C46.709 21.3906 47.2051 21.5098 47.6191 21.748C48.0332 21.9863 48.3516 22.3242 48.5742 22.7617C48.7969 23.1992 48.9082 23.7227 48.9082 24.332V25.0703H44.5781C44.5938 25.6992 44.7617 26.1836 45.082 26.5234C45.4062 26.8633 45.8594 27.0332 46.4414 27.0332C46.8555 27.0332 47.2266 26.9941 47.5547 26.916C47.8867 26.834 48.2285 26.7148 48.5801 26.5586V27.6777C48.2559 27.8301 47.9258 27.9414 47.5898 28.0117C47.2539 28.082 46.8516 28.1172 46.3828 28.1172C45.7461 28.1172 45.1855 27.9941 44.7012 27.748C44.2207 27.498 43.8438 27.127 43.5703 26.6348C43.3008 26.1426 43.166 25.5312 43.166 24.8008C43.166 24.0742 43.2891 23.457 43.5352 22.9492C43.7812 22.4414 44.127 22.0547 44.5723 21.7891C45.0176 21.5234 45.5371 21.3906 46.1309 21.3906ZM46.1309 22.4277C45.6973 22.4277 45.3457 22.5684 45.0762 22.8496C44.8105 23.1309 44.6543 23.543 44.6074 24.0859H47.5605C47.5566 23.7617 47.502 23.4746 47.3965 23.2246C47.2949 22.9746 47.1387 22.7793 46.9277 22.6387C46.7207 22.498 46.4551 22.4277 46.1309 22.4277ZM53.7891 21.3906C54.5586 21.3906 55.1758 21.6719 55.6406 22.2344C56.1094 22.7969 56.3438 23.6328 56.3438 24.7422C56.3438 25.4766 56.2344 26.0957 56.0156 26.5996C55.8008 27.0996 55.498 27.4785 55.1074 27.7363C54.7207 27.9902 54.2695 28.1172 53.7539 28.1172C53.4258 28.1172 53.1406 28.0742 52.8984 27.9883C52.6562 27.9023 52.4492 27.791 52.2773 27.6543C52.1055 27.5137 51.9609 27.3613 51.8438 27.1973H51.7617C51.7812 27.3535 51.7988 27.5273 51.8145 27.7188C51.834 27.9062 51.8438 28.0781 51.8438 28.2344V30.877H50.4609V21.5137H51.5859L51.7793 22.4102H51.8438C51.9648 22.2266 52.1113 22.0566 52.2832 21.9004C52.459 21.7441 52.6699 21.6211 52.916 21.5312C53.166 21.4375 53.457 21.3906 53.7891 21.3906ZM53.4199 22.5156C53.041 22.5156 52.7363 22.5918 52.5059 22.7441C52.2793 22.8926 52.1133 23.1172 52.0078 23.418C51.9062 23.7188 51.8516 24.0957 51.8438 24.5488V24.7422C51.8438 25.2227 51.8926 25.6309 51.9902 25.9668C52.0918 26.2988 52.2578 26.5527 52.4883 26.7285C52.7227 26.9004 53.0391 26.9863 53.4375 26.9863C53.7734 26.9863 54.0508 26.8945 54.2695 26.7109C54.4922 26.5273 54.6582 26.2656 54.7676 25.9258C54.877 25.5859 54.9316 25.1855 54.9316 24.7246C54.9316 24.0254 54.8066 23.4824 54.5566 23.0957C54.3105 22.709 53.9316 22.5156 53.4199 22.5156ZM60.4805 21.3906C61.3008 21.3906 61.9199 21.5723 62.3379 21.9355C62.7598 22.2988 62.9707 22.8652 62.9707 23.6348V28H61.9922L61.7285 27.0801H61.6816C61.498 27.3145 61.3086 27.5078 61.1133 27.6602C60.918 27.8125 60.6914 27.9258 60.4336 28C60.1797 28.0781 59.8691 28.1172 59.502 28.1172C59.1152 28.1172 58.7695 28.0469 58.4648 27.9062C58.1602 27.7617 57.9199 27.543 57.7441 27.25C57.5684 26.957 57.4805 26.5859 57.4805 26.1367C57.4805 25.4688 57.7285 24.9668 58.2246 24.6309C58.7246 24.2949 59.4785 24.1094 60.4863 24.0742L61.6113 24.0332V23.6934C61.6113 23.2441 61.5059 22.9238 61.2949 22.7324C61.0879 22.541 60.7949 22.4453 60.416 22.4453C60.0918 22.4453 59.7773 22.4922 59.4727 22.5859C59.168 22.6797 58.8711 22.7949 58.582 22.9316L58.1367 21.959C58.4531 21.791 58.8125 21.6543 59.2148 21.5488C59.6211 21.4434 60.043 21.3906 60.4805 21.3906ZM61.6055 24.9004L60.7676 24.9297C60.0801 24.9531 59.5977 25.0703 59.3203 25.2812C59.043 25.4922 58.9043 25.7812 58.9043 26.1484C58.9043 26.4688 59 26.7031 59.1914 26.8516C59.3828 26.9961 59.6348 27.0684 59.9473 27.0684C60.4238 27.0684 60.8184 26.9336 61.1309 26.6641C61.4473 26.3906 61.6055 25.9902 61.6055 25.4629V24.9004ZM68.1855 21.3906C68.2949 21.3906 68.4141 21.3965 68.543 21.4082C68.6719 21.4199 68.7832 21.4355 68.877 21.4551L68.748 22.7441C68.666 22.7207 68.5645 22.7031 68.4434 22.6914C68.3262 22.6797 68.2207 22.6738 68.127 22.6738C67.8809 22.6738 67.6465 22.7148 67.4238 22.7969C67.2012 22.875 67.0039 22.9961 66.832 23.1602C66.6602 23.3203 66.5254 23.5215 66.4277 23.7637C66.3301 24.0059 66.2812 24.2871 66.2812 24.6074V28H64.8984V21.5137H65.9766L66.1641 22.6562H66.2285C66.3574 22.4258 66.5176 22.2148 66.709 22.0234C66.9004 21.832 67.1191 21.6797 67.3652 21.5664C67.6152 21.4492 67.8887 21.3906 68.1855 21.3906ZM72.6621 21.3906C73.2402 21.3906 73.7363 21.5098 74.1504 21.748C74.5645 21.9863 74.8828 22.3242 75.1055 22.7617C75.3281 23.1992 75.4395 23.7227 75.4395 24.332V25.0703H71.1094C71.125 25.6992 71.293 26.1836 71.6133 26.5234C71.9375 26.8633 72.3906 27.0332 72.9727 27.0332C73.3867 27.0332 73.7578 26.9941 74.0859 26.916C74.418 26.834 74.7598 26.7148 75.1113 26.5586V27.6777C74.7871 27.8301 74.457 27.9414 74.1211 28.0117C73.7852 28.082 73.3828 28.1172 72.9141 28.1172C72.2773 28.1172 71.7168 27.9941 71.2324 27.748C70.752 27.498 70.375 27.127 70.1016 26.6348C69.832 26.1426 69.6973 25.5312 69.6973 24.8008C69.6973 24.0742 69.8203 23.457 70.0664 22.9492C70.3125 22.4414 70.6582 22.0547 71.1035 21.7891C71.5488 21.5234 72.0684 21.3906 72.6621 21.3906ZM72.6621 22.4277C72.2285 22.4277 71.877 22.5684 71.6074 22.8496C71.3418 23.1309 71.1855 23.543 71.1387 24.0859H74.0918C74.0879 23.7617 74.0332 23.4746 73.9277 23.2246C73.8262 22.9746 73.6699 22.7793 73.459 22.6387C73.252 22.498 72.9863 22.4277 72.6621 22.4277ZM83.3496 22.5625H81.7734V28H80.3965V22.5625H79.3359V21.9004L80.3965 21.4961V21.0449C80.3965 20.4941 80.4824 20.0566 80.6543 19.7324C80.8301 19.4082 81.0801 19.1758 81.4043 19.0352C81.7324 18.8906 82.123 18.8184 82.5762 18.8184C82.873 18.8184 83.1445 18.8438 83.3906 18.8945C83.6367 18.9414 83.8438 18.9961 84.0117 19.0586L83.6543 20.1016C83.5215 20.0586 83.373 20.0195 83.209 19.9844C83.0449 19.9453 82.8691 19.9258 82.6816 19.9258C82.3691 19.9258 82.1387 20.0234 81.9902 20.2188C81.8457 20.4141 81.7734 20.6992 81.7734 21.0742V21.5137H83.3496V22.5625ZM90.1992 24.7422C90.1992 25.2812 90.1289 25.7598 89.9883 26.1777C89.8477 26.5957 89.6426 26.9492 89.373 27.2383C89.1035 27.5234 88.7793 27.7422 88.4004 27.8945C88.0215 28.043 87.5938 28.1172 87.1172 28.1172C86.6719 28.1172 86.2637 28.043 85.8926 27.8945C85.5215 27.7422 85.1992 27.5234 84.9258 27.2383C84.6562 26.9492 84.4473 26.5957 84.2988 26.1777C84.1504 25.7598 84.0762 25.2812 84.0762 24.7422C84.0762 24.0273 84.1992 23.4219 84.4453 22.9258C84.6953 22.4258 85.0508 22.0449 85.5117 21.7832C85.9727 21.5215 86.5215 21.3906 87.1582 21.3906C87.7559 21.3906 88.2832 21.5215 88.7402 21.7832C89.1973 22.0449 89.5547 22.4258 89.8125 22.9258C90.0703 23.4258 90.1992 24.0312 90.1992 24.7422ZM85.4941 24.7422C85.4941 25.2148 85.5508 25.6191 85.6641 25.9551C85.7812 26.291 85.9609 26.5488 86.2031 26.7285C86.4453 26.9043 86.7578 26.9922 87.1406 26.9922C87.5234 26.9922 87.8359 26.9043 88.0781 26.7285C88.3203 26.5488 88.498 26.291 88.6113 25.9551C88.7246 25.6191 88.7812 25.2148 88.7812 24.7422C88.7812 24.2695 88.7246 23.8691 88.6113 23.541C88.498 23.209 88.3203 22.957 88.0781 22.7852C87.8359 22.6094 87.5215 22.5215 87.1348 22.5215C86.5645 22.5215 86.1484 22.7129 85.8867 23.0957C85.625 23.4785 85.4941 24.0273 85.4941 24.7422ZM95.0684 21.3906C95.1777 21.3906 95.2969 21.3965 95.4258 21.4082C95.5547 21.4199 95.666 21.4355 95.7598 21.4551L95.6309 22.7441C95.5488 22.7207 95.4473 22.7031 95.3262 22.6914C95.209 22.6797 95.1035 22.6738 95.0098 22.6738C94.7637 22.6738 94.5293 22.7148 94.3066 22.7969C94.084 22.875 93.8867 22.9961 93.7148 23.1602C93.543 23.3203 93.4082 23.5215 93.3105 23.7637C93.2129 24.0059 93.1641 24.2871 93.1641 24.6074V28H91.7812V21.5137H92.8594L93.0469 22.6562H93.1113C93.2402 22.4258 93.4004 22.2148 93.5918 22.0234C93.7832 21.832 94.002 21.6797 94.248 21.5664C94.498 21.4492 94.7715 21.3906 95.0684 21.3906ZM99.4277 30.8828C99.2246 30.8828 99.0312 30.8672 98.8477 30.8359C98.6641 30.8086 98.5098 30.7754 98.3848 30.7363V29.6348C98.5176 29.6738 98.6465 29.7031 98.7715 29.7227C98.8965 29.7422 99.0391 29.752 99.1992 29.752C99.4531 29.752 99.6621 29.6816 99.8262 29.541C99.9941 29.4004 100.078 29.1328 100.078 28.7383V21.5137H101.455V28.8613C101.455 29.2559 101.385 29.6055 101.244 29.9102C101.107 30.2148 100.889 30.4531 100.588 30.625C100.291 30.7969 99.9043 30.8828 99.4277 30.8828ZM99.9961 19.7852C99.9961 19.5078 100.07 19.3125 100.219 19.1992C100.371 19.0859 100.557 19.0293 100.775 19.0293C100.986 19.0293 101.168 19.0859 101.32 19.1992C101.477 19.3125 101.555 19.5078 101.555 19.7852C101.555 20.0586 101.477 20.2539 101.32 20.3711C101.168 20.4844 100.986 20.541 100.775 20.541C100.557 20.541 100.371 20.4844 100.219 20.3711C100.07 20.2539 99.9961 20.0586 99.9961 19.7852ZM109.172 24.7422C109.172 25.2812 109.102 25.7598 108.961 26.1777C108.82 26.5957 108.615 26.9492 108.346 27.2383C108.076 27.5234 107.752 27.7422 107.373 27.8945C106.994 28.043 106.566 28.1172 106.09 28.1172C105.645 28.1172 105.236 28.043 104.865 27.8945C104.494 27.7422 104.172 27.5234 103.898 27.2383C103.629 26.9492 103.42 26.5957 103.271 26.1777C103.123 25.7598 103.049 25.2812 103.049 24.7422C103.049 24.0273 103.172 23.4219 103.418 22.9258C103.668 22.4258 104.023 22.0449 104.484 21.7832C104.945 21.5215 105.494 21.3906 106.131 21.3906C106.729 21.3906 107.256 21.5215 107.713 21.7832C108.17 22.0449 108.527 22.4258 108.785 22.9258C109.043 23.4258 109.172 24.0312 109.172 24.7422ZM104.467 24.7422C104.467 25.2148 104.523 25.6191 104.637 25.9551C104.754 26.291 104.934 26.5488 105.176 26.7285C105.418 26.9043 105.73 26.9922 106.113 26.9922C106.496 26.9922 106.809 26.9043 107.051 26.7285C107.293 26.5488 107.471 26.291 107.584 25.9551C107.697 25.6191 107.754 25.2148 107.754 24.7422C107.754 24.2695 107.697 23.8691 107.584 23.541C107.471 23.209 107.293 22.957 107.051 22.7852C106.809 22.6094 106.494 22.5215 106.107 22.5215C105.537 22.5215 105.121 22.7129 104.859 23.0957C104.598 23.4785 104.467 24.0273 104.467 24.7422ZM112.131 18.8828V21.0801C112.131 21.334 112.123 21.584 112.107 21.8301C112.096 22.0723 112.084 22.2617 112.072 22.3984H112.131C112.307 22.1172 112.551 21.8809 112.863 21.6895C113.18 21.4941 113.584 21.3965 114.076 21.3965C114.846 21.3965 115.465 21.6797 115.934 22.2461C116.402 22.8086 116.637 23.6426 116.637 24.748C116.637 25.4824 116.529 26.0996 116.314 26.5996C116.1 27.0996 115.797 27.4785 115.406 27.7363C115.02 27.9902 114.564 28.1172 114.041 28.1172C113.549 28.1172 113.15 28.0273 112.846 27.8477C112.545 27.6641 112.309 27.4512 112.137 27.209H112.037L111.785 28H110.754V18.8828H112.131ZM113.713 22.5156C113.322 22.5156 113.012 22.5938 112.781 22.75C112.555 22.9062 112.391 23.1406 112.289 23.4531C112.188 23.7617 112.135 24.1543 112.131 24.6309V24.7539C112.131 25.4766 112.244 26.0293 112.471 26.4121C112.701 26.7949 113.119 26.9863 113.725 26.9863C114.205 26.9863 114.574 26.793 114.832 26.4062C115.09 26.0156 115.219 25.457 115.219 24.7305C115.219 23.9961 115.09 23.4434 114.832 23.0723C114.578 22.7012 114.205 22.5156 113.713 22.5156ZM122.725 21.5137V28H121.348V21.5137H122.725ZM122.045 19.0293C122.256 19.0293 122.438 19.0859 122.59 19.1992C122.746 19.3125 122.824 19.5078 122.824 19.7852C122.824 20.0586 122.746 20.2539 122.59 20.3711C122.438 20.4844 122.256 20.541 122.045 20.541C121.826 20.541 121.641 20.4844 121.488 20.3711C121.34 20.2539 121.266 20.0586 121.266 19.7852C121.266 19.5078 121.34 19.3125 121.488 19.1992C121.641 19.0859 121.826 19.0293 122.045 19.0293ZM128.08 21.3906C128.811 21.3906 129.379 21.5801 129.785 21.959C130.195 22.334 130.4 22.9375 130.4 23.7695V28H129.023V24.0273C129.023 23.5234 128.92 23.1465 128.713 22.8965C128.506 22.6426 128.186 22.5156 127.752 22.5156C127.123 22.5156 126.686 22.709 126.439 23.0957C126.197 23.4824 126.076 24.043 126.076 24.7773V28H124.699V21.5137H125.771L125.965 22.3926H126.041C126.182 22.166 126.355 21.9805 126.562 21.8359C126.773 21.6875 127.008 21.5762 127.266 21.502C127.527 21.4277 127.799 21.3906 128.08 21.3906ZM134.742 27.0039C134.922 27.0039 135.1 26.9883 135.275 26.957C135.451 26.9219 135.611 26.8809 135.756 26.834V27.877C135.604 27.9434 135.406 28 135.164 28.0469C134.922 28.0938 134.67 28.1172 134.408 28.1172C134.041 28.1172 133.711 28.0566 133.418 27.9355C133.125 27.8105 132.893 27.5977 132.721 27.2969C132.549 26.9961 132.463 26.5801 132.463 26.0488V22.5625H131.578V21.9473L132.527 21.4609L132.979 20.0723H133.846V21.5137H135.703V22.5625H133.846V26.0312C133.846 26.3594 133.928 26.6035 134.092 26.7637C134.256 26.9238 134.473 27.0039 134.742 27.0039ZM139.658 21.3906C140.236 21.3906 140.732 21.5098 141.146 21.748C141.561 21.9863 141.879 22.3242 142.102 22.7617C142.324 23.1992 142.436 23.7227 142.436 24.332V25.0703H138.105C138.121 25.6992 138.289 26.1836 138.609 26.5234C138.934 26.8633 139.387 27.0332 139.969 27.0332C140.383 27.0332 140.754 26.9941 141.082 26.916C141.414 26.834 141.756 26.7148 142.107 26.5586V27.6777C141.783 27.8301 141.453 27.9414 141.117 28.0117C140.781 28.082 140.379 28.1172 139.91 28.1172C139.273 28.1172 138.713 27.9941 138.229 27.748C137.748 27.498 137.371 27.127 137.098 26.6348C136.828 26.1426 136.693 25.5312 136.693 24.8008C136.693 24.0742 136.816 23.457 137.062 22.9492C137.309 22.4414 137.654 22.0547 138.1 21.7891C138.545 21.5234 139.064 21.3906 139.658 21.3906ZM139.658 22.4277C139.225 22.4277 138.873 22.5684 138.604 22.8496C138.338 23.1309 138.182 23.543 138.135 24.0859H141.088C141.084 23.7617 141.029 23.4746 140.924 23.2246C140.822 22.9746 140.666 22.7793 140.455 22.6387C140.248 22.498 139.982 22.4277 139.658 22.4277ZM147.275 21.3906C147.385 21.3906 147.504 21.3965 147.633 21.4082C147.762 21.4199 147.873 21.4355 147.967 21.4551L147.838 22.7441C147.756 22.7207 147.654 22.7031 147.533 22.6914C147.416 22.6797 147.311 22.6738 147.217 22.6738C146.971 22.6738 146.736 22.7148 146.514 22.7969C146.291 22.875 146.094 22.9961 145.922 23.1602C145.75 23.3203 145.615 23.5215 145.518 23.7637C145.42 24.0059 145.371 24.2871 145.371 24.6074V28H143.988V21.5137H145.066L145.254 22.6562H145.318C145.447 22.4258 145.607 22.2148 145.799 22.0234C145.99 21.832 146.209 21.6797 146.455 21.5664C146.705 21.4492 146.979 21.3906 147.275 21.3906ZM150.65 28L148.184 21.5137H149.643L150.979 25.3223C151.064 25.5645 151.143 25.8262 151.213 26.1074C151.283 26.3887 151.332 26.625 151.359 26.8164H151.406C151.434 26.6172 151.486 26.3789 151.564 26.1016C151.643 25.8203 151.723 25.5605 151.805 25.3223L153.141 21.5137H154.594L152.127 28H150.65ZM156.955 21.5137V28H155.578V21.5137H156.955ZM156.275 19.0293C156.486 19.0293 156.668 19.0859 156.82 19.1992C156.977 19.3125 157.055 19.5078 157.055 19.7852C157.055 20.0586 156.977 20.2539 156.82 20.3711C156.668 20.4844 156.486 20.541 156.275 20.541C156.057 20.541 155.871 20.4844 155.719 20.3711C155.57 20.2539 155.496 20.0586 155.496 19.7852C155.496 19.5078 155.57 19.3125 155.719 19.1992C155.871 19.0859 156.057 19.0293 156.275 19.0293ZM161.514 21.3906C162.092 21.3906 162.588 21.5098 163.002 21.748C163.416 21.9863 163.734 22.3242 163.957 22.7617C164.18 23.1992 164.291 23.7227 164.291 24.332V25.0703H159.961C159.977 25.6992 160.145 26.1836 160.465 26.5234C160.789 26.8633 161.242 27.0332 161.824 27.0332C162.238 27.0332 162.609 26.9941 162.938 26.916C163.27 26.834 163.611 26.7148 163.963 26.5586V27.6777C163.639 27.8301 163.309 27.9414 162.973 28.0117C162.637 28.082 162.234 28.1172 161.766 28.1172C161.129 28.1172 160.568 27.9941 160.084 27.748C159.604 27.498 159.227 27.127 158.953 26.6348C158.684 26.1426 158.549 25.5312 158.549 24.8008C158.549 24.0742 158.672 23.457 158.918 22.9492C159.164 22.4414 159.51 22.0547 159.955 21.7891C160.4 21.5234 160.92 21.3906 161.514 21.3906ZM161.514 22.4277C161.08 22.4277 160.729 22.5684 160.459 22.8496C160.193 23.1309 160.037 23.543 159.99 24.0859H162.943C162.939 23.7617 162.885 23.4746 162.779 23.2246C162.678 22.9746 162.521 22.7793 162.311 22.6387C162.104 22.498 161.838 22.4277 161.514 22.4277ZM171.146 27.9941L170.326 24.9766C170.287 24.8281 170.24 24.6484 170.186 24.4375C170.131 24.2266 170.076 24.0098 170.021 23.7871C169.967 23.5605 169.916 23.3516 169.869 23.1602C169.826 22.9688 169.793 22.8203 169.77 22.7148H169.723C169.703 22.8203 169.672 22.9688 169.629 23.1602C169.586 23.3516 169.537 23.5605 169.482 23.7871C169.428 24.0137 169.373 24.2344 169.318 24.4492C169.268 24.6641 169.221 24.8477 169.178 25L168.316 27.9941H166.805L164.988 21.5078H166.383L167.227 24.7305C167.281 24.9492 167.334 25.1855 167.385 25.4395C167.439 25.6934 167.486 25.9355 167.525 26.166C167.564 26.3965 167.594 26.5859 167.613 26.7344H167.66C167.676 26.6289 167.697 26.4961 167.725 26.3359C167.752 26.1719 167.783 26.002 167.818 25.8262C167.854 25.6465 167.889 25.4785 167.924 25.3223C167.959 25.1621 167.992 25.0332 168.023 24.9355L169.02 21.5078H170.525L171.48 24.9355C171.523 25.084 171.57 25.2715 171.621 25.498C171.672 25.7207 171.717 25.9453 171.756 26.1719C171.799 26.3945 171.826 26.5801 171.838 26.7285H171.885C171.9 26.5957 171.928 26.416 171.967 26.1895C172.01 25.959 172.059 25.7148 172.113 25.457C172.168 25.1953 172.225 24.9531 172.283 24.7305L173.145 21.5078H174.516L172.688 27.9941H171.146Z" fill="black"/>
<path d="M32.2383 62.1172C31.8125 62.1172 31.4395 62.0859 31.1191 62.0234C30.7988 61.9609 30.502 61.8652 30.2285 61.7363V60.7578C30.4746 60.8828 30.7637 60.998 31.0957 61.1035C31.4277 61.2051 31.8125 61.2559 32.25 61.2559C32.5195 61.2559 32.7773 61.2246 33.0234 61.1621C33.2695 61.0996 33.4883 61.002 33.6797 60.8691C33.875 60.7363 34.0273 60.5664 34.1367 60.3594C34.25 60.1523 34.3066 59.9062 34.3066 59.6211C34.3066 59.3906 34.2559 59.1875 34.1543 59.0117C34.0566 58.832 33.9004 58.6602 33.6855 58.4961C33.4707 58.3281 33.1895 58.1484 32.8418 57.957C32.5449 57.7812 32.2773 57.5977 32.0391 57.4062C31.8047 57.2109 31.6191 56.9844 31.4824 56.7266C31.3457 56.4648 31.2773 56.1484 31.2773 55.7773C31.2773 55.3789 31.3516 55.0273 31.5 54.7227C31.6484 54.4141 31.8516 54.1562 32.1094 53.9492C32.3711 53.7383 32.6699 53.5801 33.0059 53.4746C33.3457 53.3652 33.7051 53.3105 34.084 53.3105C34.5332 53.3105 34.9238 53.3555 35.2559 53.4453C35.5879 53.5352 35.9082 53.6562 36.2168 53.8086L35.8359 54.6523C35.6172 54.5352 35.3535 54.4297 35.0449 54.3359C34.7402 54.2383 34.4199 54.1895 34.084 54.1895C33.8379 54.1895 33.6074 54.2227 33.3926 54.2891C33.1816 54.3516 32.9961 54.4473 32.8359 54.5762C32.6758 54.7051 32.5508 54.8652 32.4609 55.0566C32.3711 55.2441 32.3262 55.4629 32.3262 55.7129C32.3262 55.9668 32.373 56.1777 32.4668 56.3457C32.5645 56.5137 32.7051 56.666 32.8887 56.8027C33.0762 56.9395 33.3066 57.0879 33.5801 57.248C33.9277 57.4512 34.2344 57.6543 34.5 57.8574C34.7656 58.0566 34.9727 58.2891 35.1211 58.5547C35.2695 58.8164 35.3438 59.1465 35.3438 59.5449C35.3438 59.9746 35.2676 60.3516 35.1152 60.6758C34.9668 60.9961 34.7539 61.2637 34.4766 61.4785C34.1992 61.6895 33.8711 61.8496 33.4922 61.959C33.1133 62.0645 32.6953 62.1172 32.2383 62.1172ZM39.0059 62.0938C38.5137 62.0938 38.0898 61.9941 37.7344 61.7949C37.3789 61.5918 37.1055 61.3066 36.9141 60.9395C36.7266 60.5684 36.6328 60.1309 36.6328 59.627C36.6328 59.2207 36.6777 58.8203 36.7676 58.4258C36.8574 58.0273 36.9902 57.6523 37.166 57.3008C37.3418 56.9453 37.5586 56.6328 37.8164 56.3633C38.0781 56.0898 38.3789 55.877 38.7188 55.7246C39.0586 55.5684 39.4375 55.4902 39.8555 55.4902C40.3555 55.4902 40.7812 55.5918 41.1328 55.7949C41.4883 55.9941 41.7598 56.2793 41.9473 56.6504C42.1387 57.0215 42.2344 57.4609 42.2344 57.9688C42.2344 58.3672 42.1895 58.7637 42.0996 59.1582C42.0137 59.5527 41.8828 59.9277 41.707 60.2832C41.5352 60.6348 41.3184 60.9473 41.0566 61.2207C40.7988 61.4902 40.498 61.7031 40.1543 61.8594C39.8145 62.0156 39.4316 62.0938 39.0059 62.0938ZM39.0645 61.2852C39.3066 61.2852 39.5371 61.2344 39.7559 61.1328C39.9746 61.0312 40.1738 60.8848 40.3535 60.6934C40.5332 60.498 40.6875 60.2617 40.8164 59.9844C40.9492 59.7031 41.0508 59.3848 41.1211 59.0293C41.1953 58.6738 41.2324 58.2832 41.2324 57.8574C41.2324 57.6035 41.1875 57.3574 41.0977 57.1191C41.0078 56.8809 40.8633 56.6855 40.6641 56.5332C40.4648 56.377 40.1992 56.2988 39.8672 56.2988C39.5938 56.2988 39.3398 56.3555 39.1055 56.4688C38.875 56.582 38.668 56.7422 38.4844 56.9492C38.3008 57.1562 38.1445 57.4004 38.0156 57.6816C37.8906 57.9629 37.793 58.2715 37.7227 58.6074C37.6562 58.9434 37.623 59.2969 37.623 59.668C37.623 60.1797 37.748 60.5781 37.998 60.8633C38.248 61.1445 38.6035 61.2852 39.0645 61.2852ZM43.1484 62L44.5137 55.5781H45.3105L45.1582 56.8203H45.2168C45.3574 56.6172 45.5273 56.4121 45.7266 56.2051C45.9258 55.9941 46.1562 55.8184 46.418 55.6777C46.6836 55.5332 46.9844 55.4609 47.3203 55.4609C47.7734 55.4609 48.1172 55.5918 48.3516 55.8535C48.5859 56.1152 48.7227 56.4727 48.7617 56.9258H48.8027C48.959 56.6875 49.1465 56.457 49.3652 56.2344C49.584 56.0078 49.832 55.8223 50.1094 55.6777C50.3906 55.5332 50.6992 55.4609 51.0352 55.4609C51.5312 55.4609 51.9141 55.5957 52.1836 55.8652C52.4531 56.1348 52.5879 56.5254 52.5879 57.0371C52.5879 57.2207 52.5762 57.3945 52.5527 57.5586C52.5332 57.7227 52.502 57.8906 52.459 58.0625L51.627 62H50.6426L51.5098 57.957C51.5449 57.7812 51.5703 57.6289 51.5859 57.5C51.6055 57.3711 51.6152 57.248 51.6152 57.1309C51.6152 56.8691 51.5449 56.6621 51.4043 56.5098C51.2637 56.3574 51.0469 56.2812 50.7539 56.2812C50.5469 56.2812 50.332 56.3379 50.1094 56.4512C49.8867 56.5645 49.6699 56.7363 49.459 56.9668C49.252 57.1934 49.0645 57.4805 48.8965 57.8281C48.7285 58.1758 48.5938 58.584 48.4922 59.0527L47.8652 62H46.8926L47.748 57.9746C47.7832 57.7949 47.8086 57.6406 47.8242 57.5117C47.8438 57.3789 47.8535 57.2656 47.8535 57.1719C47.8535 56.8945 47.7891 56.6777 47.6602 56.5215C47.5312 56.3613 47.3203 56.2812 47.0273 56.2812C46.8203 56.2812 46.6035 56.3359 46.377 56.4453C46.1543 56.5547 45.9375 56.7266 45.7266 56.9609C45.5156 57.1953 45.3223 57.4941 45.1465 57.8574C44.9707 58.2207 44.8301 58.6582 44.7246 59.1699L44.127 62H43.1484ZM56.1855 62.1172C55.7051 62.1172 55.291 62.0215 54.9434 61.8301C54.5957 61.6348 54.3281 61.3574 54.1406 60.998C53.957 60.6348 53.8652 60.2012 53.8652 59.6973C53.8652 59.1777 53.9395 58.668 54.0879 58.168C54.2402 57.6641 54.457 57.209 54.7383 56.8027C55.0195 56.3926 55.3574 56.0664 55.752 55.8242C56.1504 55.582 56.5957 55.4609 57.0879 55.4609C57.6777 55.4609 58.125 55.5938 58.4297 55.8594C58.7344 56.1211 58.8867 56.4824 58.8867 56.9434C58.8867 57.2676 58.8105 57.5664 58.6582 57.8398C58.5098 58.1133 58.2793 58.3516 57.9668 58.5547C57.6582 58.7539 57.2656 58.9102 56.7891 59.0234C56.3164 59.1328 55.7559 59.1875 55.1074 59.1875H54.8848C54.877 59.2578 54.8691 59.3359 54.8613 59.4219C54.8574 59.5078 54.8555 59.5879 54.8555 59.6621C54.8555 60.1777 54.9805 60.582 55.2305 60.875C55.4805 61.1641 55.8555 61.3086 56.3555 61.3086C56.6641 61.3086 56.9551 61.2656 57.2285 61.1797C57.5059 61.0898 57.7949 60.9727 58.0957 60.8281V61.666C57.8066 61.7988 57.5156 61.9082 57.2227 61.9941C56.9297 62.0762 56.584 62.1172 56.1855 62.1172ZM55.0254 58.3906H55.166C55.666 58.3906 56.125 58.3477 56.543 58.2617C56.9609 58.1719 57.2969 58.0273 57.5508 57.8281C57.8047 57.625 57.9316 57.3555 57.9316 57.0195C57.9316 56.8008 57.8574 56.6211 57.709 56.4805C57.5605 56.3398 57.334 56.2695 57.0293 56.2695C56.7598 56.2695 56.4941 56.3535 56.2324 56.5215C55.9707 56.6855 55.7324 56.9258 55.5176 57.2422C55.3066 57.5586 55.1426 57.9414 55.0254 58.3906ZM62.1094 64.8711L64.0723 55.5781H64.8691L64.7109 56.8262H64.752C64.9355 56.584 65.1367 56.3613 65.3555 56.1582C65.5781 55.9512 65.8203 55.7852 66.082 55.6602C66.3477 55.5352 66.6367 55.4727 66.9492 55.4727C67.3008 55.4727 67.6074 55.5566 67.8691 55.7246C68.1309 55.8887 68.334 56.1348 68.4785 56.4629C68.627 56.7871 68.7012 57.1914 68.7012 57.6758C68.7012 58.1367 68.6543 58.5859 68.5605 59.0234C68.4707 59.457 68.3379 59.8613 68.1621 60.2363C67.9863 60.6074 67.7695 60.9355 67.5117 61.2207C67.2578 61.502 66.9668 61.7227 66.6387 61.8828C66.3105 62.0391 65.9492 62.1172 65.5547 62.1172C65.2539 62.1172 64.9941 62.0645 64.7754 61.959C64.5605 61.8496 64.3789 61.707 64.2305 61.5312C64.0859 61.3555 63.9707 61.166 63.8848 60.9629H63.832C63.8164 61.1074 63.791 61.2969 63.7559 61.5312C63.7246 61.7617 63.6914 61.9551 63.6562 62.1113L63.0703 64.8711H62.1094ZM65.4844 61.3086C65.7578 61.3086 66.0078 61.2402 66.2344 61.1035C66.4648 60.9668 66.6699 60.7812 66.8496 60.5469C67.0332 60.3086 67.1875 60.0332 67.3125 59.7207C67.4414 59.4082 67.5391 59.0762 67.6055 58.7246C67.6719 58.373 67.7051 58.0156 67.7051 57.6523C67.7051 57.1992 67.6133 56.8574 67.4297 56.627C67.25 56.3965 66.9805 56.2812 66.6211 56.2812C66.4336 56.2812 66.2441 56.3281 66.0527 56.4219C65.8613 56.5117 65.6758 56.6406 65.4961 56.8086C65.3164 56.9727 65.1484 57.168 64.9922 57.3945C64.8359 57.6211 64.6992 57.8711 64.582 58.1445C64.4688 58.418 64.3789 58.707 64.3125 59.0117C64.2461 59.3164 64.2129 59.6289 64.2129 59.9492C64.2129 60.3594 64.3164 60.6895 64.5234 60.9395C64.7344 61.1855 65.0547 61.3086 65.4844 61.3086ZM69.6445 62L71.0098 55.5781H71.8066L71.6543 56.8203H71.7129C71.877 56.5977 72.0527 56.3828 72.2402 56.1758C72.4277 55.9648 72.6406 55.793 72.8789 55.6602C73.1211 55.5273 73.3984 55.4609 73.7109 55.4609C73.8281 55.4609 73.9473 55.4688 74.0684 55.4844C74.1895 55.4961 74.3027 55.5176 74.4082 55.5488L74.1973 56.4219C74.0918 56.3984 73.9883 56.3809 73.8867 56.3691C73.7891 56.3574 73.6875 56.3516 73.582 56.3516C73.2852 56.3516 73.0098 56.4297 72.7559 56.5859C72.502 56.7383 72.2734 56.9434 72.0703 57.2012C71.8711 57.459 71.7012 57.7461 71.5605 58.0625C71.4238 58.3789 71.3203 58.7012 71.25 59.0293L70.623 62H69.6445ZM76.9629 62.1172C76.4824 62.1172 76.0684 62.0215 75.7207 61.8301C75.373 61.6348 75.1055 61.3574 74.918 60.998C74.7344 60.6348 74.6426 60.2012 74.6426 59.6973C74.6426 59.1777 74.7168 58.668 74.8652 58.168C75.0176 57.6641 75.2344 57.209 75.5156 56.8027C75.7969 56.3926 76.1348 56.0664 76.5293 55.8242C76.9277 55.582 77.373 55.4609 77.8652 55.4609C78.4551 55.4609 78.9023 55.5938 79.207 55.8594C79.5117 56.1211 79.6641 56.4824 79.6641 56.9434C79.6641 57.2676 79.5879 57.5664 79.4355 57.8398C79.2871 58.1133 79.0566 58.3516 78.7441 58.5547C78.4355 58.7539 78.043 58.9102 77.5664 59.0234C77.0938 59.1328 76.5332 59.1875 75.8848 59.1875H75.6621C75.6543 59.2578 75.6465 59.3359 75.6387 59.4219C75.6348 59.5078 75.6328 59.5879 75.6328 59.6621C75.6328 60.1777 75.7578 60.582 76.0078 60.875C76.2578 61.1641 76.6328 61.3086 77.1328 61.3086C77.4414 61.3086 77.7324 61.2656 78.0059 61.1797C78.2832 61.0898 78.5723 60.9727 78.873 60.8281V61.666C78.584 61.7988 78.293 61.9082 78 61.9941C77.707 62.0762 77.3613 62.1172 76.9629 62.1172ZM75.8027 58.3906H75.9434C76.4434 58.3906 76.9023 58.3477 77.3203 58.2617C77.7383 58.1719 78.0742 58.0273 78.3281 57.8281C78.582 57.625 78.709 57.3555 78.709 57.0195C78.709 56.8008 78.6348 56.6211 78.4863 56.4805C78.3379 56.3398 78.1113 56.2695 77.8066 56.2695C77.5371 56.2695 77.2715 56.3535 77.0098 56.5215C76.748 56.6855 76.5098 56.9258 76.2949 57.2422C76.084 57.5586 75.9199 57.9414 75.8027 58.3906ZM79.7695 64.8711L81.7324 55.5781H82.5293L82.3711 56.8262H82.4121C82.5957 56.584 82.7969 56.3613 83.0156 56.1582C83.2383 55.9512 83.4805 55.7852 83.7422 55.6602C84.0078 55.5352 84.2969 55.4727 84.6094 55.4727C84.9609 55.4727 85.2676 55.5566 85.5293 55.7246C85.791 55.8887 85.9941 56.1348 86.1387 56.4629C86.2871 56.7871 86.3613 57.1914 86.3613 57.6758C86.3613 58.1367 86.3145 58.5859 86.2207 59.0234C86.1309 59.457 85.998 59.8613 85.8223 60.2363C85.6465 60.6074 85.4297 60.9355 85.1719 61.2207C84.918 61.502 84.627 61.7227 84.2988 61.8828C83.9707 62.0391 83.6094 62.1172 83.2148 62.1172C82.9141 62.1172 82.6543 62.0645 82.4355 61.959C82.2207 61.8496 82.0391 61.707 81.8906 61.5312C81.7461 61.3555 81.6309 61.166 81.5449 60.9629H81.4922C81.4766 61.1074 81.4512 61.2969 81.416 61.5312C81.3848 61.7617 81.3516 61.9551 81.3164 62.1113L80.7305 64.8711H79.7695ZM83.1445 61.3086C83.418 61.3086 83.668 61.2402 83.8945 61.1035C84.125 60.9668 84.3301 60.7812 84.5098 60.5469C84.6934 60.3086 84.8477 60.0332 84.9727 59.7207C85.1016 59.4082 85.1992 59.0762 85.2656 58.7246C85.332 58.373 85.3652 58.0156 85.3652 57.6523C85.3652 57.1992 85.2734 56.8574 85.0898 56.627C84.9102 56.3965 84.6406 56.2812 84.2812 56.2812C84.0938 56.2812 83.9043 56.3281 83.7129 56.4219C83.5215 56.5117 83.3359 56.6406 83.1562 56.8086C82.9766 56.9727 82.8086 57.168 82.6523 57.3945C82.4961 57.6211 82.3594 57.8711 82.2422 58.1445C82.1289 58.418 82.0391 58.707 81.9727 59.0117C81.9062 59.3164 81.873 59.6289 81.873 59.9492C81.873 60.3594 81.9766 60.6895 82.1836 60.9395C82.3945 61.1855 82.7148 61.3086 83.1445 61.3086ZM89.2852 62.1172C88.9375 62.1172 88.6328 62.0332 88.3711 61.8652C88.1094 61.6973 87.9062 61.4492 87.7617 61.1211C87.6172 60.793 87.5449 60.3926 87.5449 59.9199C87.5449 59.4473 87.5938 58.9922 87.6914 58.5547C87.793 58.1172 87.9355 57.7109 88.1191 57.3359C88.3027 56.9609 88.5234 56.6328 88.7812 56.3516C89.043 56.0703 89.3359 55.8516 89.6602 55.6953C89.9844 55.5391 90.334 55.4609 90.709 55.4609C90.998 55.4609 91.248 55.5156 91.459 55.625C91.6738 55.7344 91.8516 55.8789 91.9922 56.0586C92.1367 56.2344 92.25 56.4219 92.332 56.6211H92.3906L92.7656 55.5781H93.5098L92.1504 62H91.3711L91.5469 60.7578H91.5C91.3242 60.9922 91.123 61.2129 90.8965 61.4199C90.6699 61.627 90.4219 61.7949 90.1523 61.9238C89.8828 62.0527 89.5938 62.1172 89.2852 62.1172ZM89.6016 61.3086C89.9023 61.3086 90.1992 61.1992 90.4922 60.9805C90.7891 60.7578 91.0547 60.459 91.2891 60.084C91.5273 59.7051 91.709 59.2793 91.834 58.8066C91.8965 58.5762 91.9375 58.3652 91.957 58.1738C91.9805 57.9785 91.9922 57.7969 91.9922 57.6289C91.9922 57.2266 91.8848 56.9023 91.6699 56.6562C91.459 56.4062 91.1699 56.2812 90.8027 56.2812C90.541 56.2812 90.2949 56.3477 90.0645 56.4805C89.834 56.6094 89.625 56.791 89.4375 57.0254C89.2539 57.2559 89.0957 57.5254 88.9629 57.834C88.8301 58.1387 88.7266 58.4707 88.6523 58.8301C88.582 59.1895 88.5469 59.5586 88.5469 59.9375C88.5469 60.3867 88.6387 60.7285 88.8223 60.9629C89.0059 61.1934 89.2656 61.3086 89.6016 61.3086ZM94.0898 62L95.4551 55.5781H96.252L96.0996 56.8203H96.1582C96.3223 56.5977 96.498 56.3828 96.6855 56.1758C96.873 55.9648 97.0859 55.793 97.3242 55.6602C97.5664 55.5273 97.8438 55.4609 98.1562 55.4609C98.2734 55.4609 98.3926 55.4688 98.5137 55.4844C98.6348 55.4961 98.748 55.5176 98.8535 55.5488L98.6426 56.4219C98.5371 56.3984 98.4336 56.3809 98.332 56.3691C98.2344 56.3574 98.1328 56.3516 98.0273 56.3516C97.7305 56.3516 97.4551 56.4297 97.2012 56.5859C96.9473 56.7383 96.7188 56.9434 96.5156 57.2012C96.3164 57.459 96.1465 57.7461 96.0059 58.0625C95.8691 58.3789 95.7656 58.7012 95.6953 59.0293L95.0684 62H94.0898ZM100.816 62.1172C100.469 62.1172 100.164 62.0332 99.9023 61.8652C99.6406 61.6973 99.4375 61.4492 99.293 61.1211C99.1484 60.793 99.0762 60.3926 99.0762 59.9199C99.0762 59.4473 99.125 58.9922 99.2227 58.5547C99.3242 58.1172 99.4668 57.7109 99.6504 57.3359C99.834 56.9609 100.055 56.6328 100.312 56.3516C100.574 56.0703 100.867 55.8516 101.191 55.6953C101.516 55.5391 101.865 55.4609 102.24 55.4609C102.529 55.4609 102.779 55.5156 102.99 55.625C103.205 55.7344 103.383 55.8789 103.523 56.0586C103.668 56.2344 103.781 56.4219 103.863 56.6211H103.922L104.297 55.5781H105.041L103.682 62H102.902L103.078 60.7578H103.031C102.855 60.9922 102.654 61.2129 102.428 61.4199C102.201 61.627 101.953 61.7949 101.684 61.9238C101.414 62.0527 101.125 62.1172 100.816 62.1172ZM101.133 61.3086C101.434 61.3086 101.73 61.1992 102.023 60.9805C102.32 60.7578 102.586 60.459 102.82 60.084C103.059 59.7051 103.24 59.2793 103.365 58.8066C103.428 58.5762 103.469 58.3652 103.488 58.1738C103.512 57.9785 103.523 57.7969 103.523 57.6289C103.523 57.2266 103.416 56.9023 103.201 56.6562C102.99 56.4062 102.701 56.2812 102.334 56.2812C102.072 56.2812 101.826 56.3477 101.596 56.4805C101.365 56.6094 101.156 56.791 100.969 57.0254C100.785 57.2559 100.627 57.5254 100.494 57.834C100.361 58.1387 100.258 58.4707 100.184 58.8301C100.113 59.1895 100.078 59.5586 100.078 59.9375C100.078 60.3867 100.17 60.7285 100.354 60.9629C100.537 61.1934 100.797 61.3086 101.133 61.3086ZM107.449 62.1172C107.023 62.1172 106.668 62.0156 106.383 61.8125C106.102 61.6055 105.961 61.252 105.961 60.752C105.961 60.6309 105.969 60.5 105.984 60.3594C106 60.2148 106.025 60.0664 106.061 59.9141L106.816 56.3223H105.826L105.92 55.8711L106.986 55.4609L107.689 54.1016H108.27L107.947 55.5781H109.6L109.447 56.3223H107.801L107.039 59.9258C107.012 60.0352 106.986 60.1523 106.963 60.2773C106.943 60.4023 106.934 60.5215 106.934 60.6348C106.934 60.8301 106.984 60.9941 107.086 61.127C107.188 61.2559 107.357 61.3203 107.596 61.3203C107.744 61.3203 107.885 61.3066 108.018 61.2793C108.154 61.252 108.299 61.2129 108.451 61.1621V61.9121C108.354 61.959 108.205 62.0039 108.006 62.0469C107.811 62.0938 107.625 62.1172 107.449 62.1172ZM109.582 62L110.947 55.5781H111.926L110.561 62H109.582ZM111.768 54.4531C111.611 54.4531 111.48 54.4082 111.375 54.3184C111.273 54.2246 111.223 54.0938 111.223 53.9258C111.223 53.7969 111.248 53.6758 111.299 53.5625C111.354 53.4492 111.43 53.3594 111.527 53.293C111.629 53.2227 111.752 53.1875 111.896 53.1875C112.068 53.1875 112.197 53.2324 112.283 53.3223C112.369 53.4121 112.412 53.5371 112.412 53.6973C112.412 53.9277 112.346 54.1113 112.213 54.248C112.08 54.3848 111.932 54.4531 111.768 54.4531ZM115.236 62.0938C114.744 62.0938 114.32 61.9941 113.965 61.7949C113.609 61.5918 113.336 61.3066 113.145 60.9395C112.957 60.5684 112.863 60.1309 112.863 59.627C112.863 59.2207 112.908 58.8203 112.998 58.4258C113.088 58.0273 113.221 57.6523 113.396 57.3008C113.572 56.9453 113.789 56.6328 114.047 56.3633C114.309 56.0898 114.609 55.877 114.949 55.7246C115.289 55.5684 115.668 55.4902 116.086 55.4902C116.586 55.4902 117.012 55.5918 117.363 55.7949C117.719 55.9941 117.99 56.2793 118.178 56.6504C118.369 57.0215 118.465 57.4609 118.465 57.9688C118.465 58.3672 118.42 58.7637 118.33 59.1582C118.244 59.5527 118.113 59.9277 117.938 60.2832C117.766 60.6348 117.549 60.9473 117.287 61.2207C117.029 61.4902 116.729 61.7031 116.385 61.8594C116.045 62.0156 115.662 62.0938 115.236 62.0938ZM115.295 61.2852C115.537 61.2852 115.768 61.2344 115.986 61.1328C116.205 61.0312 116.404 60.8848 116.584 60.6934C116.764 60.498 116.918 60.2617 117.047 59.9844C117.18 59.7031 117.281 59.3848 117.352 59.0293C117.426 58.6738 117.463 58.2832 117.463 57.8574C117.463 57.6035 117.418 57.3574 117.328 57.1191C117.238 56.8809 117.094 56.6855 116.895 56.5332C116.695 56.377 116.43 56.2988 116.098 56.2988C115.824 56.2988 115.57 56.3555 115.336 56.4688C115.105 56.582 114.898 56.7422 114.715 56.9492C114.531 57.1562 114.375 57.4004 114.246 57.6816C114.121 57.9629 114.023 58.2715 113.953 58.6074C113.887 58.9434 113.854 59.2969 113.854 59.668C113.854 60.1797 113.979 60.5781 114.229 60.8633C114.479 61.1445 114.834 61.2852 115.295 61.2852ZM119.338 62L120.715 55.5488H121.576L121.424 56.7852H121.436C121.584 56.582 121.762 56.377 121.969 56.1699C122.18 55.959 122.424 55.7832 122.701 55.6426C122.982 55.498 123.301 55.4258 123.656 55.4258C124 55.4258 124.295 55.4902 124.541 55.6191C124.787 55.7441 124.977 55.9277 125.109 56.1699C125.242 56.4082 125.309 56.6973 125.309 57.0371C125.309 57.2168 125.295 57.3984 125.268 57.582C125.24 57.7656 125.211 57.9297 125.18 58.0742L124.324 62H123.287L124.154 57.9453C124.189 57.7695 124.217 57.6191 124.236 57.4941C124.26 57.3691 124.271 57.252 124.271 57.1426C124.271 56.8691 124.197 56.6621 124.049 56.5215C123.9 56.3809 123.682 56.3105 123.393 56.3105C123.107 56.3105 122.807 56.4082 122.49 56.6035C122.174 56.7988 121.881 57.1074 121.611 57.5293C121.342 57.9473 121.133 58.4941 120.984 59.1699L120.381 62H119.338ZM130.939 62.1172C130.549 62.1172 130.205 62.0781 129.908 62C129.615 61.9219 129.359 61.8242 129.141 61.707V60.8047C129.348 60.9297 129.609 61.0469 129.926 61.1562C130.246 61.2656 130.574 61.3203 130.91 61.3203C131.242 61.3203 131.518 61.2754 131.736 61.1855C131.959 61.0957 132.125 60.9727 132.234 60.8164C132.348 60.6562 132.404 60.4707 132.404 60.2598C132.404 60.0918 132.367 59.9473 132.293 59.8262C132.223 59.7012 132.105 59.5801 131.941 59.4629C131.781 59.3457 131.566 59.2109 131.297 59.0586C130.996 58.8906 130.742 58.7207 130.535 58.5488C130.328 58.377 130.17 58.1895 130.061 57.9863C129.955 57.7793 129.902 57.5391 129.902 57.2656C129.902 56.8984 129.992 56.5801 130.172 56.3105C130.352 56.041 130.604 55.832 130.928 55.6836C131.256 55.5352 131.639 55.4609 132.076 55.4609C132.463 55.4609 132.82 55.5059 133.148 55.5957C133.477 55.6816 133.76 55.7812 133.998 55.8945L133.682 56.6738C133.479 56.5762 133.246 56.4863 132.984 56.4043C132.723 56.3223 132.42 56.2812 132.076 56.2812C131.709 56.2812 131.416 56.3652 131.197 56.5332C130.982 56.7012 130.875 56.9277 130.875 57.2129C130.875 57.3613 130.906 57.4941 130.969 57.6113C131.035 57.7285 131.148 57.8457 131.309 57.9629C131.469 58.0762 131.688 58.209 131.965 58.3613C132.234 58.5176 132.477 58.6777 132.691 58.8418C132.91 59.002 133.082 59.1875 133.207 59.3984C133.336 59.6055 133.4 59.8613 133.4 60.166C133.4 60.584 133.301 60.9395 133.102 61.2324C132.902 61.5215 132.617 61.7422 132.246 61.8945C131.879 62.043 131.443 62.1172 130.939 62.1172ZM136.418 62.1172C135.992 62.1172 135.637 62.0156 135.352 61.8125C135.07 61.6055 134.93 61.252 134.93 60.752C134.93 60.6309 134.938 60.5 134.953 60.3594C134.969 60.2148 134.994 60.0664 135.029 59.9141L135.785 56.3223H134.795L134.889 55.8711L135.955 55.4609L136.658 54.1016H137.238L136.916 55.5781H138.568L138.416 56.3223H136.77L136.008 59.9258C135.98 60.0352 135.955 60.1523 135.932 60.2773C135.912 60.4023 135.902 60.5215 135.902 60.6348C135.902 60.8301 135.953 60.9941 136.055 61.127C136.156 61.2559 136.326 61.3203 136.564 61.3203C136.713 61.3203 136.854 61.3066 136.986 61.2793C137.123 61.252 137.268 61.2129 137.42 61.1621V61.9121C137.322 61.959 137.174 62.0039 136.975 62.0469C136.779 62.0938 136.594 62.1172 136.418 62.1172ZM141.123 62.1172C140.643 62.1172 140.229 62.0215 139.881 61.8301C139.533 61.6348 139.266 61.3574 139.078 60.998C138.895 60.6348 138.803 60.2012 138.803 59.6973C138.803 59.1777 138.877 58.668 139.025 58.168C139.178 57.6641 139.395 57.209 139.676 56.8027C139.957 56.3926 140.295 56.0664 140.689 55.8242C141.088 55.582 141.533 55.4609 142.025 55.4609C142.615 55.4609 143.062 55.5938 143.367 55.8594C143.672 56.1211 143.824 56.4824 143.824 56.9434C143.824 57.2676 143.748 57.5664 143.596 57.8398C143.447 58.1133 143.217 58.3516 142.904 58.5547C142.596 58.7539 142.203 58.9102 141.727 59.0234C141.254 59.1328 140.693 59.1875 140.045 59.1875H139.822C139.814 59.2578 139.807 59.3359 139.799 59.4219C139.795 59.5078 139.793 59.5879 139.793 59.6621C139.793 60.1777 139.918 60.582 140.168 60.875C140.418 61.1641 140.793 61.3086 141.293 61.3086C141.602 61.3086 141.893 61.2656 142.166 61.1797C142.443 61.0898 142.732 60.9727 143.033 60.8281V61.666C142.744 61.7988 142.453 61.9082 142.16 61.9941C141.867 62.0762 141.521 62.1172 141.123 62.1172ZM139.963 58.3906H140.104C140.604 58.3906 141.062 58.3477 141.48 58.2617C141.898 58.1719 142.234 58.0273 142.488 57.8281C142.742 57.625 142.869 57.3555 142.869 57.0195C142.869 56.8008 142.795 56.6211 142.646 56.4805C142.498 56.3398 142.271 56.2695 141.967 56.2695C141.697 56.2695 141.432 56.3535 141.17 56.5215C140.908 56.6855 140.67 56.9258 140.455 57.2422C140.244 57.5586 140.08 57.9414 139.963 58.3906ZM143.93 64.8711L145.893 55.5781H146.689L146.531 56.8262H146.572C146.756 56.584 146.957 56.3613 147.176 56.1582C147.398 55.9512 147.641 55.7852 147.902 55.6602C148.168 55.5352 148.457 55.4727 148.77 55.4727C149.121 55.4727 149.428 55.5566 149.689 55.7246C149.951 55.8887 150.154 56.1348 150.299 56.4629C150.447 56.7871 150.521 57.1914 150.521 57.6758C150.521 58.1367 150.475 58.5859 150.381 59.0234C150.291 59.457 150.158 59.8613 149.982 60.2363C149.807 60.6074 149.59 60.9355 149.332 61.2207C149.078 61.502 148.787 61.7227 148.459 61.8828C148.131 62.0391 147.77 62.1172 147.375 62.1172C147.074 62.1172 146.814 62.0645 146.596 61.959C146.381 61.8496 146.199 61.707 146.051 61.5312C145.906 61.3555 145.791 61.166 145.705 60.9629H145.652C145.637 61.1074 145.611 61.2969 145.576 61.5312C145.545 61.7617 145.512 61.9551 145.477 62.1113L144.891 64.8711H143.93ZM147.305 61.3086C147.578 61.3086 147.828 61.2402 148.055 61.1035C148.285 60.9668 148.49 60.7812 148.67 60.5469C148.854 60.3086 149.008 60.0332 149.133 59.7207C149.262 59.4082 149.359 59.0762 149.426 58.7246C149.492 58.373 149.525 58.0156 149.525 57.6523C149.525 57.1992 149.434 56.8574 149.25 56.627C149.07 56.3965 148.801 56.2812 148.441 56.2812C148.254 56.2812 148.064 56.3281 147.873 56.4219C147.682 56.5117 147.496 56.6406 147.316 56.8086C147.137 56.9727 146.969 57.168 146.812 57.3945C146.656 57.6211 146.52 57.8711 146.402 58.1445C146.289 58.418 146.199 58.707 146.133 59.0117C146.066 59.3164 146.033 59.6289 146.033 59.9492C146.033 60.3594 146.137 60.6895 146.344 60.9395C146.555 61.1855 146.875 61.3086 147.305 61.3086ZM152.994 62.1172C152.604 62.1172 152.26 62.0781 151.963 62C151.67 61.9219 151.414 61.8242 151.195 61.707V60.8047C151.402 60.9297 151.664 61.0469 151.98 61.1562C152.301 61.2656 152.629 61.3203 152.965 61.3203C153.297 61.3203 153.572 61.2754 153.791 61.1855C154.014 61.0957 154.18 60.9727 154.289 60.8164C154.402 60.6562 154.459 60.4707 154.459 60.2598C154.459 60.0918 154.422 59.9473 154.348 59.8262C154.277 59.7012 154.16 59.5801 153.996 59.4629C153.836 59.3457 153.621 59.2109 153.352 59.0586C153.051 58.8906 152.797 58.7207 152.59 58.5488C152.383 58.377 152.225 58.1895 152.115 57.9863C152.01 57.7793 151.957 57.5391 151.957 57.2656C151.957 56.8984 152.047 56.5801 152.227 56.3105C152.406 56.041 152.658 55.832 152.982 55.6836C153.311 55.5352 153.693 55.4609 154.131 55.4609C154.518 55.4609 154.875 55.5059 155.203 55.5957C155.531 55.6816 155.814 55.7812 156.053 55.8945L155.736 56.6738C155.533 56.5762 155.301 56.4863 155.039 56.4043C154.777 56.3223 154.475 56.2812 154.131 56.2812C153.764 56.2812 153.471 56.3652 153.252 56.5332C153.037 56.7012 152.93 56.9277 152.93 57.2129C152.93 57.3613 152.961 57.4941 153.023 57.6113C153.09 57.7285 153.203 57.8457 153.363 57.9629C153.523 58.0762 153.742 58.209 154.02 58.3613C154.289 58.5176 154.531 58.6777 154.746 58.8418C154.965 59.002 155.137 59.1875 155.262 59.3984C155.391 59.6055 155.455 59.8613 155.455 60.166C155.455 60.584 155.355 60.9395 155.156 61.2324C154.957 61.5215 154.672 61.7422 154.301 61.8945C153.934 62.043 153.498 62.1172 152.994 62.1172ZM158.121 56.9492C157.941 56.9492 157.799 56.8984 157.693 56.7969C157.592 56.6953 157.541 56.5547 157.541 56.375C157.541 56.2031 157.57 56.0469 157.629 55.9062C157.691 55.7617 157.785 55.6465 157.91 55.5605C158.039 55.4707 158.201 55.4258 158.396 55.4258C158.564 55.4258 158.699 55.4746 158.801 55.5723C158.902 55.6699 158.953 55.8184 158.953 56.0176C158.953 56.2559 158.885 56.4707 158.748 56.6621C158.611 56.8535 158.402 56.9492 158.121 56.9492ZM157.143 62.1641C156.959 62.1641 156.816 62.1113 156.715 62.0059C156.613 61.9043 156.562 61.7598 156.562 61.5723C156.562 61.3262 156.631 61.1094 156.768 60.9219C156.908 60.7305 157.127 60.6348 157.424 60.6348C157.588 60.6348 157.721 60.6855 157.822 60.7871C157.924 60.8887 157.975 61.0371 157.975 61.2324C157.975 61.4629 157.906 61.6758 157.77 61.8711C157.633 62.0664 157.424 62.1641 157.143 62.1641Z" fill="black"/>
<path d="M46.4863 72.4336C47.1895 72.4336 47.7695 72.5215 48.2266 72.6973C48.6875 72.8691 49.0312 73.1328 49.2578 73.4883C49.4844 73.8438 49.5977 74.2969 49.5977 74.8477C49.5977 75.3008 49.5156 75.6797 49.3516 75.9844C49.1875 76.2852 48.9727 76.5293 48.707 76.7168C48.4414 76.9043 48.1582 77.0488 47.8574 77.1504L50.207 81H49.0469L46.9492 77.4258H45.168V81H44.1719V72.4336H46.4863ZM46.4277 73.2949H45.168V76.582H46.5273C47.2266 76.582 47.7402 76.4395 48.0684 76.1543C48.4004 75.8691 48.5664 75.4492 48.5664 74.8945C48.5664 74.3125 48.3906 73.9004 48.0391 73.6582C47.6914 73.416 47.1543 73.2949 46.4277 73.2949ZM53.9043 74.4609C54.4512 74.4609 54.9199 74.582 55.3105 74.8242C55.7012 75.0664 56 75.4062 56.207 75.8438C56.4141 76.2773 56.5176 76.7852 56.5176 77.3672V77.9707H52.082C52.0938 78.7246 52.2812 79.2988 52.6445 79.6934C53.0078 80.0879 53.5195 80.2852 54.1797 80.2852C54.5859 80.2852 54.9453 80.248 55.2578 80.1738C55.5703 80.0996 55.8945 79.9902 56.2305 79.8457V80.7012C55.9062 80.8457 55.584 80.9512 55.2637 81.0176C54.9473 81.084 54.5723 81.1172 54.1387 81.1172C53.5215 81.1172 52.9824 80.9922 52.5215 80.7422C52.0645 80.4883 51.709 80.1172 51.4551 79.6289C51.2012 79.1406 51.0742 78.543 51.0742 77.8359C51.0742 77.1445 51.1895 76.5469 51.4199 76.043C51.6543 75.5352 51.9824 75.1445 52.4043 74.8711C52.8301 74.5977 53.3301 74.4609 53.9043 74.4609ZM53.8926 75.2578C53.373 75.2578 52.959 75.4277 52.6504 75.7676C52.3418 76.1074 52.1582 76.582 52.0996 77.1914H55.498C55.4941 76.8086 55.4336 76.4727 55.3164 76.1836C55.2031 75.8906 55.0293 75.6641 54.7949 75.5039C54.5605 75.3398 54.2598 75.2578 53.8926 75.2578ZM62.3242 79.2422C62.3242 79.6523 62.2207 79.998 62.0137 80.2793C61.8105 80.5566 61.5176 80.7656 61.1348 80.9062C60.7559 81.0469 60.3027 81.1172 59.7754 81.1172C59.3262 81.1172 58.9375 81.082 58.6094 81.0117C58.2812 80.9414 57.9941 80.8418 57.748 80.7129V79.8164C58.0098 79.9453 58.3223 80.0625 58.6855 80.168C59.0488 80.2734 59.4199 80.3262 59.7988 80.3262C60.3535 80.3262 60.7559 80.2363 61.0059 80.0566C61.2559 79.877 61.3809 79.6328 61.3809 79.3242C61.3809 79.1484 61.3301 78.9941 61.2285 78.8613C61.1309 78.7246 60.9648 78.5938 60.7305 78.4688C60.4961 78.3398 60.1719 78.1992 59.7578 78.0469C59.3477 77.8906 58.9922 77.7363 58.6914 77.584C58.3945 77.4277 58.1641 77.2383 58 77.0156C57.8398 76.793 57.7598 76.5039 57.7598 76.1484C57.7598 75.6055 57.9785 75.1895 58.416 74.9004C58.8574 74.6074 59.4355 74.4609 60.1504 74.4609C60.5371 74.4609 60.8984 74.5 61.2344 74.5781C61.5742 74.6523 61.8906 74.7539 62.1836 74.8828L61.8555 75.6621C61.5898 75.5488 61.3066 75.4531 61.0059 75.375C60.7051 75.2969 60.3984 75.2578 60.0859 75.2578C59.6367 75.2578 59.291 75.332 59.0488 75.4805C58.8105 75.6289 58.6914 75.832 58.6914 76.0898C58.6914 76.2891 58.7461 76.4531 58.8555 76.582C58.9688 76.7109 59.1484 76.832 59.3945 76.9453C59.6406 77.0586 59.9648 77.1914 60.3672 77.3438C60.7695 77.4922 61.1172 77.6465 61.4102 77.8066C61.7031 77.9629 61.9277 78.1543 62.084 78.3809C62.2441 78.6035 62.3242 78.8906 62.3242 79.2422ZM66.3613 74.4609C66.9082 74.4609 67.377 74.582 67.7676 74.8242C68.1582 75.0664 68.457 75.4062 68.6641 75.8438C68.8711 76.2773 68.9746 76.7852 68.9746 77.3672V77.9707H64.5391C64.5508 78.7246 64.7383 79.2988 65.1016 79.6934C65.4648 80.0879 65.9766 80.2852 66.6367 80.2852C67.043 80.2852 67.4023 80.248 67.7148 80.1738C68.0273 80.0996 68.3516 79.9902 68.6875 79.8457V80.7012C68.3633 80.8457 68.041 80.9512 67.7207 81.0176C67.4043 81.084 67.0293 81.1172 66.5957 81.1172C65.9785 81.1172 65.4395 80.9922 64.9785 80.7422C64.5215 80.4883 64.166 80.1172 63.9121 79.6289C63.6582 79.1406 63.5312 78.543 63.5312 77.8359C63.5312 77.1445 63.6465 76.5469 63.877 76.043C64.1113 75.5352 64.4395 75.1445 64.8613 74.8711C65.2871 74.5977 65.7871 74.4609 66.3613 74.4609ZM66.3496 75.2578C65.8301 75.2578 65.416 75.4277 65.1074 75.7676C64.7988 76.1074 64.6152 76.582 64.5566 77.1914H67.9551C67.9512 76.8086 67.8906 76.4727 67.7734 76.1836C67.6602 75.8906 67.4863 75.6641 67.252 75.5039C67.0176 75.3398 66.7168 75.2578 66.3496 75.2578ZM73.0293 74.4727C73.7949 74.4727 74.3633 74.6445 74.7344 74.9883C75.1055 75.332 75.291 75.8809 75.291 76.6348V81H74.582L74.3945 80.0508H74.3477C74.168 80.2852 73.9805 80.4824 73.7852 80.6426C73.5898 80.7988 73.3633 80.918 73.1055 81C72.8516 81.0781 72.5391 81.1172 72.168 81.1172C71.7773 81.1172 71.4297 81.0488 71.125 80.9121C70.8242 80.7754 70.5859 80.5684 70.4102 80.291C70.2383 80.0137 70.1523 79.6621 70.1523 79.2363C70.1523 78.5957 70.4062 78.1035 70.9141 77.7598C71.4219 77.416 72.1953 77.2285 73.2344 77.1973L74.3418 77.1504V76.7578C74.3418 76.2031 74.2227 75.8145 73.9844 75.5918C73.7461 75.3691 73.4102 75.2578 72.9766 75.2578C72.6406 75.2578 72.3203 75.3066 72.0156 75.4043C71.7109 75.502 71.4219 75.6172 71.1484 75.75L70.8496 75.0117C71.1387 74.8633 71.4707 74.7363 71.8457 74.6309C72.2207 74.5254 72.6152 74.4727 73.0293 74.4727ZM74.3301 77.8359L73.3516 77.877C72.5508 77.9082 71.9863 78.0391 71.6582 78.2695C71.3301 78.5 71.166 78.8262 71.166 79.248C71.166 79.6152 71.2773 79.8867 71.5 80.0625C71.7227 80.2383 72.0176 80.3262 72.3848 80.3262C72.9551 80.3262 73.4219 80.168 73.7852 79.8516C74.1484 79.5352 74.3301 79.0605 74.3301 78.4277V77.8359ZM80.2129 74.4609C80.3418 74.4609 80.4766 74.4688 80.6172 74.4844C80.7578 74.4961 80.8828 74.5137 80.9922 74.5371L80.8691 75.4395C80.7637 75.4121 80.6465 75.3906 80.5176 75.375C80.3887 75.3594 80.2676 75.3516 80.1543 75.3516C79.8965 75.3516 79.6523 75.4043 79.4219 75.5098C79.1953 75.6113 78.9961 75.7598 78.8242 75.9551C78.6523 76.1465 78.5176 76.3789 78.4199 76.6523C78.3223 76.9219 78.2734 77.2227 78.2734 77.5547V81H77.2949V74.5781H78.1035L78.209 75.7617H78.25C78.3828 75.5234 78.543 75.3066 78.7305 75.1113C78.918 74.9121 79.1348 74.7539 79.3809 74.6367C79.6309 74.5195 79.9082 74.4609 80.2129 74.4609ZM84.7773 81.1172C84.1992 81.1172 83.6895 80.998 83.248 80.7598C82.8066 80.5215 82.4629 80.1582 82.2168 79.6699C81.9707 79.1816 81.8477 78.5664 81.8477 77.8242C81.8477 77.0469 81.9766 76.4121 82.2344 75.9199C82.4961 75.4238 82.8555 75.0566 83.3125 74.8184C83.7695 74.5801 84.2891 74.4609 84.8711 74.4609C85.1914 74.4609 85.5 74.4941 85.7969 74.5605C86.0977 74.623 86.3438 74.7031 86.5352 74.8008L86.2422 75.6152C86.0469 75.5371 85.8203 75.4668 85.5625 75.4043C85.3086 75.3418 85.0703 75.3105 84.8477 75.3105C84.4023 75.3105 84.0312 75.4062 83.7344 75.5977C83.4414 75.7891 83.2207 76.0703 83.0723 76.4414C82.9277 76.8125 82.8555 77.2695 82.8555 77.8125C82.8555 78.332 82.9258 78.7754 83.0664 79.1426C83.2109 79.5098 83.4238 79.791 83.7051 79.9863C83.9902 80.1777 84.3457 80.2734 84.7715 80.2734C85.1113 80.2734 85.418 80.2383 85.6914 80.168C85.9648 80.0938 86.2129 80.0078 86.4355 79.9102V80.7773C86.2207 80.8867 85.9805 80.9707 85.7148 81.0293C85.4531 81.0879 85.1406 81.1172 84.7773 81.1172ZM88.9316 71.8828V74.6074C88.9316 74.7637 88.9277 74.9219 88.9199 75.082C88.9121 75.2383 88.8984 75.3828 88.8789 75.5156H88.9434C89.0762 75.2891 89.2441 75.0996 89.4473 74.9473C89.6543 74.791 89.8887 74.6738 90.1504 74.5957C90.4121 74.5137 90.6895 74.4727 90.9824 74.4727C91.498 74.4727 91.9277 74.5547 92.2715 74.7188C92.6191 74.8828 92.8789 75.1367 93.0508 75.4805C93.2266 75.8242 93.3145 76.2695 93.3145 76.8164V81H92.3535V76.8809C92.3535 76.3457 92.2305 75.9453 91.9844 75.6797C91.7422 75.4141 91.3691 75.2812 90.8652 75.2812C90.3887 75.2812 90.0078 75.373 89.7227 75.5566C89.4414 75.7363 89.2383 76.002 89.1133 76.3535C88.9922 76.7051 88.9316 77.1348 88.9316 77.6426V81H87.959V71.8828H88.9316ZM100.51 80.3203C100.67 80.3203 100.834 80.3066 101.002 80.2793C101.17 80.252 101.307 80.2188 101.412 80.1797V80.9355C101.299 80.9863 101.141 81.0293 100.938 81.0645C100.738 81.0996 100.543 81.1172 100.352 81.1172C100.012 81.1172 99.7031 81.0586 99.4258 80.9414C99.1484 80.8203 98.9258 80.6172 98.7578 80.332C98.5938 80.0469 98.5117 79.6523 98.5117 79.1484V75.3398H97.5977V74.8652L98.5176 74.4844L98.9043 73.0898H99.4902V74.5781H101.371V75.3398H99.4902V79.1191C99.4902 79.5215 99.582 79.8223 99.7656 80.0215C99.9531 80.2207 100.201 80.3203 100.51 80.3203ZM103.686 71.8828V74.6074C103.686 74.7637 103.682 74.9219 103.674 75.082C103.666 75.2383 103.652 75.3828 103.633 75.5156H103.697C103.83 75.2891 103.998 75.0996 104.201 74.9473C104.408 74.791 104.643 74.6738 104.904 74.5957C105.166 74.5137 105.443 74.4727 105.736 74.4727C106.252 74.4727 106.682 74.5547 107.025 74.7188C107.373 74.8828 107.633 75.1367 107.805 75.4805C107.98 75.8242 108.068 76.2695 108.068 76.8164V81H107.107V76.8809C107.107 76.3457 106.984 75.9453 106.738 75.6797C106.496 75.4141 106.123 75.2812 105.619 75.2812C105.143 75.2812 104.762 75.373 104.477 75.5566C104.195 75.7363 103.992 76.002 103.867 76.3535C103.746 76.7051 103.686 77.1348 103.686 77.6426V81H102.713V71.8828H103.686ZM112.545 74.4609C113.092 74.4609 113.561 74.582 113.951 74.8242C114.342 75.0664 114.641 75.4062 114.848 75.8438C115.055 76.2773 115.158 76.7852 115.158 77.3672V77.9707H110.723C110.734 78.7246 110.922 79.2988 111.285 79.6934C111.648 80.0879 112.16 80.2852 112.82 80.2852C113.227 80.2852 113.586 80.248 113.898 80.1738C114.211 80.0996 114.535 79.9902 114.871 79.8457V80.7012C114.547 80.8457 114.225 80.9512 113.904 81.0176C113.588 81.084 113.213 81.1172 112.779 81.1172C112.162 81.1172 111.623 80.9922 111.162 80.7422C110.705 80.4883 110.35 80.1172 110.096 79.6289C109.842 79.1406 109.715 78.543 109.715 77.8359C109.715 77.1445 109.83 76.5469 110.061 76.043C110.295 75.5352 110.623 75.1445 111.045 74.8711C111.471 74.5977 111.971 74.4609 112.545 74.4609ZM112.533 75.2578C112.014 75.2578 111.6 75.4277 111.291 75.7676C110.982 76.1074 110.799 76.582 110.74 77.1914H114.139C114.135 76.8086 114.074 76.4727 113.957 76.1836C113.844 75.8906 113.67 75.6641 113.436 75.5039C113.201 75.3398 112.9 75.2578 112.533 75.2578ZM122.5 81.1172C121.922 81.1172 121.412 80.998 120.971 80.7598C120.529 80.5215 120.186 80.1582 119.939 79.6699C119.693 79.1816 119.57 78.5664 119.57 77.8242C119.57 77.0469 119.699 76.4121 119.957 75.9199C120.219 75.4238 120.578 75.0566 121.035 74.8184C121.492 74.5801 122.012 74.4609 122.594 74.4609C122.914 74.4609 123.223 74.4941 123.52 74.5605C123.82 74.623 124.066 74.7031 124.258 74.8008L123.965 75.6152C123.77 75.5371 123.543 75.4668 123.285 75.4043C123.031 75.3418 122.793 75.3105 122.57 75.3105C122.125 75.3105 121.754 75.4062 121.457 75.5977C121.164 75.7891 120.943 76.0703 120.795 76.4414C120.65 76.8125 120.578 77.2695 120.578 77.8125C120.578 78.332 120.648 78.7754 120.789 79.1426C120.934 79.5098 121.146 79.791 121.428 79.9863C121.713 80.1777 122.068 80.2734 122.494 80.2734C122.834 80.2734 123.141 80.2383 123.414 80.168C123.688 80.0938 123.936 80.0078 124.158 79.9102V80.7773C123.943 80.8867 123.703 80.9707 123.438 81.0293C123.176 81.0879 122.863 81.1172 122.5 81.1172ZM131.219 77.7773C131.219 78.3047 131.15 78.7754 131.014 79.1895C130.877 79.6035 130.68 79.9531 130.422 80.2383C130.164 80.5234 129.852 80.7422 129.484 80.8945C129.121 81.043 128.709 81.1172 128.248 81.1172C127.818 81.1172 127.424 81.043 127.064 80.8945C126.709 80.7422 126.4 80.5234 126.139 80.2383C125.881 79.9531 125.68 79.6035 125.535 79.1895C125.395 78.7754 125.324 78.3047 125.324 77.7773C125.324 77.0742 125.443 76.4766 125.682 75.9844C125.92 75.4883 126.26 75.1113 126.701 74.8535C127.146 74.5918 127.676 74.4609 128.289 74.4609C128.875 74.4609 129.387 74.5918 129.824 74.8535C130.266 75.1152 130.607 75.4941 130.85 75.9902C131.096 76.4824 131.219 77.0781 131.219 77.7773ZM126.332 77.7773C126.332 78.293 126.4 78.7402 126.537 79.1191C126.674 79.498 126.885 79.791 127.17 79.998C127.455 80.2051 127.822 80.3086 128.271 80.3086C128.717 80.3086 129.082 80.2051 129.367 79.998C129.656 79.791 129.869 79.498 130.006 79.1191C130.143 78.7402 130.211 78.293 130.211 77.7773C130.211 77.2656 130.143 76.8242 130.006 76.4531C129.869 76.0781 129.658 75.7891 129.373 75.5859C129.088 75.3828 128.719 75.2812 128.266 75.2812C127.598 75.2812 127.107 75.502 126.795 75.9434C126.486 76.3848 126.332 76.9961 126.332 77.7773ZM139.873 74.4609C140.58 74.4609 141.113 74.6465 141.473 75.0176C141.832 75.3848 142.012 75.9766 142.012 76.793V81H141.051V76.8398C141.051 76.3203 140.938 75.9316 140.711 75.6738C140.488 75.4121 140.156 75.2812 139.715 75.2812C139.094 75.2812 138.643 75.4609 138.361 75.8203C138.08 76.1797 137.939 76.709 137.939 77.4082V81H136.973V76.8398C136.973 76.4922 136.922 76.2031 136.82 75.9727C136.723 75.7422 136.574 75.5703 136.375 75.457C136.18 75.3398 135.932 75.2812 135.631 75.2812C135.205 75.2812 134.863 75.3691 134.605 75.5449C134.348 75.7207 134.16 75.9824 134.043 76.3301C133.93 76.6738 133.873 77.0977 133.873 77.6016V81H132.9V74.5781H133.686L133.832 75.4863H133.885C134.014 75.2637 134.176 75.0762 134.371 74.9238C134.566 74.7715 134.785 74.6562 135.027 74.5781C135.27 74.5 135.527 74.4609 135.801 74.4609C136.289 74.4609 136.697 74.5527 137.025 74.7363C137.357 74.916 137.598 75.1914 137.746 75.5625H137.799C138.01 75.1914 138.299 74.916 138.666 74.7363C139.033 74.5527 139.436 74.4609 139.873 74.4609ZM147.027 74.4609C147.828 74.4609 148.467 74.7363 148.943 75.2871C149.42 75.8379 149.658 76.666 149.658 77.7715C149.658 78.502 149.549 79.1152 149.33 79.6113C149.111 80.1074 148.803 80.4824 148.404 80.7363C148.01 80.9902 147.543 81.1172 147.004 81.1172C146.664 81.1172 146.365 81.0723 146.107 80.9824C145.85 80.8926 145.629 80.7715 145.445 80.6191C145.262 80.4668 145.109 80.3008 144.988 80.1211H144.918C144.93 80.2734 144.943 80.457 144.959 80.6719C144.979 80.8867 144.988 81.0742 144.988 81.2344V83.8711H144.01V74.5781H144.812L144.941 75.5273H144.988C145.113 75.332 145.266 75.1543 145.445 74.9941C145.625 74.8301 145.844 74.7012 146.102 74.6074C146.363 74.5098 146.672 74.4609 147.027 74.4609ZM146.857 75.2812C146.412 75.2812 146.053 75.3672 145.779 75.5391C145.51 75.7109 145.312 75.9688 145.188 76.3125C145.062 76.6523 144.996 77.0801 144.988 77.5957V77.7832C144.988 78.3262 145.047 78.7852 145.164 79.1602C145.285 79.5352 145.482 79.8203 145.756 80.0156C146.033 80.2109 146.404 80.3086 146.869 80.3086C147.268 80.3086 147.6 80.2012 147.865 79.9863C148.131 79.7715 148.328 79.4727 148.457 79.0898C148.59 78.7031 148.656 78.2598 148.656 77.7598C148.656 77.002 148.508 76.4004 148.211 75.9551C147.918 75.5059 147.467 75.2812 146.857 75.2812ZM153.76 74.4727C154.525 74.4727 155.094 74.6445 155.465 74.9883C155.836 75.332 156.021 75.8809 156.021 76.6348V81H155.312L155.125 80.0508H155.078C154.898 80.2852 154.711 80.4824 154.516 80.6426C154.32 80.7988 154.094 80.918 153.836 81C153.582 81.0781 153.27 81.1172 152.898 81.1172C152.508 81.1172 152.16 81.0488 151.855 80.9121C151.555 80.7754 151.316 80.5684 151.141 80.291C150.969 80.0137 150.883 79.6621 150.883 79.2363C150.883 78.5957 151.137 78.1035 151.645 77.7598C152.152 77.416 152.926 77.2285 153.965 77.1973L155.072 77.1504V76.7578C155.072 76.2031 154.953 75.8145 154.715 75.5918C154.477 75.3691 154.141 75.2578 153.707 75.2578C153.371 75.2578 153.051 75.3066 152.746 75.4043C152.441 75.502 152.152 75.6172 151.879 75.75L151.58 75.0117C151.869 74.8633 152.201 74.7363 152.576 74.6309C152.951 74.5254 153.346 74.4727 153.76 74.4727ZM155.061 77.8359L154.082 77.877C153.281 77.9082 152.717 78.0391 152.389 78.2695C152.061 78.5 151.896 78.8262 151.896 79.248C151.896 79.6152 152.008 79.8867 152.23 80.0625C152.453 80.2383 152.748 80.3262 153.115 80.3262C153.686 80.3262 154.152 80.168 154.516 79.8516C154.879 79.5352 155.061 79.0605 155.061 78.4277V77.8359ZM161.066 74.4609C161.828 74.4609 162.404 74.6484 162.795 75.0234C163.186 75.3945 163.381 75.9922 163.381 76.8164V81H162.42V76.8809C162.42 76.3457 162.297 75.9453 162.051 75.6797C161.809 75.4141 161.436 75.2812 160.932 75.2812C160.221 75.2812 159.721 75.4824 159.432 75.8848C159.143 76.2871 158.998 76.8711 158.998 77.6367V81H158.025V74.5781H158.811L158.957 75.5039H159.01C159.146 75.2773 159.32 75.0879 159.531 74.9355C159.742 74.7793 159.979 74.6621 160.24 74.584C160.502 74.502 160.777 74.4609 161.066 74.4609ZM164.371 74.5781H165.414L166.832 78.3047C166.914 78.5234 166.99 78.7344 167.061 78.9375C167.131 79.1367 167.193 79.3281 167.248 79.5117C167.303 79.6953 167.346 79.873 167.377 80.0449H167.418C167.473 79.8496 167.551 79.5938 167.652 79.2773C167.754 78.957 167.863 78.6309 167.98 78.2988L169.322 74.5781H170.371L167.576 81.9434C167.428 82.3379 167.254 82.6816 167.055 82.9746C166.859 83.2676 166.621 83.4922 166.34 83.6484C166.059 83.8086 165.719 83.8887 165.32 83.8887C165.137 83.8887 164.975 83.877 164.834 83.8535C164.693 83.834 164.572 83.8105 164.471 83.7832V83.0039C164.557 83.0234 164.66 83.041 164.781 83.0566C164.906 83.0723 165.035 83.0801 165.168 83.0801C165.41 83.0801 165.619 83.0332 165.795 82.9395C165.975 82.8496 166.129 82.7168 166.258 82.541C166.387 82.3652 166.498 82.1562 166.592 81.9141L166.943 81.0117L164.371 74.5781Z" fill="black"/>
<path d="M46.4102 89.4336C47.5156 89.4336 48.3223 89.6504 48.8301 90.084C49.3418 90.5137 49.5977 91.1309 49.5977 91.9355C49.5977 92.2988 49.5371 92.6445 49.416 92.9727C49.2988 93.2969 49.1074 93.584 48.8418 93.834C48.5762 94.0801 48.2266 94.2754 47.793 94.4199C47.3633 94.5605 46.8359 94.6309 46.2109 94.6309H45.168V98H44.1719V89.4336H46.4102ZM46.3164 90.2832H45.168V93.7754H46.0996C46.6465 93.7754 47.1016 93.7168 47.4648 93.5996C47.832 93.4824 48.1074 93.293 48.291 93.0312C48.4746 92.7656 48.5664 92.4141 48.5664 91.9766C48.5664 91.4062 48.3848 90.9824 48.0215 90.7051C47.6582 90.4238 47.0898 90.2832 46.3164 90.2832ZM54.1621 91.4609C54.291 91.4609 54.4258 91.4688 54.5664 91.4844C54.707 91.4961 54.832 91.5137 54.9414 91.5371L54.8184 92.4395C54.7129 92.4121 54.5957 92.3906 54.4668 92.375C54.3379 92.3594 54.2168 92.3516 54.1035 92.3516C53.8457 92.3516 53.6016 92.4043 53.3711 92.5098C53.1445 92.6113 52.9453 92.7598 52.7734 92.9551C52.6016 93.1465 52.4668 93.3789 52.3691 93.6523C52.2715 93.9219 52.2227 94.2227 52.2227 94.5547V98H51.2441V91.5781H52.0527L52.1582 92.7617H52.1992C52.332 92.5234 52.4922 92.3066 52.6797 92.1113C52.8672 91.9121 53.084 91.7539 53.3301 91.6367C53.5801 91.5195 53.8574 91.4609 54.1621 91.4609ZM58.627 91.4609C59.1738 91.4609 59.6426 91.582 60.0332 91.8242C60.4238 92.0664 60.7227 92.4062 60.9297 92.8438C61.1367 93.2773 61.2402 93.7852 61.2402 94.3672V94.9707H56.8047C56.8164 95.7246 57.0039 96.2988 57.3672 96.6934C57.7305 97.0879 58.2422 97.2852 58.9023 97.2852C59.3086 97.2852 59.668 97.248 59.9805 97.1738C60.293 97.0996 60.6172 96.9902 60.9531 96.8457V97.7012C60.6289 97.8457 60.3066 97.9512 59.9863 98.0176C59.6699 98.084 59.2949 98.1172 58.8613 98.1172C58.2441 98.1172 57.7051 97.9922 57.2441 97.7422C56.7871 97.4883 56.4316 97.1172 56.1777 96.6289C55.9238 96.1406 55.7969 95.543 55.7969 94.8359C55.7969 94.1445 55.9121 93.5469 56.1426 93.043C56.377 92.5352 56.7051 92.1445 57.127 91.8711C57.5527 91.5977 58.0527 91.4609 58.627 91.4609ZM58.6152 92.2578C58.0957 92.2578 57.6816 92.4277 57.373 92.7676C57.0645 93.1074 56.8809 93.582 56.8223 94.1914H60.2207C60.2168 93.8086 60.1562 93.4727 60.0391 93.1836C59.9258 92.8906 59.752 92.6641 59.5176 92.5039C59.2832 92.3398 58.9824 92.2578 58.6152 92.2578ZM65.9102 91.4609C66.7109 91.4609 67.3496 91.7363 67.8262 92.2871C68.3027 92.8379 68.541 93.666 68.541 94.7715C68.541 95.502 68.4316 96.1152 68.2129 96.6113C67.9941 97.1074 67.6855 97.4824 67.2871 97.7363C66.8926 97.9902 66.4258 98.1172 65.8867 98.1172C65.5469 98.1172 65.248 98.0723 64.9902 97.9824C64.7324 97.8926 64.5117 97.7715 64.3281 97.6191C64.1445 97.4668 63.9922 97.3008 63.8711 97.1211H63.8008C63.8125 97.2734 63.8262 97.457 63.8418 97.6719C63.8613 97.8867 63.8711 98.0742 63.8711 98.2344V100.871H62.8926V91.5781H63.6953L63.8242 92.5273H63.8711C63.9961 92.332 64.1484 92.1543 64.3281 91.9941C64.5078 91.8301 64.7266 91.7012 64.9844 91.6074C65.2461 91.5098 65.5547 91.4609 65.9102 91.4609ZM65.7402 92.2812C65.2949 92.2812 64.9355 92.3672 64.6621 92.5391C64.3926 92.7109 64.1953 92.9688 64.0703 93.3125C63.9453 93.6523 63.8789 94.0801 63.8711 94.5957V94.7832C63.8711 95.3262 63.9297 95.7852 64.0469 96.1602C64.168 96.5352 64.3652 96.8203 64.6387 97.0156C64.916 97.2109 65.2871 97.3086 65.752 97.3086C66.1504 97.3086 66.4824 97.2012 66.748 96.9863C67.0137 96.7715 67.2109 96.4727 67.3398 96.0898C67.4727 95.7031 67.5391 95.2598 67.5391 94.7598C67.5391 94.002 67.3906 93.4004 67.0938 92.9551C66.8008 92.5059 66.3496 92.2812 65.7402 92.2812ZM72.6426 91.4727C73.4082 91.4727 73.9766 91.6445 74.3477 91.9883C74.7188 92.332 74.9043 92.8809 74.9043 93.6348V98H74.1953L74.0078 97.0508H73.9609C73.7812 97.2852 73.5938 97.4824 73.3984 97.6426C73.2031 97.7988 72.9766 97.918 72.7188 98C72.4648 98.0781 72.1523 98.1172 71.7812 98.1172C71.3906 98.1172 71.043 98.0488 70.7383 97.9121C70.4375 97.7754 70.1992 97.5684 70.0234 97.291C69.8516 97.0137 69.7656 96.6621 69.7656 96.2363C69.7656 95.5957 70.0195 95.1035 70.5273 94.7598C71.0352 94.416 71.8086 94.2285 72.8477 94.1973L73.9551 94.1504V93.7578C73.9551 93.2031 73.8359 92.8145 73.5977 92.5918C73.3594 92.3691 73.0234 92.2578 72.5898 92.2578C72.2539 92.2578 71.9336 92.3066 71.6289 92.4043C71.3242 92.502 71.0352 92.6172 70.7617 92.75L70.4629 92.0117C70.752 91.8633 71.084 91.7363 71.459 91.6309C71.834 91.5254 72.2285 91.4727 72.6426 91.4727ZM73.9434 94.8359L72.9648 94.877C72.1641 94.9082 71.5996 95.0391 71.2715 95.2695C70.9434 95.5 70.7793 95.8262 70.7793 96.248C70.7793 96.6152 70.8906 96.8867 71.1133 97.0625C71.3359 97.2383 71.6309 97.3262 71.998 97.3262C72.5684 97.3262 73.0352 97.168 73.3984 96.8516C73.7617 96.5352 73.9434 96.0605 73.9434 95.4277V94.8359ZM79.8262 91.4609C79.9551 91.4609 80.0898 91.4688 80.2305 91.4844C80.3711 91.4961 80.4961 91.5137 80.6055 91.5371L80.4824 92.4395C80.377 92.4121 80.2598 92.3906 80.1309 92.375C80.002 92.3594 79.8809 92.3516 79.7676 92.3516C79.5098 92.3516 79.2656 92.4043 79.0352 92.5098C78.8086 92.6113 78.6094 92.7598 78.4375 92.9551C78.2656 93.1465 78.1309 93.3789 78.0332 93.6523C77.9355 93.9219 77.8867 94.2227 77.8867 94.5547V98H76.9082V91.5781H77.7168L77.8223 92.7617H77.8633C77.9961 92.5234 78.1562 92.3066 78.3438 92.1113C78.5312 91.9121 78.748 91.7539 78.9941 91.6367C79.2441 91.5195 79.5215 91.4609 79.8262 91.4609ZM84.291 91.4609C84.8379 91.4609 85.3066 91.582 85.6973 91.8242C86.0879 92.0664 86.3867 92.4062 86.5938 92.8438C86.8008 93.2773 86.9043 93.7852 86.9043 94.3672V94.9707H82.4688C82.4805 95.7246 82.668 96.2988 83.0312 96.6934C83.3945 97.0879 83.9062 97.2852 84.5664 97.2852C84.9727 97.2852 85.332 97.248 85.6445 97.1738C85.957 97.0996 86.2812 96.9902 86.6172 96.8457V97.7012C86.293 97.8457 85.9707 97.9512 85.6504 98.0176C85.334 98.084 84.959 98.1172 84.5254 98.1172C83.9082 98.1172 83.3691 97.9922 82.9082 97.7422C82.4512 97.4883 82.0957 97.1172 81.8418 96.6289C81.5879 96.1406 81.4609 95.543 81.4609 94.8359C81.4609 94.1445 81.5762 93.5469 81.8066 93.043C82.041 92.5352 82.3691 92.1445 82.791 91.8711C83.2168 91.5977 83.7168 91.4609 84.291 91.4609ZM84.2793 92.2578C83.7598 92.2578 83.3457 92.4277 83.0371 92.7676C82.7285 93.1074 82.5449 93.582 82.4863 94.1914H85.8848C85.8809 93.8086 85.8203 93.4727 85.7031 93.1836C85.5898 92.8906 85.416 92.6641 85.1816 92.5039C84.9473 92.3398 84.6465 92.2578 84.2793 92.2578ZM93.748 97.3203C93.9082 97.3203 94.0723 97.3066 94.2402 97.2793C94.4082 97.252 94.5449 97.2188 94.6504 97.1797V97.9355C94.5371 97.9863 94.3789 98.0293 94.1758 98.0645C93.9766 98.0996 93.7812 98.1172 93.5898 98.1172C93.25 98.1172 92.9414 98.0586 92.6641 97.9414C92.3867 97.8203 92.1641 97.6172 91.9961 97.332C91.832 97.0469 91.75 96.6523 91.75 96.1484V92.3398H90.8359V91.8652L91.7559 91.4844L92.1426 90.0898H92.7285V91.5781H94.6094V92.3398H92.7285V96.1191C92.7285 96.5215 92.8203 96.8223 93.0039 97.0215C93.1914 97.2207 93.4395 97.3203 93.748 97.3203ZM96.9238 88.8828V91.6074C96.9238 91.7637 96.9199 91.9219 96.9121 92.082C96.9043 92.2383 96.8906 92.3828 96.8711 92.5156H96.9355C97.0684 92.2891 97.2363 92.0996 97.4395 91.9473C97.6465 91.791 97.8809 91.6738 98.1426 91.5957C98.4043 91.5137 98.6816 91.4727 98.9746 91.4727C99.4902 91.4727 99.9199 91.5547 100.264 91.7188C100.611 91.8828 100.871 92.1367 101.043 92.4805C101.219 92.8242 101.307 93.2695 101.307 93.8164V98H100.346V93.8809C100.346 93.3457 100.223 92.9453 99.9766 92.6797C99.7344 92.4141 99.3613 92.2812 98.8574 92.2812C98.3809 92.2812 98 92.373 97.7148 92.5566C97.4336 92.7363 97.2305 93.002 97.1055 93.3535C96.9844 93.7051 96.9238 94.1348 96.9238 94.6426V98H95.9512V88.8828H96.9238ZM105.783 91.4609C106.33 91.4609 106.799 91.582 107.189 91.8242C107.58 92.0664 107.879 92.4062 108.086 92.8438C108.293 93.2773 108.396 93.7852 108.396 94.3672V94.9707H103.961C103.973 95.7246 104.16 96.2988 104.523 96.6934C104.887 97.0879 105.398 97.2852 106.059 97.2852C106.465 97.2852 106.824 97.248 107.137 97.1738C107.449 97.0996 107.773 96.9902 108.109 96.8457V97.7012C107.785 97.8457 107.463 97.9512 107.143 98.0176C106.826 98.084 106.451 98.1172 106.018 98.1172C105.4 98.1172 104.861 97.9922 104.4 97.7422C103.943 97.4883 103.588 97.1172 103.334 96.6289C103.08 96.1406 102.953 95.543 102.953 94.8359C102.953 94.1445 103.068 93.5469 103.299 93.043C103.533 92.5352 103.861 92.1445 104.283 91.8711C104.709 91.5977 105.209 91.4609 105.783 91.4609ZM105.771 92.2578C105.252 92.2578 104.838 92.4277 104.529 92.7676C104.221 93.1074 104.037 93.582 103.979 94.1914H107.377C107.373 93.8086 107.312 93.4727 107.195 93.1836C107.082 92.8906 106.908 92.6641 106.674 92.5039C106.439 92.3398 106.139 92.2578 105.771 92.2578ZM116.084 91.4609C116.213 91.4609 116.348 91.4688 116.488 91.4844C116.629 91.4961 116.754 91.5137 116.863 91.5371L116.74 92.4395C116.635 92.4121 116.518 92.3906 116.389 92.375C116.26 92.3594 116.139 92.3516 116.025 92.3516C115.768 92.3516 115.523 92.4043 115.293 92.5098C115.066 92.6113 114.867 92.7598 114.695 92.9551C114.523 93.1465 114.389 93.3789 114.291 93.6523C114.193 93.9219 114.145 94.2227 114.145 94.5547V98H113.166V91.5781H113.975L114.08 92.7617H114.121C114.254 92.5234 114.414 92.3066 114.602 92.1113C114.789 91.9121 115.006 91.7539 115.252 91.6367C115.502 91.5195 115.779 91.4609 116.084 91.4609ZM120.549 91.4609C121.096 91.4609 121.564 91.582 121.955 91.8242C122.346 92.0664 122.645 92.4062 122.852 92.8438C123.059 93.2773 123.162 93.7852 123.162 94.3672V94.9707H118.727C118.738 95.7246 118.926 96.2988 119.289 96.6934C119.652 97.0879 120.164 97.2852 120.824 97.2852C121.23 97.2852 121.59 97.248 121.902 97.1738C122.215 97.0996 122.539 96.9902 122.875 96.8457V97.7012C122.551 97.8457 122.229 97.9512 121.908 98.0176C121.592 98.084 121.217 98.1172 120.783 98.1172C120.166 98.1172 119.627 97.9922 119.166 97.7422C118.709 97.4883 118.354 97.1172 118.1 96.6289C117.846 96.1406 117.719 95.543 117.719 94.8359C117.719 94.1445 117.834 93.5469 118.064 93.043C118.299 92.5352 118.627 92.1445 119.049 91.8711C119.475 91.5977 119.975 91.4609 120.549 91.4609ZM120.537 92.2578C120.018 92.2578 119.604 92.4277 119.295 92.7676C118.986 93.1074 118.803 93.582 118.744 94.1914H122.143C122.139 93.8086 122.078 93.4727 121.961 93.1836C121.848 92.8906 121.674 92.6641 121.439 92.5039C121.205 92.3398 120.904 92.2578 120.537 92.2578ZM128.969 96.2422C128.969 96.6523 128.865 96.998 128.658 97.2793C128.455 97.5566 128.162 97.7656 127.779 97.9062C127.4 98.0469 126.947 98.1172 126.42 98.1172C125.971 98.1172 125.582 98.082 125.254 98.0117C124.926 97.9414 124.639 97.8418 124.393 97.7129V96.8164C124.654 96.9453 124.967 97.0625 125.33 97.168C125.693 97.2734 126.064 97.3262 126.443 97.3262C126.998 97.3262 127.4 97.2363 127.65 97.0566C127.9 96.877 128.025 96.6328 128.025 96.3242C128.025 96.1484 127.975 95.9941 127.873 95.8613C127.775 95.7246 127.609 95.5938 127.375 95.4688C127.141 95.3398 126.816 95.1992 126.402 95.0469C125.992 94.8906 125.637 94.7363 125.336 94.584C125.039 94.4277 124.809 94.2383 124.645 94.0156C124.484 93.793 124.404 93.5039 124.404 93.1484C124.404 92.6055 124.623 92.1895 125.061 91.9004C125.502 91.6074 126.08 91.4609 126.795 91.4609C127.182 91.4609 127.543 91.5 127.879 91.5781C128.219 91.6523 128.535 91.7539 128.828 91.8828L128.5 92.6621C128.234 92.5488 127.951 92.4531 127.65 92.375C127.35 92.2969 127.043 92.2578 126.73 92.2578C126.281 92.2578 125.936 92.332 125.693 92.4805C125.455 92.6289 125.336 92.832 125.336 93.0898C125.336 93.2891 125.391 93.4531 125.5 93.582C125.613 93.7109 125.793 93.832 126.039 93.9453C126.285 94.0586 126.609 94.1914 127.012 94.3438C127.414 94.4922 127.762 94.6465 128.055 94.8066C128.348 94.9629 128.572 95.1543 128.729 95.3809C128.889 95.6035 128.969 95.8906 128.969 96.2422ZM135.836 91.5781V98H135.039L134.898 97.0977H134.846C134.713 97.3203 134.541 97.5078 134.33 97.6602C134.119 97.8125 133.881 97.9258 133.615 98C133.354 98.0781 133.074 98.1172 132.777 98.1172C132.27 98.1172 131.844 98.0352 131.5 97.8711C131.156 97.707 130.896 97.4531 130.721 97.1094C130.549 96.7656 130.463 96.3242 130.463 95.7852V91.5781H131.447V95.7148C131.447 96.25 131.568 96.6504 131.811 96.916C132.053 97.1777 132.422 97.3086 132.918 97.3086C133.395 97.3086 133.773 97.2188 134.055 97.0391C134.34 96.8594 134.545 96.5957 134.67 96.248C134.795 95.8965 134.857 95.4668 134.857 94.959V91.5781H135.836ZM144.865 91.4609C145.572 91.4609 146.105 91.6465 146.465 92.0176C146.824 92.3848 147.004 92.9766 147.004 93.793V98H146.043V93.8398C146.043 93.3203 145.93 92.9316 145.703 92.6738C145.48 92.4121 145.148 92.2812 144.707 92.2812C144.086 92.2812 143.635 92.4609 143.354 92.8203C143.072 93.1797 142.932 93.709 142.932 94.4082V98H141.965V93.8398C141.965 93.4922 141.914 93.2031 141.812 92.9727C141.715 92.7422 141.566 92.5703 141.367 92.457C141.172 92.3398 140.924 92.2812 140.623 92.2812C140.197 92.2812 139.855 92.3691 139.598 92.5449C139.34 92.7207 139.152 92.9824 139.035 93.3301C138.922 93.6738 138.865 94.0977 138.865 94.6016V98H137.893V91.5781H138.678L138.824 92.4863H138.877C139.006 92.2637 139.168 92.0762 139.363 91.9238C139.559 91.7715 139.777 91.6562 140.02 91.5781C140.262 91.5 140.52 91.4609 140.793 91.4609C141.281 91.4609 141.689 91.5527 142.018 91.7363C142.35 91.916 142.59 92.1914 142.738 92.5625H142.791C143.002 92.1914 143.291 91.916 143.658 91.7363C144.025 91.5527 144.428 91.4609 144.865 91.4609ZM151.475 91.4609C152.021 91.4609 152.49 91.582 152.881 91.8242C153.271 92.0664 153.57 92.4062 153.777 92.8438C153.984 93.2773 154.088 93.7852 154.088 94.3672V94.9707H149.652C149.664 95.7246 149.852 96.2988 150.215 96.6934C150.578 97.0879 151.09 97.2852 151.75 97.2852C152.156 97.2852 152.516 97.248 152.828 97.1738C153.141 97.0996 153.465 96.9902 153.801 96.8457V97.7012C153.477 97.8457 153.154 97.9512 152.834 98.0176C152.518 98.084 152.143 98.1172 151.709 98.1172C151.092 98.1172 150.553 97.9922 150.092 97.7422C149.635 97.4883 149.279 97.1172 149.025 96.6289C148.771 96.1406 148.645 95.543 148.645 94.8359C148.645 94.1445 148.76 93.5469 148.99 93.043C149.225 92.5352 149.553 92.1445 149.975 91.8711C150.4 91.5977 150.9 91.4609 151.475 91.4609ZM151.463 92.2578C150.943 92.2578 150.529 92.4277 150.221 92.7676C149.912 93.1074 149.729 93.582 149.67 94.1914H153.068C153.064 93.8086 153.004 93.4727 152.887 93.1836C152.773 92.8906 152.6 92.6641 152.365 92.5039C152.131 92.3398 151.83 92.2578 151.463 92.2578Z" fill="black"/>
<rect x="12" y="36" width="169" height="13" fill="#F2F2F2"/>
<defs>
<filter id="filter0_d_3599_1452" x="0" y="0" width="193" height="117" filterUnits="userSpaceOnUse" color-interpolation-filters="sRGB">
<feFlood flood-opacity="0" result="BackgroundImageFix"/>
<feColorMatrix in="SourceAlpha" type="matrix" values="0 0 0 0 0 0 0 0 0 0 0 0 0 0 0 0 0 0 127 0" result="hardAlpha"/>
<feMorphology radius="3" operator="dilate" in="SourceAlpha" result="effect1_dropShadow_3599_1452"/>
<feOffset dy="1"/>
<feGaussianBlur stdDeviation="4"/>
<feComposite in2="hardAlpha" operator="out"/>
<feColorMatrix type="matrix" values="0 0 0 0 0 0 0 0 0 0 0 0 0 0 0 0 0 0 0.03 0"/>
<feBlend mode="normal" in2="BackgroundImageFix" result="effect1_dropShadow_3599_1452"/>
<feBlend mode="normal" in="SourceGraphic" in2="effect1_dropShadow_3599_1452" result="shape"/>
</filter>
</defs>
</svg>
