<svg width="236" height="123" viewBox="0 0 236 123" fill="none" xmlns="http://www.w3.org/2000/svg">
<rect x="0.5" y="0.5" width="235" height="122" fill="white" stroke="#C2C2C2"/>
<rect x="10" y="19" width="217" height="14" rx="1" fill="#F3E5F5"/>
<rect x="10" y="43" width="158" height="14" rx="1" fill="#E8EAF6"/>
<rect x="10" y="67" width="115" height="14" rx="1" fill="#FFEBEE"/>
<rect x="10" y="91" width="42" height="14" rx="1" fill="#E8F5E9"/>
<path d="M159.656 97.168C159.656 98.1836 159.582 99.1797 159.434 100.156C159.293 101.133 159.043 102.047 158.684 102.898C158.332 103.75 157.844 104.504 157.219 105.16C156.602 105.809 155.82 106.316 154.875 106.684C153.93 107.051 152.789 107.234 151.453 107.234C151.117 107.234 150.727 107.215 150.281 107.176C149.844 107.145 149.484 107.098 149.203 107.035V104.738C149.5 104.824 149.832 104.895 150.199 104.949C150.574 104.996 150.945 105.02 151.312 105.02C152.758 105.02 153.883 104.75 154.688 104.211C155.5 103.672 156.074 102.93 156.41 101.984C156.754 101.039 156.949 99.9648 156.996 98.7617H156.855C156.629 99.1367 156.344 99.4805 156 99.793C155.656 100.098 155.23 100.344 154.723 100.531C154.215 100.711 153.598 100.801 152.871 100.801C151.887 100.801 151.027 100.594 150.293 100.18C149.566 99.7656 149 99.1641 148.594 98.375C148.195 97.5781 147.996 96.6211 147.996 95.5039C147.996 94.293 148.227 93.25 148.688 92.375C149.148 91.5 149.801 90.8281 150.645 90.3594C151.488 89.8828 152.48 89.6445 153.621 89.6445C154.48 89.6445 155.273 89.8008 156 90.1133C156.734 90.418 157.375 90.8867 157.922 91.5195C158.469 92.1445 158.895 92.9297 159.199 93.875C159.504 94.8125 159.656 95.9102 159.656 97.168ZM153.656 91.918C152.789 91.918 152.082 92.2109 151.535 92.7969C150.988 93.375 150.715 94.2656 150.715 95.4688C150.715 96.4453 150.949 97.2188 151.418 97.7891C151.887 98.3594 152.605 98.6445 153.574 98.6445C154.246 98.6445 154.824 98.5078 155.309 98.2344C155.801 97.9531 156.18 97.5977 156.445 97.168C156.719 96.7383 156.855 96.3008 156.855 95.8555C156.855 95.3945 156.789 94.9336 156.656 94.4727C156.531 94.0117 156.336 93.5898 156.07 93.207C155.805 92.8242 155.469 92.5156 155.062 92.2812C154.664 92.0391 154.195 91.918 153.656 91.918ZM165.457 88.7656V93.3477C165.457 93.8242 165.441 94.2891 165.41 94.7422C165.387 95.1953 165.359 95.5469 165.328 95.7969H165.48C165.754 95.3438 166.09 94.9727 166.488 94.6836C166.887 94.3867 167.332 94.1641 167.824 94.0156C168.324 93.8672 168.855 93.793 169.418 93.793C170.41 93.793 171.254 93.9609 171.949 94.2969C172.645 94.625 173.176 95.1367 173.543 95.832C173.918 96.5273 174.105 97.4297 174.105 98.5391V107H171.352V99.0547C171.352 98.0469 171.145 97.293 170.73 96.793C170.316 96.2852 169.676 96.0312 168.809 96.0312C167.973 96.0312 167.309 96.207 166.816 96.5586C166.332 96.9023 165.984 97.4141 165.773 98.0938C165.562 98.7656 165.457 99.5859 165.457 100.555V107H162.703V88.7656H165.457ZM188.016 93.7812C188.016 94.5547 187.859 95.2266 187.547 95.7969C187.234 96.3672 186.805 96.8359 186.258 97.2031C185.719 97.5625 185.094 97.8203 184.383 97.9766V98.0586C185.75 98.2305 186.781 98.6602 187.477 99.3477C188.18 100.035 188.531 100.945 188.531 102.078C188.531 103.07 188.293 103.957 187.816 104.738C187.34 105.512 186.609 106.121 185.625 106.566C184.641 107.012 183.375 107.234 181.828 107.234C180.898 107.234 180.035 107.16 179.238 107.012C178.449 106.863 177.699 106.625 176.988 106.297V103.848C177.715 104.207 178.488 104.484 179.309 104.68C180.129 104.875 180.906 104.973 181.641 104.973C183.07 104.973 184.09 104.707 184.699 104.176C185.309 103.637 185.613 102.895 185.613 101.949C185.613 101.34 185.453 100.84 185.133 100.449C184.82 100.059 184.332 99.7656 183.668 99.5703C183.012 99.375 182.164 99.2773 181.125 99.2773H179.613V97.0625H181.137C182.129 97.0625 182.926 96.9453 183.527 96.7109C184.129 96.4688 184.562 96.1367 184.828 95.7148C185.102 95.293 185.238 94.8008 185.238 94.2383C185.238 93.5039 185 92.9336 184.523 92.5273C184.047 92.1133 183.34 91.9062 182.402 91.9062C181.824 91.9062 181.297 91.9727 180.82 92.1055C180.352 92.2383 179.918 92.4062 179.52 92.6094C179.121 92.8125 178.742 93.0312 178.383 93.2656L177.059 91.3555C177.707 90.8711 178.48 90.4609 179.379 90.125C180.277 89.7891 181.324 89.6211 182.52 89.6211C184.277 89.6211 185.633 90 186.586 90.7578C187.539 91.5078 188.016 92.5156 188.016 93.7812ZM202.406 98.4219C202.406 99.8047 202.297 101.043 202.078 102.137C201.867 103.223 201.531 104.145 201.07 104.902C200.609 105.66 200.008 106.238 199.266 106.637C198.523 107.035 197.625 107.234 196.57 107.234C195.25 107.234 194.16 106.887 193.301 106.191C192.441 105.488 191.805 104.48 191.391 103.168C190.977 101.848 190.77 100.266 190.77 98.4219C190.77 96.5781 190.957 95 191.332 93.6875C191.715 92.3672 192.332 91.3555 193.184 90.6523C194.035 89.9492 195.164 89.5977 196.57 89.5977C197.898 89.5977 198.992 89.9492 199.852 90.6523C200.719 91.3477 201.359 92.3555 201.773 93.6758C202.195 94.9883 202.406 96.5703 202.406 98.4219ZM193.547 98.4219C193.547 99.8672 193.641 101.074 193.828 102.043C194.023 103.012 194.344 103.738 194.789 104.223C195.234 104.699 195.828 104.938 196.57 104.938C197.312 104.938 197.906 104.699 198.352 104.223C198.797 103.746 199.117 103.023 199.312 102.055C199.516 101.086 199.617 99.875 199.617 98.4219C199.617 96.9844 199.52 95.7812 199.324 94.8125C199.129 93.8438 198.809 93.1172 198.363 92.6328C197.918 92.1406 197.32 91.8945 196.57 91.8945C195.82 91.8945 195.223 92.1406 194.777 92.6328C194.34 93.1172 194.023 93.8438 193.828 94.8125C193.641 95.7812 193.547 96.9844 193.547 98.4219ZM220.09 93.7812C221.543 93.7812 222.637 94.1562 223.371 94.9062C224.113 95.6562 224.484 96.8594 224.484 98.5156V107H221.73V99.0078C221.73 98.0234 221.539 97.2812 221.156 96.7812C220.773 96.2812 220.191 96.0312 219.41 96.0312C218.316 96.0312 217.527 96.3828 217.043 97.0859C216.566 97.7812 216.328 98.793 216.328 100.121V107H213.574V99.0078C213.574 98.3516 213.488 97.8047 213.316 97.3672C213.152 96.9219 212.898 96.5898 212.555 96.3711C212.211 96.1445 211.777 96.0312 211.254 96.0312C210.496 96.0312 209.891 96.2031 209.438 96.5469C208.992 96.8906 208.672 97.3984 208.477 98.0703C208.281 98.7344 208.184 99.5508 208.184 100.52V107H205.43V94.0273H207.574L207.961 95.7734H208.113C208.379 95.3203 208.707 94.9492 209.098 94.6602C209.496 94.3633 209.938 94.1445 210.422 94.0039C210.906 93.8555 211.41 93.7812 211.934 93.7812C212.902 93.7812 213.719 93.9531 214.383 94.2969C215.047 94.6328 215.543 95.1484 215.871 95.8438H216.082C216.488 95.1406 217.055 94.6211 217.781 94.2852C218.508 93.9492 219.277 93.7812 220.09 93.7812Z" fill="black"/>
</svg>
