<svg width="205" height="64" viewBox="0 0 205 64" fill="none" xmlns="http://www.w3.org/2000/svg">
<rect x="78" y="22" width="79" height="18" rx="3" fill="#FFEBEE"/>
<rect x="78.5" y="22.5" width="78" height="17" rx="2.5" stroke="#D32F2F" stroke-opacity="0.5"/>
<path d="M96.4766 27.4336C97.582 27.4336 98.3887 27.6504 98.8965 28.084C99.4082 28.5137 99.6641 29.1309 99.6641 29.9355C99.6641 30.2988 99.6035 30.6445 99.4824 30.9727C99.3652 31.2969 99.1738 31.584 98.9082 31.834C98.6426 32.0801 98.293 32.2754 97.8594 32.4199C97.4297 32.5605 96.9023 32.6309 96.2773 32.6309H95.2344V36H94.2383V27.4336H96.4766ZM96.3828 28.2832H95.2344V31.7754H96.166C96.7129 31.7754 97.168 31.7168 97.5312 31.5996C97.8984 31.4824 98.1738 31.293 98.3574 31.0312C98.541 30.7656 98.6328 30.4141 98.6328 29.9766C98.6328 29.4062 98.4512 28.9824 98.0879 28.7051C97.7246 28.4238 97.1562 28.2832 96.3828 28.2832ZM103.783 29.4609C104.33 29.4609 104.799 29.582 105.189 29.8242C105.58 30.0664 105.879 30.4062 106.086 30.8438C106.293 31.2773 106.396 31.7852 106.396 32.3672V32.9707H101.961C101.973 33.7246 102.16 34.2988 102.523 34.6934C102.887 35.0879 103.398 35.2852 104.059 35.2852C104.465 35.2852 104.824 35.248 105.137 35.1738C105.449 35.0996 105.773 34.9902 106.109 34.8457V35.7012C105.785 35.8457 105.463 35.9512 105.143 36.0176C104.826 36.084 104.451 36.1172 104.018 36.1172C103.4 36.1172 102.861 35.9922 102.4 35.7422C101.943 35.4883 101.588 35.1172 101.334 34.6289C101.08 34.1406 100.953 33.543 100.953 32.8359C100.953 32.1445 101.068 31.5469 101.299 31.043C101.533 30.5352 101.861 30.1445 102.283 29.8711C102.709 29.5977 103.209 29.4609 103.783 29.4609ZM103.771 30.2578C103.252 30.2578 102.838 30.4277 102.529 30.7676C102.221 31.1074 102.037 31.582 101.979 32.1914H105.377C105.373 31.8086 105.312 31.4727 105.195 31.1836C105.082 30.8906 104.908 30.6641 104.674 30.5039C104.439 30.3398 104.139 30.2578 103.771 30.2578ZM110.967 29.4609C111.096 29.4609 111.23 29.4688 111.371 29.4844C111.512 29.4961 111.637 29.5137 111.746 29.5371L111.623 30.4395C111.518 30.4121 111.4 30.3906 111.271 30.375C111.143 30.3594 111.021 30.3516 110.908 30.3516C110.65 30.3516 110.406 30.4043 110.176 30.5098C109.949 30.6113 109.75 30.7598 109.578 30.9551C109.406 31.1465 109.271 31.3789 109.174 31.6523C109.076 31.9219 109.027 32.2227 109.027 32.5547V36H108.049V29.5781H108.857L108.963 30.7617H109.004C109.137 30.5234 109.297 30.3066 109.484 30.1113C109.672 29.9121 109.889 29.7539 110.135 29.6367C110.385 29.5195 110.662 29.4609 110.967 29.4609ZM117.113 34.2422C117.113 34.6523 117.01 34.998 116.803 35.2793C116.6 35.5566 116.307 35.7656 115.924 35.9062C115.545 36.0469 115.092 36.1172 114.564 36.1172C114.115 36.1172 113.727 36.082 113.398 36.0117C113.07 35.9414 112.783 35.8418 112.537 35.7129V34.8164C112.799 34.9453 113.111 35.0625 113.475 35.168C113.838 35.2734 114.209 35.3262 114.588 35.3262C115.143 35.3262 115.545 35.2363 115.795 35.0566C116.045 34.877 116.17 34.6328 116.17 34.3242C116.17 34.1484 116.119 33.9941 116.018 33.8613C115.92 33.7246 115.754 33.5938 115.52 33.4688C115.285 33.3398 114.961 33.1992 114.547 33.0469C114.137 32.8906 113.781 32.7363 113.48 32.584C113.184 32.4277 112.953 32.2383 112.789 32.0156C112.629 31.793 112.549 31.5039 112.549 31.1484C112.549 30.6055 112.768 30.1895 113.205 29.9004C113.646 29.6074 114.225 29.4609 114.939 29.4609C115.326 29.4609 115.688 29.5 116.023 29.5781C116.363 29.6523 116.68 29.7539 116.973 29.8828L116.645 30.6621C116.379 30.5488 116.096 30.4531 115.795 30.375C115.494 30.2969 115.188 30.2578 114.875 30.2578C114.426 30.2578 114.08 30.332 113.838 30.4805C113.6 30.6289 113.48 30.832 113.48 31.0898C113.48 31.2891 113.535 31.4531 113.645 31.582C113.758 31.7109 113.938 31.832 114.184 31.9453C114.43 32.0586 114.754 32.1914 115.156 32.3438C115.559 32.4922 115.906 32.6465 116.199 32.8066C116.492 32.9629 116.717 33.1543 116.873 33.3809C117.033 33.6035 117.113 33.8906 117.113 34.2422ZM124.215 32.7773C124.215 33.3047 124.146 33.7754 124.01 34.1895C123.873 34.6035 123.676 34.9531 123.418 35.2383C123.16 35.5234 122.848 35.7422 122.48 35.8945C122.117 36.043 121.705 36.1172 121.244 36.1172C120.814 36.1172 120.42 36.043 120.061 35.8945C119.705 35.7422 119.396 35.5234 119.135 35.2383C118.877 34.9531 118.676 34.6035 118.531 34.1895C118.391 33.7754 118.32 33.3047 118.32 32.7773C118.32 32.0742 118.439 31.4766 118.678 30.9844C118.916 30.4883 119.256 30.1113 119.697 29.8535C120.143 29.5918 120.672 29.4609 121.285 29.4609C121.871 29.4609 122.383 29.5918 122.82 29.8535C123.262 30.1152 123.604 30.4941 123.846 30.9902C124.092 31.4824 124.215 32.0781 124.215 32.7773ZM119.328 32.7773C119.328 33.293 119.396 33.7402 119.533 34.1191C119.67 34.498 119.881 34.791 120.166 34.998C120.451 35.2051 120.818 35.3086 121.268 35.3086C121.713 35.3086 122.078 35.2051 122.363 34.998C122.652 34.791 122.865 34.498 123.002 34.1191C123.139 33.7402 123.207 33.293 123.207 32.7773C123.207 32.2656 123.139 31.8242 123.002 31.4531C122.865 31.0781 122.654 30.7891 122.369 30.5859C122.084 30.3828 121.715 30.2812 121.262 30.2812C120.594 30.2812 120.104 30.502 119.791 30.9434C119.482 31.3848 119.328 31.9961 119.328 32.7773ZM128.938 29.4609C129.699 29.4609 130.275 29.6484 130.666 30.0234C131.057 30.3945 131.252 30.9922 131.252 31.8164V36H130.291V31.8809C130.291 31.3457 130.168 30.9453 129.922 30.6797C129.68 30.4141 129.307 30.2812 128.803 30.2812C128.092 30.2812 127.592 30.4824 127.303 30.8848C127.014 31.2871 126.869 31.8711 126.869 32.6367V36H125.896V29.5781H126.682L126.828 30.5039H126.881C127.018 30.2773 127.191 30.0879 127.402 29.9355C127.613 29.7793 127.85 29.6621 128.111 29.584C128.373 29.502 128.648 29.4609 128.938 29.4609ZM135.658 29.4727C136.424 29.4727 136.992 29.6445 137.363 29.9883C137.734 30.332 137.92 30.8809 137.92 31.6348V36H137.211L137.023 35.0508H136.977C136.797 35.2852 136.609 35.4824 136.414 35.6426C136.219 35.7988 135.992 35.918 135.734 36C135.48 36.0781 135.168 36.1172 134.797 36.1172C134.406 36.1172 134.059 36.0488 133.754 35.9121C133.453 35.7754 133.215 35.5684 133.039 35.291C132.867 35.0137 132.781 34.6621 132.781 34.2363C132.781 33.5957 133.035 33.1035 133.543 32.7598C134.051 32.416 134.824 32.2285 135.863 32.1973L136.971 32.1504V31.7578C136.971 31.2031 136.852 30.8145 136.613 30.5918C136.375 30.3691 136.039 30.2578 135.605 30.2578C135.27 30.2578 134.949 30.3066 134.645 30.4043C134.34 30.502 134.051 30.6172 133.777 30.75L133.479 30.0117C133.768 29.8633 134.1 29.7363 134.475 29.6309C134.85 29.5254 135.244 29.4727 135.658 29.4727ZM136.959 32.8359L135.98 32.877C135.18 32.9082 134.615 33.0391 134.287 33.2695C133.959 33.5 133.795 33.8262 133.795 34.248C133.795 34.6152 133.906 34.8867 134.129 35.0625C134.352 35.2383 134.646 35.3262 135.014 35.3262C135.584 35.3262 136.051 35.168 136.414 34.8516C136.777 34.5352 136.959 34.0605 136.959 33.4277V32.8359ZM140.902 36H139.924V26.8828H140.902V36Z" fill="#D32F2F"/>
<rect x="42" width="61" height="18" rx="3" fill="#F3E5F5"/>
<rect x="42.5" y="0.5" width="60" height="17" rx="2.5" stroke="#7B1FA2" stroke-opacity="0.5"/>
<path d="M68.6445 5.43359L66.3535 14H65.3516L63.6523 8.23438C63.6016 8.07031 63.5527 7.90625 63.5059 7.74219C63.4629 7.57422 63.4219 7.41602 63.3828 7.26758C63.3438 7.11523 63.3105 6.98242 63.2832 6.86914C63.2598 6.75195 63.2422 6.66406 63.2305 6.60547C63.2227 6.66406 63.207 6.75 63.1836 6.86328C63.1641 6.97656 63.1367 7.10742 63.1016 7.25586C63.0703 7.4043 63.0312 7.5625 62.9844 7.73047C62.9414 7.89844 62.8945 8.06836 62.8438 8.24023L61.1914 14H60.1895L57.916 5.43359H58.9531L60.3301 10.8066C60.377 10.9863 60.4199 11.1641 60.459 11.3398C60.502 11.5117 60.5391 11.6797 60.5703 11.8438C60.6055 12.0078 60.6367 12.168 60.6641 12.3242C60.6914 12.4805 60.7168 12.6328 60.7402 12.7812C60.7598 12.6289 60.7852 12.4707 60.8164 12.3066C60.8477 12.1387 60.8809 11.9688 60.916 11.7969C60.9551 11.625 60.9961 11.4512 61.0391 11.2754C61.0859 11.0996 61.1348 10.9238 61.1855 10.748L62.7266 5.43359H63.752L65.3574 10.7891C65.4121 10.9727 65.4629 11.1543 65.5098 11.334C65.5566 11.5137 65.5977 11.6895 65.6328 11.8613C65.6719 12.0293 65.7051 12.1914 65.7324 12.3477C65.7637 12.5 65.791 12.6445 65.8145 12.7812C65.8418 12.5898 65.875 12.3887 65.9141 12.1777C65.9531 11.9668 65.998 11.7461 66.0488 11.5156C66.1035 11.2852 66.1621 11.0469 66.2246 10.8008L67.6016 5.43359H68.6445ZM75.3887 10.7773C75.3887 11.3047 75.3203 11.7754 75.1836 12.1895C75.0469 12.6035 74.8496 12.9531 74.5918 13.2383C74.334 13.5234 74.0215 13.7422 73.6543 13.8945C73.291 14.043 72.8789 14.1172 72.418 14.1172C71.9883 14.1172 71.5938 14.043 71.2344 13.8945C70.8789 13.7422 70.5703 13.5234 70.3086 13.2383C70.0508 12.9531 69.8496 12.6035 69.7051 12.1895C69.5645 11.7754 69.4941 11.3047 69.4941 10.7773C69.4941 10.0742 69.6133 9.47656 69.8516 8.98438C70.0898 8.48828 70.4297 8.11133 70.8711 7.85352C71.3164 7.5918 71.8457 7.46094 72.459 7.46094C73.0449 7.46094 73.5566 7.5918 73.9941 7.85352C74.4355 8.11523 74.7773 8.49414 75.0195 8.99023C75.2656 9.48242 75.3887 10.0781 75.3887 10.7773ZM70.502 10.7773C70.502 11.293 70.5703 11.7402 70.707 12.1191C70.8438 12.498 71.0547 12.791 71.3398 12.998C71.625 13.2051 71.9922 13.3086 72.4414 13.3086C72.8867 13.3086 73.252 13.2051 73.5371 12.998C73.8262 12.791 74.0391 12.498 74.1758 12.1191C74.3125 11.7402 74.3809 11.293 74.3809 10.7773C74.3809 10.2656 74.3125 9.82422 74.1758 9.45312C74.0391 9.07812 73.8281 8.78906 73.543 8.58594C73.2578 8.38281 72.8887 8.28125 72.4355 8.28125C71.7676 8.28125 71.2773 8.50195 70.9648 8.94336C70.6562 9.38477 70.502 9.99609 70.502 10.7773ZM79.9883 7.46094C80.1172 7.46094 80.252 7.46875 80.3926 7.48438C80.5332 7.49609 80.6582 7.51367 80.7676 7.53711L80.6445 8.43945C80.5391 8.41211 80.4219 8.39062 80.293 8.375C80.1641 8.35938 80.043 8.35156 79.9297 8.35156C79.6719 8.35156 79.4277 8.4043 79.1973 8.50977C78.9707 8.61133 78.7715 8.75977 78.5996 8.95508C78.4277 9.14648 78.293 9.37891 78.1953 9.65234C78.0977 9.92188 78.0488 10.2227 78.0488 10.5547V14H77.0703V7.57812H77.8789L77.9844 8.76172H78.0254C78.1582 8.52344 78.3184 8.30664 78.5059 8.11133C78.6934 7.91211 78.9102 7.75391 79.1562 7.63672C79.4062 7.51953 79.6836 7.46094 79.9883 7.46094ZM82.9473 4.88281V9.61719C82.9473 9.77344 82.9414 9.96484 82.9297 10.1914C82.918 10.4141 82.9082 10.6113 82.9004 10.7832H82.9414C83.0234 10.6816 83.1426 10.5312 83.2988 10.332C83.459 10.1328 83.5938 9.97266 83.7031 9.85156L85.8359 7.57812H86.9785L84.3945 10.3203L87.166 14H85.9941L83.7266 10.959L82.9473 11.6738V14H81.9805V4.88281H82.9473Z" fill="#7B1FA2"/>
<rect y="22" width="73" height="18" rx="3" fill="#E0F7FA"/>
<rect x="0.5" y="22.5" width="72" height="17" rx="2.5" stroke="#0097A7" stroke-opacity="0.5"/>
<path d="M14.6094 30.7324L14.2285 32.7246H15.8867V33.4688H14.082L13.584 36H12.793L13.291 33.4688H11.5039L11.0234 36H10.2441L10.707 33.4688H9.17188V32.7246H10.8535L11.2461 30.7324H9.61719V30H11.3809L11.8672 27.4336H12.6699L12.1836 30H13.9824L14.4688 27.4336H15.2422L14.7559 30H16.3086V30.7324H14.6094ZM11.6445 32.7246H13.4316L13.8184 30.7324H12.0312L11.6445 32.7246ZM24.623 29.4609C25.3301 29.4609 25.8633 29.6465 26.2227 30.0176C26.582 30.3848 26.7617 30.9766 26.7617 31.793V36H25.8008V31.8398C25.8008 31.3203 25.6875 30.9316 25.4609 30.6738C25.2383 30.4121 24.9062 30.2812 24.4648 30.2812C23.8438 30.2812 23.3926 30.4609 23.1113 30.8203C22.8301 31.1797 22.6895 31.709 22.6895 32.4082V36H21.7227V31.8398C21.7227 31.4922 21.6719 31.2031 21.5703 30.9727C21.4727 30.7422 21.3242 30.5703 21.125 30.457C20.9297 30.3398 20.6816 30.2812 20.3809 30.2812C19.9551 30.2812 19.6133 30.3691 19.3555 30.5449C19.0977 30.7207 18.9102 30.9824 18.793 31.3301C18.6797 31.6738 18.623 32.0977 18.623 32.6016V36H17.6504V29.5781H18.4355L18.582 30.4863H18.6348C18.7637 30.2637 18.9258 30.0762 19.1211 29.9238C19.3164 29.7715 19.5352 29.6562 19.7773 29.5781C20.0195 29.5 20.2773 29.4609 20.5508 29.4609C21.0391 29.4609 21.4473 29.5527 21.7754 29.7363C22.1074 29.916 22.3477 30.1914 22.4961 30.5625H22.5488C22.7598 30.1914 23.0488 29.916 23.416 29.7363C23.7832 29.5527 24.1855 29.4609 24.623 29.4609ZM34.2969 32.7773C34.2969 33.3047 34.2285 33.7754 34.0918 34.1895C33.9551 34.6035 33.7578 34.9531 33.5 35.2383C33.2422 35.5234 32.9297 35.7422 32.5625 35.8945C32.1992 36.043 31.7871 36.1172 31.3262 36.1172C30.8965 36.1172 30.502 36.043 30.1426 35.8945C29.7871 35.7422 29.4785 35.5234 29.2168 35.2383C28.959 34.9531 28.7578 34.6035 28.6133 34.1895C28.4727 33.7754 28.4023 33.3047 28.4023 32.7773C28.4023 32.0742 28.5215 31.4766 28.7598 30.9844C28.998 30.4883 29.3379 30.1113 29.7793 29.8535C30.2246 29.5918 30.7539 29.4609 31.3672 29.4609C31.9531 29.4609 32.4648 29.5918 32.9023 29.8535C33.3438 30.1152 33.6855 30.4941 33.9277 30.9902C34.1738 31.4824 34.2969 32.0781 34.2969 32.7773ZM29.4102 32.7773C29.4102 33.293 29.4785 33.7402 29.6152 34.1191C29.752 34.498 29.9629 34.791 30.248 34.998C30.5332 35.2051 30.9004 35.3086 31.3496 35.3086C31.7949 35.3086 32.1602 35.2051 32.4453 34.998C32.7344 34.791 32.9473 34.498 33.084 34.1191C33.2207 33.7402 33.2891 33.293 33.2891 32.7773C33.2891 32.2656 33.2207 31.8242 33.084 31.4531C32.9473 31.0781 32.7363 30.7891 32.4512 30.5859C32.166 30.3828 31.7969 30.2812 31.3438 30.2812C30.6758 30.2812 30.1855 30.502 29.873 30.9434C29.5645 31.3848 29.4102 31.9961 29.4102 32.7773ZM38.8965 29.4609C39.0254 29.4609 39.1602 29.4688 39.3008 29.4844C39.4414 29.4961 39.5664 29.5137 39.6758 29.5371L39.5527 30.4395C39.4473 30.4121 39.3301 30.3906 39.2012 30.375C39.0723 30.3594 38.9512 30.3516 38.8379 30.3516C38.5801 30.3516 38.3359 30.4043 38.1055 30.5098C37.8789 30.6113 37.6797 30.7598 37.5078 30.9551C37.3359 31.1465 37.2012 31.3789 37.1035 31.6523C37.0059 31.9219 36.957 32.2227 36.957 32.5547V36H35.9785V29.5781H36.7871L36.8926 30.7617H36.9336C37.0664 30.5234 37.2266 30.3066 37.4141 30.1113C37.6016 29.9121 37.8184 29.7539 38.0645 29.6367C38.3145 29.5195 38.5918 29.4609 38.8965 29.4609ZM43.9297 29.4609C44.6914 29.4609 45.2676 29.6484 45.6582 30.0234C46.0488 30.3945 46.2441 30.9922 46.2441 31.8164V36H45.2832V31.8809C45.2832 31.3457 45.1602 30.9453 44.9141 30.6797C44.6719 30.4141 44.2988 30.2812 43.7949 30.2812C43.084 30.2812 42.584 30.4824 42.2949 30.8848C42.0059 31.2871 41.8613 31.8711 41.8613 32.6367V36H40.8887V29.5781H41.6738L41.8203 30.5039H41.873C42.0098 30.2773 42.1836 30.0879 42.3945 29.9355C42.6055 29.7793 42.8418 29.6621 43.1035 29.584C43.3652 29.502 43.6406 29.4609 43.9297 29.4609ZM49.2207 29.5781V36H48.248V29.5781H49.2207ZM48.7461 27.1758C48.9062 27.1758 49.043 27.2285 49.1562 27.334C49.2734 27.4355 49.332 27.5957 49.332 27.8145C49.332 28.0293 49.2734 28.1895 49.1562 28.2949C49.043 28.4004 48.9062 28.4531 48.7461 28.4531C48.5781 28.4531 48.4375 28.4004 48.3242 28.2949C48.2148 28.1895 48.1602 28.0293 48.1602 27.8145C48.1602 27.5957 48.2148 27.4355 48.3242 27.334C48.4375 27.2285 48.5781 27.1758 48.7461 27.1758ZM54.3242 29.4609C55.0859 29.4609 55.6621 29.6484 56.0527 30.0234C56.4434 30.3945 56.6387 30.9922 56.6387 31.8164V36H55.6777V31.8809C55.6777 31.3457 55.5547 30.9453 55.3086 30.6797C55.0664 30.4141 54.6934 30.2812 54.1895 30.2812C53.4785 30.2812 52.9785 30.4824 52.6895 30.8848C52.4004 31.2871 52.2559 31.8711 52.2559 32.6367V36H51.2832V29.5781H52.0684L52.2148 30.5039H52.2676C52.4043 30.2773 52.5781 30.0879 52.7891 29.9355C53 29.7793 53.2363 29.6621 53.498 29.584C53.7598 29.502 54.0352 29.4609 54.3242 29.4609ZM60.4355 38.8828C59.5918 38.8828 58.9414 38.7246 58.4844 38.4082C58.0273 38.0957 57.7988 37.6562 57.7988 37.0898C57.7988 36.6875 57.9258 36.3438 58.1797 36.0586C58.4375 35.7734 58.793 35.584 59.2461 35.4902C59.0781 35.4121 58.9336 35.2949 58.8125 35.1387C58.6953 34.9824 58.6367 34.8027 58.6367 34.5996C58.6367 34.3652 58.7012 34.1602 58.8301 33.9844C58.9629 33.8047 59.1641 33.6328 59.4336 33.4688C59.0977 33.332 58.8242 33.1016 58.6133 32.7773C58.4062 32.4492 58.3027 32.0684 58.3027 31.6348C58.3027 31.1738 58.3984 30.7812 58.5898 30.457C58.7812 30.1289 59.0586 29.8789 59.4219 29.707C59.7852 29.5352 60.2246 29.4492 60.7402 29.4492C60.8535 29.4492 60.9668 29.4551 61.0801 29.4668C61.1973 29.4746 61.3086 29.4883 61.4141 29.5078C61.5195 29.5234 61.6113 29.543 61.6895 29.5664H63.8926V30.1934L62.709 30.3398C62.8262 30.4922 62.9238 30.6758 63.002 30.8906C63.0801 31.1055 63.1191 31.3438 63.1191 31.6055C63.1191 32.2461 62.9023 32.7559 62.4688 33.1348C62.0352 33.5098 61.4395 33.6973 60.6816 33.6973C60.502 33.6973 60.3184 33.6816 60.1309 33.6504C59.9395 33.7559 59.793 33.873 59.6914 34.002C59.5938 34.1309 59.5449 34.2793 59.5449 34.4473C59.5449 34.5723 59.582 34.6719 59.6562 34.7461C59.7344 34.8203 59.8457 34.875 59.9902 34.9102C60.1348 34.9414 60.3086 34.957 60.5117 34.957H61.6426C62.3418 34.957 62.877 35.1035 63.248 35.3965C63.623 35.6895 63.8105 36.1172 63.8105 36.6797C63.8105 37.3906 63.5215 37.9355 62.9434 38.3145C62.3652 38.6934 61.5293 38.8828 60.4355 38.8828ZM60.4648 38.1211C60.9961 38.1211 61.4355 38.0664 61.7832 37.957C62.1348 37.8516 62.3965 37.6973 62.5684 37.4941C62.7441 37.2949 62.832 37.0566 62.832 36.7793C62.832 36.5215 62.7734 36.3262 62.6562 36.1934C62.5391 36.0645 62.3672 35.9785 62.1406 35.9355C61.9141 35.8887 61.6367 35.8652 61.3086 35.8652H60.1953C59.9062 35.8652 59.6543 35.9102 59.4395 36C59.2246 36.0898 59.0586 36.2227 58.9414 36.3984C58.8281 36.5742 58.7715 36.793 58.7715 37.0547C58.7715 37.4023 58.918 37.666 59.2109 37.8457C59.5039 38.0293 59.9219 38.1211 60.4648 38.1211ZM60.7168 32.9883C61.1816 32.9883 61.5312 32.8711 61.7656 32.6367C62 32.4023 62.1172 32.0605 62.1172 31.6113C62.1172 31.1309 61.998 30.7715 61.7598 30.5332C61.5215 30.291 61.1699 30.1699 60.7051 30.1699C60.2598 30.1699 59.916 30.2949 59.6738 30.5449C59.4355 30.791 59.3164 31.1523 59.3164 31.6289C59.3164 32.0664 59.4375 32.4023 59.6797 32.6367C59.9219 32.8711 60.2676 32.9883 60.7168 32.9883Z" fill="#0097A7"/>
<rect x="37" y="46" width="73" height="18" rx="3" fill="#FFFDE7"/>
<rect x="37.5" y="46.5" width="72" height="17" rx="2.5" stroke="#896B22" stroke-opacity="0.5"/>
<path d="M57.334 51.4336C58.4395 51.4336 59.2461 51.6504 59.7539 52.084C60.2656 52.5137 60.5215 53.1309 60.5215 53.9355C60.5215 54.2988 60.4609 54.6445 60.3398 54.9727C60.2227 55.2969 60.0312 55.584 59.7656 55.834C59.5 56.0801 59.1504 56.2754 58.7168 56.4199C58.2871 56.5605 57.7598 56.6309 57.1348 56.6309H56.0918V60H55.0957V51.4336H57.334ZM57.2402 52.2832H56.0918V55.7754H57.0234C57.5703 55.7754 58.0254 55.7168 58.3887 55.5996C58.7559 55.4824 59.0312 55.293 59.2148 55.0312C59.3984 54.7656 59.4902 54.4141 59.4902 53.9766C59.4902 53.4062 59.3086 52.9824 58.9453 52.7051C58.582 52.4238 58.0137 52.2832 57.2402 52.2832ZM65.0859 53.4609C65.2148 53.4609 65.3496 53.4688 65.4902 53.4844C65.6309 53.4961 65.7559 53.5137 65.8652 53.5371L65.7422 54.4395C65.6367 54.4121 65.5195 54.3906 65.3906 54.375C65.2617 54.3594 65.1406 54.3516 65.0273 54.3516C64.7695 54.3516 64.5254 54.4043 64.2949 54.5098C64.0684 54.6113 63.8691 54.7598 63.6973 54.9551C63.5254 55.1465 63.3906 55.3789 63.293 55.6523C63.1953 55.9219 63.1465 56.2227 63.1465 56.5547V60H62.168V53.5781H62.9766L63.082 54.7617H63.123C63.2559 54.5234 63.416 54.3066 63.6035 54.1113C63.791 53.9121 64.0078 53.7539 64.2539 53.6367C64.5039 53.5195 64.7812 53.4609 65.0859 53.4609ZM72.6152 56.7773C72.6152 57.3047 72.5469 57.7754 72.4102 58.1895C72.2734 58.6035 72.0762 58.9531 71.8184 59.2383C71.5605 59.5234 71.248 59.7422 70.8809 59.8945C70.5176 60.043 70.1055 60.1172 69.6445 60.1172C69.2148 60.1172 68.8203 60.043 68.4609 59.8945C68.1055 59.7422 67.7969 59.5234 67.5352 59.2383C67.2773 58.9531 67.0762 58.6035 66.9316 58.1895C66.791 57.7754 66.7207 57.3047 66.7207 56.7773C66.7207 56.0742 66.8398 55.4766 67.0781 54.9844C67.3164 54.4883 67.6562 54.1113 68.0977 53.8535C68.543 53.5918 69.0723 53.4609 69.6855 53.4609C70.2715 53.4609 70.7832 53.5918 71.2207 53.8535C71.6621 54.1152 72.0039 54.4941 72.2461 54.9902C72.4922 55.4824 72.6152 56.0781 72.6152 56.7773ZM67.7285 56.7773C67.7285 57.293 67.7969 57.7402 67.9336 58.1191C68.0703 58.498 68.2812 58.791 68.5664 58.998C68.8516 59.2051 69.2188 59.3086 69.668 59.3086C70.1133 59.3086 70.4785 59.2051 70.7637 58.998C71.0527 58.791 71.2656 58.498 71.4023 58.1191C71.5391 57.7402 71.6074 57.293 71.6074 56.7773C71.6074 56.2656 71.5391 55.8242 71.4023 55.4531C71.2656 55.0781 71.0547 54.7891 70.7695 54.5859C70.4844 54.3828 70.1152 54.2812 69.6621 54.2812C68.9941 54.2812 68.5039 54.502 68.1914 54.9434C67.8828 55.3848 67.7285 55.9961 67.7285 56.7773ZM73.5234 62.8828C73.3242 62.8828 73.1504 62.8672 73.002 62.8359C72.8535 62.8086 72.7246 62.7754 72.6152 62.7363V61.9453C72.7363 61.9844 72.8594 62.0137 72.9844 62.0332C73.1094 62.0566 73.25 62.0684 73.4062 62.0684C73.6719 62.0684 73.8867 61.9941 74.0508 61.8457C74.2148 61.6973 74.2969 61.4277 74.2969 61.0371V53.5781H75.2695V61.0137C75.2695 61.4043 75.207 61.7383 75.082 62.0156C74.957 62.2969 74.7656 62.5117 74.5078 62.6602C74.25 62.8086 73.9219 62.8828 73.5234 62.8828ZM74.209 51.8145C74.209 51.5957 74.2637 51.4355 74.373 51.334C74.4863 51.2285 74.627 51.1758 74.7949 51.1758C74.9551 51.1758 75.0918 51.2285 75.2051 51.334C75.3223 51.4355 75.3809 51.5957 75.3809 51.8145C75.3809 52.0293 75.3223 52.1895 75.2051 52.2949C75.0918 52.4004 74.9551 52.4531 74.7949 52.4531C74.627 52.4531 74.4863 52.4004 74.373 52.2949C74.2637 52.1895 74.209 52.0293 74.209 51.8145ZM79.8047 53.4609C80.3516 53.4609 80.8203 53.582 81.2109 53.8242C81.6016 54.0664 81.9004 54.4062 82.1074 54.8438C82.3145 55.2773 82.418 55.7852 82.418 56.3672V56.9707H77.9824C77.9941 57.7246 78.1816 58.2988 78.5449 58.6934C78.9082 59.0879 79.4199 59.2852 80.0801 59.2852C80.4863 59.2852 80.8457 59.248 81.1582 59.1738C81.4707 59.0996 81.7949 58.9902 82.1309 58.8457V59.7012C81.8066 59.8457 81.4844 59.9512 81.1641 60.0176C80.8477 60.084 80.4727 60.1172 80.0391 60.1172C79.4219 60.1172 78.8828 59.9922 78.4219 59.7422C77.9648 59.4883 77.6094 59.1172 77.3555 58.6289C77.1016 58.1406 76.9746 57.543 76.9746 56.8359C76.9746 56.1445 77.0898 55.5469 77.3203 55.043C77.5547 54.5352 77.8828 54.1445 78.3047 53.8711C78.7305 53.5977 79.2305 53.4609 79.8047 53.4609ZM79.793 54.2578C79.2734 54.2578 78.8594 54.4277 78.5508 54.7676C78.2422 55.1074 78.0586 55.582 78 56.1914H81.3984C81.3945 55.8086 81.334 55.4727 81.2168 55.1836C81.1035 54.8906 80.9297 54.6641 80.6953 54.5039C80.4609 54.3398 80.1602 54.2578 79.793 54.2578ZM86.6426 60.1172C86.0645 60.1172 85.5547 59.998 85.1133 59.7598C84.6719 59.5215 84.3281 59.1582 84.082 58.6699C83.8359 58.1816 83.7129 57.5664 83.7129 56.8242C83.7129 56.0469 83.8418 55.4121 84.0996 54.9199C84.3613 54.4238 84.7207 54.0566 85.1777 53.8184C85.6348 53.5801 86.1543 53.4609 86.7363 53.4609C87.0566 53.4609 87.3652 53.4941 87.6621 53.5605C87.9629 53.623 88.209 53.7031 88.4004 53.8008L88.1074 54.6152C87.9121 54.5371 87.6855 54.4668 87.4277 54.4043C87.1738 54.3418 86.9355 54.3105 86.7129 54.3105C86.2676 54.3105 85.8965 54.4062 85.5996 54.5977C85.3066 54.7891 85.0859 55.0703 84.9375 55.4414C84.793 55.8125 84.7207 56.2695 84.7207 56.8125C84.7207 57.332 84.791 57.7754 84.9316 58.1426C85.0762 58.5098 85.2891 58.791 85.5703 58.9863C85.8555 59.1777 86.2109 59.2734 86.6367 59.2734C86.9766 59.2734 87.2832 59.2383 87.5566 59.168C87.8301 59.0938 88.0781 59.0078 88.3008 58.9102V59.7773C88.0859 59.8867 87.8457 59.9707 87.5801 60.0293C87.3184 60.0879 87.0059 60.1172 86.6426 60.1172ZM91.8984 59.3203C92.0586 59.3203 92.2227 59.3066 92.3906 59.2793C92.5586 59.252 92.6953 59.2188 92.8008 59.1797V59.9355C92.6875 59.9863 92.5293 60.0293 92.3262 60.0645C92.127 60.0996 91.9316 60.1172 91.7402 60.1172C91.4004 60.1172 91.0918 60.0586 90.8145 59.9414C90.5371 59.8203 90.3145 59.6172 90.1465 59.332C89.9824 59.0469 89.9004 58.6523 89.9004 58.1484V54.3398H88.9863V53.8652L89.9062 53.4844L90.293 52.0898H90.8789V53.5781H92.7598V54.3398H90.8789V58.1191C90.8789 58.5215 90.9707 58.8223 91.1543 59.0215C91.3418 59.2207 91.5898 59.3203 91.8984 59.3203Z" fill="#896B22"/>
<rect x="115" y="46" width="73" height="18" rx="3" fill="#E8F5E9"/>
<rect x="115.5" y="46.5" width="72" height="17" rx="2.5" stroke="#388E3C" stroke-opacity="0.5"/>
<path d="M132.914 54.7324L132.533 56.7246H134.191V57.4688H132.387L131.889 60H131.098L131.596 57.4688H129.809L129.328 60H128.549L129.012 57.4688H127.477V56.7246H129.158L129.551 54.7324H127.922V54H129.686L130.172 51.4336H130.975L130.488 54H132.287L132.773 51.4336H133.547L133.061 54H134.613V54.7324H132.914ZM129.949 56.7246H131.736L132.123 54.7324H130.336L129.949 56.7246ZM138.873 53.4609C139.002 53.4609 139.137 53.4688 139.277 53.4844C139.418 53.4961 139.543 53.5137 139.652 53.5371L139.529 54.4395C139.424 54.4121 139.307 54.3906 139.178 54.375C139.049 54.3594 138.928 54.3516 138.814 54.3516C138.557 54.3516 138.312 54.4043 138.082 54.5098C137.855 54.6113 137.656 54.7598 137.484 54.9551C137.312 55.1465 137.178 55.3789 137.08 55.6523C136.982 55.9219 136.934 56.2227 136.934 56.5547V60H135.955V53.5781H136.764L136.869 54.7617H136.91C137.043 54.5234 137.203 54.3066 137.391 54.1113C137.578 53.9121 137.795 53.7539 138.041 53.6367C138.291 53.5195 138.568 53.4609 138.873 53.4609ZM146.402 56.7773C146.402 57.3047 146.334 57.7754 146.197 58.1895C146.061 58.6035 145.863 58.9531 145.605 59.2383C145.348 59.5234 145.035 59.7422 144.668 59.8945C144.305 60.043 143.893 60.1172 143.432 60.1172C143.002 60.1172 142.607 60.043 142.248 59.8945C141.893 59.7422 141.584 59.5234 141.322 59.2383C141.064 58.9531 140.863 58.6035 140.719 58.1895C140.578 57.7754 140.508 57.3047 140.508 56.7773C140.508 56.0742 140.627 55.4766 140.865 54.9844C141.104 54.4883 141.443 54.1113 141.885 53.8535C142.33 53.5918 142.859 53.4609 143.473 53.4609C144.059 53.4609 144.57 53.5918 145.008 53.8535C145.449 54.1152 145.791 54.4941 146.033 54.9902C146.279 55.4824 146.402 56.0781 146.402 56.7773ZM141.516 56.7773C141.516 57.293 141.584 57.7402 141.721 58.1191C141.857 58.498 142.068 58.791 142.354 58.998C142.639 59.2051 143.006 59.3086 143.455 59.3086C143.9 59.3086 144.266 59.2051 144.551 58.998C144.84 58.791 145.053 58.498 145.189 58.1191C145.326 57.7402 145.395 57.293 145.395 56.7773C145.395 56.2656 145.326 55.8242 145.189 55.4531C145.053 55.0781 144.842 54.7891 144.557 54.5859C144.271 54.3828 143.902 54.2812 143.449 54.2812C142.781 54.2812 142.291 54.502 141.979 54.9434C141.67 55.3848 141.516 55.9961 141.516 56.7773ZM153.387 53.5781V60H152.59L152.449 59.0977H152.396C152.264 59.3203 152.092 59.5078 151.881 59.6602C151.67 59.8125 151.432 59.9258 151.166 60C150.904 60.0781 150.625 60.1172 150.328 60.1172C149.82 60.1172 149.395 60.0352 149.051 59.8711C148.707 59.707 148.447 59.4531 148.271 59.1094C148.1 58.7656 148.014 58.3242 148.014 57.7852V53.5781H148.998V57.7148C148.998 58.25 149.119 58.6504 149.361 58.916C149.604 59.1777 149.973 59.3086 150.469 59.3086C150.945 59.3086 151.324 59.2188 151.605 59.0391C151.891 58.8594 152.096 58.5957 152.221 58.248C152.346 57.8965 152.408 57.4668 152.408 56.959V53.5781H153.387ZM157.518 59.3203C157.678 59.3203 157.842 59.3066 158.01 59.2793C158.178 59.252 158.314 59.2188 158.42 59.1797V59.9355C158.307 59.9863 158.148 60.0293 157.945 60.0645C157.746 60.0996 157.551 60.1172 157.359 60.1172C157.02 60.1172 156.711 60.0586 156.434 59.9414C156.156 59.8203 155.934 59.6172 155.766 59.332C155.602 59.0469 155.52 58.6523 155.52 58.1484V54.3398H154.605V53.8652L155.525 53.4844L155.912 52.0898H156.498V53.5781H158.379V54.3398H156.498V58.1191C156.498 58.5215 156.59 58.8223 156.773 59.0215C156.961 59.2207 157.209 59.3203 157.518 59.3203ZM160.693 53.5781V60H159.721V53.5781H160.693ZM160.219 51.1758C160.379 51.1758 160.516 51.2285 160.629 51.334C160.746 51.4355 160.805 51.5957 160.805 51.8145C160.805 52.0293 160.746 52.1895 160.629 52.2949C160.516 52.4004 160.379 52.4531 160.219 52.4531C160.051 52.4531 159.91 52.4004 159.797 52.2949C159.688 52.1895 159.633 52.0293 159.633 51.8145C159.633 51.5957 159.688 51.4355 159.797 51.334C159.91 51.2285 160.051 51.1758 160.219 51.1758ZM165.797 53.4609C166.559 53.4609 167.135 53.6484 167.525 54.0234C167.916 54.3945 168.111 54.9922 168.111 55.8164V60H167.15V55.8809C167.15 55.3457 167.027 54.9453 166.781 54.6797C166.539 54.4141 166.166 54.2812 165.662 54.2812C164.951 54.2812 164.451 54.4824 164.162 54.8848C163.873 55.2871 163.729 55.8711 163.729 56.6367V60H162.756V53.5781H163.541L163.688 54.5039H163.74C163.877 54.2773 164.051 54.0879 164.262 53.9355C164.473 53.7793 164.709 53.6621 164.971 53.584C165.232 53.502 165.508 53.4609 165.797 53.4609ZM172.588 53.4609C173.135 53.4609 173.604 53.582 173.994 53.8242C174.385 54.0664 174.684 54.4062 174.891 54.8438C175.098 55.2773 175.201 55.7852 175.201 56.3672V56.9707H170.766C170.777 57.7246 170.965 58.2988 171.328 58.6934C171.691 59.0879 172.203 59.2852 172.863 59.2852C173.27 59.2852 173.629 59.248 173.941 59.1738C174.254 59.0996 174.578 58.9902 174.914 58.8457V59.7012C174.59 59.8457 174.268 59.9512 173.947 60.0176C173.631 60.084 173.256 60.1172 172.822 60.1172C172.205 60.1172 171.666 59.9922 171.205 59.7422C170.748 59.4883 170.393 59.1172 170.139 58.6289C169.885 58.1406 169.758 57.543 169.758 56.8359C169.758 56.1445 169.873 55.5469 170.104 55.043C170.338 54.5352 170.666 54.1445 171.088 53.8711C171.514 53.5977 172.014 53.4609 172.588 53.4609ZM172.576 54.2578C172.057 54.2578 171.643 54.4277 171.334 54.7676C171.025 55.1074 170.842 55.582 170.783 56.1914H174.182C174.178 55.8086 174.117 55.4727 174 55.1836C173.887 54.8906 173.713 54.6641 173.479 54.5039C173.244 54.3398 172.943 54.2578 172.576 54.2578Z" fill="#388E3C"/>
<rect x="162" y="22" width="43" height="18" rx="3" fill="#EFEBE9"/>
<rect x="162.5" y="22.5" width="42" height="17" rx="2.5" stroke="#4E342E" stroke-opacity="0.5"/>
<path d="M176.117 30.7324L175.736 32.7246H177.395V33.4688H175.59L175.092 36H174.301L174.799 33.4688H173.012L172.531 36H171.752L172.215 33.4688H170.68V32.7246H172.361L172.754 30.7324H171.125V30H172.889L173.375 27.4336H174.178L173.691 30H175.49L175.977 27.4336H176.75L176.264 30H177.816V30.7324H176.117ZM173.152 32.7246H174.939L175.326 30.7324H173.539L173.152 32.7246ZM181.73 36.1172C181.152 36.1172 180.643 35.998 180.201 35.7598C179.76 35.5215 179.416 35.1582 179.17 34.6699C178.924 34.1816 178.801 33.5664 178.801 32.8242C178.801 32.0469 178.93 31.4121 179.188 30.9199C179.449 30.4238 179.809 30.0566 180.266 29.8184C180.723 29.5801 181.242 29.4609 181.824 29.4609C182.145 29.4609 182.453 29.4941 182.75 29.5605C183.051 29.623 183.297 29.7031 183.488 29.8008L183.195 30.6152C183 30.5371 182.773 30.4668 182.516 30.4043C182.262 30.3418 182.023 30.3105 181.801 30.3105C181.355 30.3105 180.984 30.4062 180.688 30.5977C180.395 30.7891 180.174 31.0703 180.025 31.4414C179.881 31.8125 179.809 32.2695 179.809 32.8125C179.809 33.332 179.879 33.7754 180.02 34.1426C180.164 34.5098 180.377 34.791 180.658 34.9863C180.943 35.1777 181.299 35.2734 181.725 35.2734C182.064 35.2734 182.371 35.2383 182.645 35.168C182.918 35.0938 183.166 35.0078 183.389 34.9102V35.7773C183.174 35.8867 182.934 35.9707 182.668 36.0293C182.406 36.0879 182.094 36.1172 181.73 36.1172ZM187.314 29.4727C188.08 29.4727 188.648 29.6445 189.02 29.9883C189.391 30.332 189.576 30.8809 189.576 31.6348V36H188.867L188.68 35.0508H188.633C188.453 35.2852 188.266 35.4824 188.07 35.6426C187.875 35.7988 187.648 35.918 187.391 36C187.137 36.0781 186.824 36.1172 186.453 36.1172C186.062 36.1172 185.715 36.0488 185.41 35.9121C185.109 35.7754 184.871 35.5684 184.695 35.291C184.523 35.0137 184.438 34.6621 184.438 34.2363C184.438 33.5957 184.691 33.1035 185.199 32.7598C185.707 32.416 186.48 32.2285 187.52 32.1973L188.627 32.1504V31.7578C188.627 31.2031 188.508 30.8145 188.27 30.5918C188.031 30.3691 187.695 30.2578 187.262 30.2578C186.926 30.2578 186.605 30.3066 186.301 30.4043C185.996 30.502 185.707 30.6172 185.434 30.75L185.135 30.0117C185.424 29.8633 185.756 29.7363 186.131 29.6309C186.506 29.5254 186.9 29.4727 187.314 29.4727ZM188.615 32.8359L187.637 32.877C186.836 32.9082 186.271 33.0391 185.943 33.2695C185.615 33.5 185.451 33.8262 185.451 34.248C185.451 34.6152 185.562 34.8867 185.785 35.0625C186.008 35.2383 186.303 35.3262 186.67 35.3262C187.24 35.3262 187.707 35.168 188.07 34.8516C188.434 34.5352 188.615 34.0605 188.615 33.4277V32.8359ZM192.559 36H191.58V26.8828H192.559V36ZM195.594 36H194.615V26.8828H195.594V36Z" fill="#4E342E"/>
<rect x="108" width="61" height="18" rx="3" fill="#E8EAF6"/>
<rect x="108.5" y="0.5" width="60" height="17" rx="2.5" stroke="#303F9F" stroke-opacity="0.5"/>
<path d="M129.207 14H128.211V9.96289H123.711V14H122.715V5.43359H123.711V9.08398H128.211V5.43359H129.207V14ZM136.953 10.7773C136.953 11.3047 136.885 11.7754 136.748 12.1895C136.611 12.6035 136.414 12.9531 136.156 13.2383C135.898 13.5234 135.586 13.7422 135.219 13.8945C134.855 14.043 134.443 14.1172 133.982 14.1172C133.553 14.1172 133.158 14.043 132.799 13.8945C132.443 13.7422 132.135 13.5234 131.873 13.2383C131.615 12.9531 131.414 12.6035 131.27 12.1895C131.129 11.7754 131.059 11.3047 131.059 10.7773C131.059 10.0742 131.178 9.47656 131.416 8.98438C131.654 8.48828 131.994 8.11133 132.436 7.85352C132.881 7.5918 133.41 7.46094 134.023 7.46094C134.609 7.46094 135.121 7.5918 135.559 7.85352C136 8.11523 136.342 8.49414 136.584 8.99023C136.83 9.48242 136.953 10.0781 136.953 10.7773ZM132.066 10.7773C132.066 11.293 132.135 11.7402 132.271 12.1191C132.408 12.498 132.619 12.791 132.904 12.998C133.189 13.2051 133.557 13.3086 134.006 13.3086C134.451 13.3086 134.816 13.2051 135.102 12.998C135.391 12.791 135.604 12.498 135.74 12.1191C135.877 11.7402 135.945 11.293 135.945 10.7773C135.945 10.2656 135.877 9.82422 135.74 9.45312C135.604 9.07812 135.393 8.78906 135.107 8.58594C134.822 8.38281 134.453 8.28125 134 8.28125C133.332 8.28125 132.842 8.50195 132.529 8.94336C132.221 9.38477 132.066 9.99609 132.066 10.7773ZM145.607 7.46094C146.314 7.46094 146.848 7.64648 147.207 8.01758C147.566 8.38477 147.746 8.97656 147.746 9.79297V14H146.785V9.83984C146.785 9.32031 146.672 8.93164 146.445 8.67383C146.223 8.41211 145.891 8.28125 145.449 8.28125C144.828 8.28125 144.377 8.46094 144.096 8.82031C143.814 9.17969 143.674 9.70898 143.674 10.4082V14H142.707V9.83984C142.707 9.49219 142.656 9.20312 142.555 8.97266C142.457 8.74219 142.309 8.57031 142.109 8.45703C141.914 8.33984 141.666 8.28125 141.365 8.28125C140.939 8.28125 140.598 8.36914 140.34 8.54492C140.082 8.7207 139.895 8.98242 139.777 9.33008C139.664 9.67383 139.607 10.0977 139.607 10.6016V14H138.635V7.57812H139.42L139.566 8.48633H139.619C139.748 8.26367 139.91 8.07617 140.105 7.92383C140.301 7.77148 140.52 7.65625 140.762 7.57812C141.004 7.5 141.262 7.46094 141.535 7.46094C142.023 7.46094 142.432 7.55273 142.76 7.73633C143.092 7.91602 143.332 8.19141 143.48 8.5625H143.533C143.744 8.19141 144.033 7.91602 144.4 7.73633C144.768 7.55273 145.17 7.46094 145.607 7.46094ZM152.217 7.46094C152.764 7.46094 153.232 7.58203 153.623 7.82422C154.014 8.06641 154.312 8.40625 154.52 8.84375C154.727 9.27734 154.83 9.78516 154.83 10.3672V10.9707H150.395C150.406 11.7246 150.594 12.2988 150.957 12.6934C151.32 13.0879 151.832 13.2852 152.492 13.2852C152.898 13.2852 153.258 13.248 153.57 13.1738C153.883 13.0996 154.207 12.9902 154.543 12.8457V13.7012C154.219 13.8457 153.896 13.9512 153.576 14.0176C153.26 14.084 152.885 14.1172 152.451 14.1172C151.834 14.1172 151.295 13.9922 150.834 13.7422C150.377 13.4883 150.021 13.1172 149.768 12.6289C149.514 12.1406 149.387 11.543 149.387 10.8359C149.387 10.1445 149.502 9.54688 149.732 9.04297C149.967 8.53516 150.295 8.14453 150.717 7.87109C151.143 7.59766 151.643 7.46094 152.217 7.46094ZM152.205 8.25781C151.686 8.25781 151.271 8.42773 150.963 8.76758C150.654 9.10742 150.471 9.58203 150.412 10.1914H153.811C153.807 9.80859 153.746 9.47266 153.629 9.18359C153.516 8.89062 153.342 8.66406 153.107 8.50391C152.873 8.33984 152.572 8.25781 152.205 8.25781Z" fill="#303F9F"/>
</svg>
