<svg width="24" height="24" viewBox="0 0 56 56" fill="none" xmlns="http://www.w3.org/2000/svg">
  <path d="M7 14C7 11.4227 9.08934 9.33333 11.6667 9.33333C14.244 9.33333 16.3333 11.4227 16.3333 14C16.3333 16.5773 14.244 18.6667 11.6667 18.6667C9.08934 18.6667 7 16.5773 7 14Z" fill="#48C9B0"/>
  <path d="M7 30.3333C7 27.756 9.08934 25.6667 11.6667 25.6667C14.244 25.6667 16.3333 27.756 16.3333 30.3333V42C16.3333 44.5773 14.244 46.6667 11.6667 46.6667C9.08934 46.6667 7 44.5773 7 42V30.3333Z" fill="#52BE80"/>
  <path d="M23.3333 51.3333C23.3333 53.9107 25.4227 56 28 56C30.5773 56 32.6666 53.9107 32.6666 51.3333C32.6666 48.756 30.5773 46.6667 28 46.6667C25.4227 46.6667 23.3333 48.756 23.3333 51.3333Z" fill="#EC7063"/>
  <path d="M23.3333 35C23.3333 37.5773 25.4227 39.6667 28 39.6667C30.5773 39.6667 32.6666 37.5773 32.6666 35V4.66666C32.6666 2.08934 30.5773 0 28 0C25.4227 0 23.3333 2.08934 23.3333 4.66666V35Z" fill="#AF7AC5"/>
  <path d="M39.6666 42C39.6666 44.5773 41.756 46.6667 44.3333 46.6667C46.9106 46.6667 49 44.5773 49 42V14C49 11.4227 46.9106 9.33334 44.3333 9.33334C41.756 9.33334 39.6666 11.4227 39.6666 14V42Z" fill="#F5B041"/>
</svg>
